<?xml version="1.0" encoding="utf-8"?>
<!-- Generator: Adobe Illustrator 18.1.1, SVG Export Plug-In . SVG Version: 6.00 Build 0)  -->
<svg version="1.1" id="Layer_1" xmlns="http://www.w3.org/2000/svg" xmlns:xlink="http://www.w3.org/1999/xlink" x="0px" y="0px"
	 viewBox="0 0 293.5 285.2" enable-background="new 0 0 293.5 285.2" xml:space="preserve">
<g>
	<path fill="#DB7071" stroke="#CA3032" stroke-width="3" stroke-linecap="round" d="M249.8,163c0,14.7-11.9,26.5-26.5,26.5
		c-14.7,0-26.5-11.9-26.5-26.5c0-14.7,11.9-26.5,26.5-26.5C237.9,136.5,249.8,148.4,249.8,163z"/>
	<circle fill="#FFFFFF" stroke="#CA3032" stroke-width="3" stroke-linecap="round" cx="215.7" cy="131.5" r="21.8"/>
	<line fill="none" stroke="#CA3032" stroke-width="3" x1="57" y1="254.1" x2="57" y2="263.9"/>
	<line fill="none" stroke="#CA3032" stroke-width="3" x1="52.3" y1="259.4" x2="61.7" y2="259.4"/>
	<line fill="none" stroke="#CA3032" stroke-width="3" x1="250" y1="0" x2="250" y2="18.7"/>
	<line fill="none" stroke="#CA3032" stroke-width="3" x1="241.1" y1="10" x2="258.9" y2="10"/>
	<line fill="none" stroke="#CA3032" stroke-width="3" x1="11" y1="9.5" x2="11" y2="19.4"/>
	<line fill="none" stroke="#CA3032" stroke-width="3" x1="6.3" y1="14.8" x2="15.7" y2="14.8"/>
	<line fill="none" stroke="#CA3032" stroke-width="3" x1="65.4" y1="27.6" x2="65.4" y2="37.4"/>
	<line fill="none" stroke="#CA3032" stroke-width="3" x1="60.6" y1="32.8" x2="70" y2="32.8"/>
	<line fill="none" stroke="#CA3032" stroke-width="3" x1="235.8" y1="262.8" x2="235.8" y2="281.5"/>
	<line fill="none" stroke="#CA3032" stroke-width="3" x1="226.9" y1="272.8" x2="244.7" y2="272.8"/>
	<line fill="none" stroke="#CA3032" stroke-width="3" x1="288.8" y1="242.9" x2="288.8" y2="252.8"/>
	<line fill="none" stroke="#CA3032" stroke-width="3" x1="284.1" y1="248.2" x2="293.5" y2="248.2"/>
	<polygon fill="#DB7071" stroke="#CA3032" stroke-width="3" stroke-linecap="round" points="66.4,156.8 47.4,166.7 51,145.6 
		35.7,130.6 56.9,127.5 66.4,108.3 75.9,127.6 97.1,130.7 81.7,145.6 85.3,166.8 	"/>
	<polygon fill="#DB7071" points="1.5,64.8 10,64.8 10.7,220.7 113.5,221.2 113.2,230.5 1.5,230.5 	"/>
	<path fill="none" stroke="#CA3032" stroke-width="3" stroke-linecap="round" d="M113.5,221c0,6,0,9.6,0,9.6H1.5V64.8c0,0,3.4,0,9,0
		"/>
	<polygon fill="#DB7071" points="92.7,85.4 95,56 121.9,80.6 	"/>
	<path fill="none" stroke="#CA3032" stroke-width="3" stroke-linecap="round" d="M95,55c-33.2,0-84.3,0-84.3,0v165.7h112
		c0,0,0-93.5,0-140.1L95,55z"/>
	<polyline fill="none" stroke="#CA3032" stroke-width="3" points="122.7,80.6 92.7,85.4 95,55 	"/>
	<polygon fill="#DB7071" points="178.4,67.9 176.4,65.5 176.4,57.3 288.4,57.3 288.4,223 278.9,223 277.4,218.9 277.4,218.9 
		277.5,67.7 	"/>
	<path fill="none" stroke="#CA3032" stroke-width="3" d="M277.3,223c6.9,0,11.1,0,11.1,0V57.3H176.4c0,0,0,3.9,0,10.4"/>
	<rect x="165.4" y="67.7" fill="none" stroke="#CA3032" stroke-width="3" stroke-linecap="round" width="112.1" height="165.7"/>
	<circle fill="#FFFFFF" stroke="#CA3032" stroke-width="3" stroke-linecap="round" cx="144.7" cy="142.9" r="35.3"/>
	<circle fill="#DB7071" stroke="#CA3032" stroke-width="3" stroke-linecap="round" cx="144.7" cy="142.9" r="28.5"/>
	<text transform="matrix(1 0 0 1 126.5049 152.2998)" fill="#FFFFFF" font-family="'Montserrat-Bold'" font-size="26.5495">VS</text>
	<line fill="none" stroke="#CA3032" stroke-width="3" stroke-linecap="round" x1="178" y1="265.8" x2="172.8" y2="251.5"/>
	<path fill="none" stroke="#CA3032" stroke-width="3" stroke-linecap="round" d="M160.1,272.3c0.7,4.7,1,6.7,1,6.7"/>
	<path fill="none" stroke="#CA3032" stroke-width="3" stroke-linecap="round" d="M157.2,251.9c0,0,1,7.1,2.2,15"/>
	<line fill="none" stroke="#CA3032" stroke-width="3" stroke-linecap="round" x1="104.9" y1="265.8" x2="110.1" y2="251.5"/>
	<line fill="none" stroke="#CA3032" stroke-width="3" stroke-linecap="round" x1="125.7" y1="251.9" x2="121.8" y2="279"/>
	<g>
		<line fill="none" stroke="#CA3032" stroke-width="3" stroke-linecap="round" x1="140.7" y1="262.4" x2="140.7" y2="251.8"/>
		<line fill="none" stroke="#CA3032" stroke-width="3" stroke-linecap="round" x1="140.7" y1="283.7" x2="140.7" y2="279.8"/>
		<line fill="none" stroke="#CA3032" stroke-width="3" stroke-linecap="round" x1="140.7" y1="272.9" x2="140.7" y2="269"/>
	</g>
	<line fill="none" stroke="#CA3032" stroke-width="3" stroke-linecap="round" x1="181.5" y1="20.4" x2="176.3" y2="34.7"/>
	<path fill="none" stroke="#CA3032" stroke-width="3" stroke-linecap="round" d="M163.6,13.9c0.7-4.7,1-6.7,1-6.7"/>
	<path fill="none" stroke="#CA3032" stroke-width="3" stroke-linecap="round" d="M160.7,34.3c0,0,1-7.1,2.2-15"/>
	<line fill="none" stroke="#CA3032" stroke-width="3" stroke-linecap="round" x1="108.4" y1="20.4" x2="113.6" y2="34.7"/>
	<path fill="none" stroke="#CA3032" stroke-width="3" stroke-linecap="round" d="M127.4,22.1c-1.1-8-2.1-14.9-2.1-14.9"/>
	<path fill="none" stroke="#CA3032" stroke-width="3" stroke-linecap="round" d="M129.2,34.3c0,0-0.3-2-0.9-6.3"/>
	<g>
		<path fill="none" stroke="#CA3032" stroke-width="3" stroke-linecap="round" d="M144.2,18.7c0,9.2,0,15.6,0,15.6"/>
		<path fill="none" stroke="#CA3032" stroke-width="3" stroke-linecap="round" d="M144.2,2.5c0,0,0,4.3,0,10.5"/>
	</g>
</g>
</svg>
