<?xml version="1.0" encoding="utf-8"?>
<!-- Generator: Adobe Illustrator 16.0.0, SVG Export Plug-In . SVG Version: 6.00 Build 0)  -->
<!DOCTYPE svg PUBLIC "-//W3C//DTD SVG 1.1//EN" "http://www.w3.org/Graphics/SVG/1.1/DTD/svg11.dtd">
<svg version="1.1" id="Layer_1" xmlns="http://www.w3.org/2000/svg" xmlns:xlink="http://www.w3.org/1999/xlink" x="0px" y="0px"
	 width="141.73px" height="141.73px" viewBox="0 0 141.73 141.73" enable-background="new 0 0 141.73 141.73" xml:space="preserve">
<g>
	<g>
		<rect x="38.271" y="11.751" fill="#FFFFFF" stroke="#D43E28" stroke-miterlimit="10" width="37.476" height="99.729"/>
		<g>
			<path fill="#D43E28" d="M55.293,19.947c0.196-0.176,0.43-0.266,0.701-0.266c0.286,0,0.53,0.1,0.735,0.301
				c0.205,0.2,0.306,0.443,0.306,0.727v0.024v0.925h2.386v-0.984c-0.003-0.936-0.344-1.734-1.013-2.395
				c-0.671-0.661-1.476-0.993-2.41-0.993c-0.926,0-1.721,0.323-2.387,0.971c-0.657,0.639-1.004,1.415-1.037,2.323h2.39
				C54.996,20.332,55.105,20.119,55.293,19.947"/>
			<path fill="#D43E28" d="M57.794,22.226c-0.594-0.321-1.195-0.479-1.806-0.479c-0.277-0.008-0.516-0.108-0.713-0.308
				c-0.187-0.188-0.285-0.414-0.295-0.674h-2.386c0.011,0.918,0.34,1.706,0.993,2.367c0.665,0.667,1.463,1.005,2.4,1.009h0.01
				c0.253,0,0.482,0.08,0.687,0.239c0.238,0.192,0.363,0.458,0.372,0.799h2.387C59.433,23.792,58.885,22.809,57.794,22.226"/>
			<path fill="#D43E28" d="M56.722,25.972c-0.197,0.176-0.427,0.267-0.699,0.267c-0.289,0-0.533-0.103-0.735-0.301
				c-0.207-0.202-0.307-0.444-0.307-0.729v-0.022V24.26h-2.388v0.984c0.006,0.937,0.346,1.733,1.017,2.394
				c0.672,0.663,1.474,0.993,2.41,0.993c0.926,0,1.72-0.324,2.384-0.97c0.653-0.636,0.999-1.402,1.039-2.297H57.05
				C57.013,25.603,56.903,25.803,56.722,25.972"/>
		</g>
		<rect x="43.536" y="39.626" fill="#D43E28" width="12.462" height="11.77"/>
		<rect x="57.01" y="59.91" fill="#D43E28" width="13.627" height="11.614"/>
		<rect x="58.867" y="39.626" fill="#D43E28" width="13.163" height="1.084"/>
		<rect x="58.867" y="41.793" fill="#D43E28" width="13.163" height="1.085"/>
		<rect x="58.867" y="43.885" fill="#D43E28" width="13.163" height="1.084"/>
		<rect x="58.867" y="46.052" fill="#D43E28" width="13.163" height="1.084"/>
		<rect x="42.296" y="60.142" fill="#D43E28" width="13.163" height="1.084"/>
		<rect x="42.296" y="62.31" fill="#D43E28" width="13.163" height="1.084"/>
		<rect x="42.296" y="64.632" fill="#D43E28" width="13.163" height="1.085"/>
		<rect x="50.652" y="103.738" fill="#D43E28" width="12.817" height="0.93"/>
		<rect x="41.583" y="105.752" fill="#D43E28" width="30.955" height="0.93"/>
		<rect x="41.677" y="77.176" fill="#D43E28" width="29.271" height="1.086"/>
		<rect x="41.677" y="78.961" fill="#D43E28" width="29.271" height="1.084"/>
		<rect x="41.677" y="81.051" fill="#D43E28" width="29.271" height="1.084"/>
		<rect x="41.677" y="82.948" fill="#D43E28" width="18.855" height="1.085"/>
	</g>
	<g>
		<rect x="53.057" y="50.588" fill="#FFFFFF" stroke="#D43E28" stroke-miterlimit="10" width="46.459" height="59.931"/>
		<g>
			<g>
				<rect x="87.169" y="73.183" fill="#FFFFFF" stroke="#D43E28" stroke-miterlimit="10" width="35.403" height="35.688"/>
				<rect x="120.344" y="106.649" fill="#FFFFFF" width="4.523" height="4.521"/>
				<path fill="#D33D27" d="M125.101,111.405h-4.99v-4.991h4.99V111.405z M120.578,110.938h4.055v-4.056h-4.055V110.938z"/>
				<rect x="84.942" y="106.649" fill="#FFFFFF" width="4.522" height="4.521"/>
				<path fill="#D33D27" d="M89.699,111.405h-4.991v-4.991h4.991V111.405z M85.177,110.938h4.054v-4.056h-4.054V110.938z"/>
				<rect x="120.344" y="70.958" fill="#FFFFFF" width="4.523" height="4.522"/>
				<path fill="#D33D27" d="M125.101,75.716h-4.99v-4.991h4.99V75.716z M120.578,75.248h4.055v-4.055h-4.055V75.248z"/>
				<rect x="84.942" y="70.958" fill="#FFFFFF" width="4.522" height="4.522"/>
				<path fill="#D33D27" d="M89.699,75.716h-4.991v-4.991h4.991V75.716z M85.177,75.248h4.054v-4.055h-4.054V75.248z"/>
				<rect x="103.291" y="71.349" fill="#FFFFFF" width="3.591" height="3.592"/>
				<path fill="#D33D27" d="M107.115,75.175h-4.059v-4.06h4.059V75.175z M103.524,74.707h3.122v-3.124h-3.122V74.707z"/>
				<rect x="85.408" y="89.232" fill="#FFFFFF" width="3.591" height="3.591"/>
				<path fill="#D33D27" d="M89.234,93.057h-4.061v-4.06h4.061V93.057z M85.644,92.588h3.122v-3.123h-3.122V92.588z"/>
				<rect x="120.811" y="89.232" fill="#FFFFFF" width="3.591" height="3.591"/>
				<path fill="#D33D27" d="M124.636,93.057h-4.06v-4.06h4.06V93.057z M121.044,92.588h3.123v-3.123h-3.123V92.588z"/>
				<rect x="103.075" y="107.113" fill="#FFFFFF" width="3.591" height="3.592"/>
				<path fill="#D33D27" d="M106.9,110.939h-4.061v-4.061h4.061V110.939z M103.309,110.471h3.124v-3.123h-3.124V110.471z"/>
			</g>
			<g>
				<g>
					<path fill="#D43E28" d="M102.867,82.604c0.556-0.493,1.202-0.743,1.961-0.743c0.804,0,1.485,0.278,2.057,0.838
						c0.575,0.564,0.854,1.242,0.854,2.035v0.069v2.582h6.678v-2.75c-0.013-2.613-0.964-4.849-2.837-6.697
						c-1.874-1.848-4.126-2.774-6.738-2.774c-2.589,0-4.813,0.905-6.675,2.717c-1.836,1.784-2.807,3.952-2.902,6.493h6.683
						C102.038,83.679,102.345,83.082,102.867,82.604"/>
					<path fill="#D43E28" d="M109.863,88.977c-1.662-0.897-3.342-1.335-5.049-1.335c-0.777-0.024-1.442-0.306-1.994-0.866
						c-0.521-0.526-0.795-1.155-0.824-1.883h-6.671c0.028,2.566,0.951,4.771,2.776,6.616c1.857,1.867,4.091,2.81,6.713,2.823h0.026
						c0.706,0,1.349,0.223,1.918,0.666c0.669,0.537,1.016,1.281,1.04,2.238h6.677C114.449,93.357,112.914,90.605,109.863,88.977"/>
					<path fill="#D43E28" d="M106.866,99.452c-0.553,0.493-1.195,0.747-1.957,0.747c-0.806,0-1.486-0.287-2.057-0.846
						c-0.577-0.563-0.86-1.24-0.86-2.033v-0.066v-2.586h-6.669v2.754c0.012,2.616,0.962,4.844,2.836,6.692
						c1.877,1.853,4.122,2.777,6.738,2.777c2.593,0,4.812-0.908,6.668-2.713c1.828-1.778,2.792-3.922,2.906-6.423h-6.689
						C107.678,98.419,107.376,98.98,106.866,99.452"/>
				</g>
			</g>
			<path fill="#FFFFFF" stroke="#D33D27" stroke-width="0.5" stroke-miterlimit="10" d="M128.954,107.314l2.006-2.967l2.36,1.596
				l-2.004,2.967L128.954,107.314z M128.57,101.868c-0.214-1.036-0.852-2.029-1.854-2.708c-0.831-0.561-1.771-0.813-2.659-0.777
				c-1.071-0.074-2.657-0.033-5.135-1.225c0.024-0.221-0.067-0.45-0.265-0.584c-0.281-0.189-0.663-0.115-0.854,0.166
				c-0.099,0.145-0.126,0.315-0.093,0.475l5.641,3.812c0.333-0.259,0.801-0.292,1.166-0.046c0.454,0.309,0.574,0.926,0.267,1.379
				c-0.306,0.453-0.924,0.574-1.378,0.266c-0.378-0.255-0.52-0.727-0.379-1.141l-5.62-3.801c-0.165,0.022-0.319,0.114-0.421,0.264
				c-0.189,0.279-0.116,0.662,0.165,0.854c0.198,0.135,0.443,0.135,0.642,0.025c2.232,2.045,2.678,3.64,3.189,4.587
				c0.322,0.724,0.858,1.382,1.589,1.876c0.994,0.672,2.143,0.896,3.179,0.718l2.104,1.761l3.115-4.612L128.57,101.868z"/>
		</g>
		<g>
			<path fill="#D43E28" d="M58.771,55.984c0.129-0.115,0.278-0.173,0.455-0.173c0.186,0,0.345,0.065,0.477,0.195
				c0.134,0.131,0.198,0.288,0.198,0.473v0.015v0.599h1.548v-0.637c-0.002-0.606-0.224-1.125-0.658-1.554
				c-0.435-0.428-0.956-0.643-1.563-0.643c-0.6,0-1.116,0.209-1.547,0.631c-0.427,0.414-0.651,0.917-0.673,1.505h1.55
				C58.579,56.233,58.65,56.095,58.771,55.984"/>
			<path fill="#D43E28" d="M60.394,57.462c-0.386-0.208-0.774-0.31-1.17-0.31c-0.181-0.006-0.335-0.07-0.463-0.201
				c-0.122-0.123-0.185-0.268-0.191-0.437h-1.547c0.007,0.595,0.22,1.106,0.644,1.533c0.432,0.433,0.948,0.653,1.558,0.656h0.005
				c0.164,0,0.313,0.051,0.446,0.154c0.155,0.125,0.235,0.297,0.241,0.519h1.548C61.458,58.478,61.101,57.84,60.394,57.462"/>
			<path fill="#D43E28" d="M59.699,59.891c-0.128,0.115-0.278,0.173-0.454,0.173c-0.187,0-0.345-0.067-0.478-0.196
				c-0.133-0.131-0.198-0.288-0.198-0.471v-0.015v-0.6h-1.547v0.638c0.002,0.607,0.223,1.125,0.657,1.552
				c0.436,0.43,0.956,0.645,1.563,0.645c0.601,0,1.116-0.211,1.547-0.63c0.424-0.412,0.647-0.909,0.674-1.489h-1.552
				C59.888,59.652,59.816,59.782,59.699,59.891"/>
		</g>
		<g>
			<rect x="71.896" y="94.555" fill="#FFFFFF" stroke="#D43E28" stroke-miterlimit="10" width="27.754" height="17.625"/>
			<g>
				<path fill="#D43E28" d="M76.73,101.627c0.114-0.102,0.249-0.153,0.406-0.153c0.164,0,0.307,0.058,0.424,0.173
					c0.119,0.117,0.177,0.256,0.177,0.421v0.015v0.533h1.379v-0.568c-0.002-0.541-0.199-1.001-0.586-1.383
					c-0.387-0.383-0.853-0.574-1.393-0.574c-0.534,0-0.993,0.188-1.378,0.563c-0.379,0.367-0.58,0.816-0.6,1.341h1.38
					C76.559,101.85,76.623,101.727,76.73,101.627"/>
				<path fill="#D43E28" d="M78.177,102.943c-0.345-0.186-0.691-0.275-1.044-0.275c-0.16-0.004-0.298-0.063-0.412-0.179
					c-0.108-0.108-0.164-0.239-0.17-0.39h-1.378c0.005,0.531,0.196,0.986,0.573,1.367c0.384,0.385,0.845,0.581,1.387,0.583h0.005
					c0.146,0,0.279,0.046,0.397,0.138c0.139,0.111,0.21,0.266,0.214,0.462h1.38C79.122,103.848,78.806,103.28,78.177,102.943"/>
				<path fill="#D43E28" d="M77.556,105.107c-0.112,0.102-0.246,0.154-0.403,0.154c-0.167,0-0.308-0.06-0.425-0.174
					c-0.119-0.117-0.178-0.257-0.178-0.421v-0.013v-0.535h-1.378v0.568c0.002,0.541,0.198,1.002,0.586,1.383
					c0.389,0.383,0.852,0.574,1.392,0.574c0.536,0,0.995-0.188,1.378-0.561c0.378-0.367,0.576-0.811,0.601-1.326h-1.382
					C77.725,104.895,77.661,105.011,77.556,105.107"/>
			</g>
			<rect x="83.341" y="100.273" fill="#D33D27" width="12.357" height="1.078"/>
			<rect x="83.341" y="102.828" fill="#D33D27" width="12.357" height="1.078"/>
			<rect x="83.341" y="105.244" fill="#D33D27" width="12.357" height="1.076"/>
		</g>
		<rect x="83.341" y="55.676" fill="#D43E28" width="11.249" height="0.839"/>
		<rect x="83.373" y="57.527" fill="#D43E28" width="11.249" height="0.839"/>
		<rect x="83.373" y="59.377" fill="#D43E28" width="11.249" height="0.839"/>
	</g>
	<g>
		<polygon fill-rule="evenodd" clip-rule="evenodd" fill="#D43E28" points="11.765,74.213 29.943,78.423 48.299,75.061 
			66.438,79.527 66.451,118.076 48.025,113.135 29.885,116.639 11.765,111.138 		"/>
		<polygon fill-rule="evenodd" clip-rule="evenodd" fill="#FFFFFF" points="13.211,75.838 29.021,79.701 29.021,114.752 
			13.211,110.051 		"/>
		<polygon fill-rule="evenodd" clip-rule="evenodd" fill="#FFFFFF" points="30.639,79.875 47.348,76.588 47.348,111.788 
			30.639,114.842 		"/>
		<polygon fill-rule="evenodd" clip-rule="evenodd" fill="#FFFFFF" points="48.875,76.588 48.875,111.981 65.044,116.189 
			65.044,80.877 		"/>
		<polygon opacity="0.5" fill-rule="evenodd" clip-rule="evenodd" fill="#D43E28" points="21.116,90.347 14.739,88.293 
			14.739,77.604 21.116,79.166 		"/>
		<polygon opacity="0.5" fill-rule="evenodd" clip-rule="evenodd" fill="#D43E28" points="39.107,87.14 32.415,88.374 
			32.415,81.961 39.107,80.727 		"/>
		<polygon opacity="0.5" fill-rule="evenodd" clip-rule="evenodd" fill="#D43E28" points="45.801,109.586 39.107,110.818 
			39.107,104.405 45.801,103.172 		"/>
		<polygon opacity="0.5" fill-rule="evenodd" clip-rule="evenodd" fill="#D43E28" points="63.619,99.555 50.3,96.146 50.3,85.331 
			63.619,88.374 		"/>
		<polygon opacity="0.5" fill-rule="evenodd" clip-rule="evenodd" fill="#D43E28" points="63.619,101.445 50.3,97.993 50.3,97.254 
			63.619,100.582 		"/>
		<polygon opacity="0.5" fill-rule="evenodd" clip-rule="evenodd" fill="#D43E28" points="63.619,102.803 50.3,99.35 50.3,98.609 
			63.619,101.939 		"/>
		<polygon opacity="0.5" fill-rule="evenodd" clip-rule="evenodd" fill="#D43E28" points="63.618,105.639 50.3,102.186 
			50.3,101.445 63.618,104.776 		"/>
		<polygon opacity="0.5" fill-rule="evenodd" clip-rule="evenodd" fill="#D43E28" points="63.618,106.995 50.3,103.543 
			50.3,102.803 63.618,106.131 		"/>
		<polygon opacity="0.5" fill-rule="evenodd" clip-rule="evenodd" fill="#D43E28" points="63.618,108.354 50.3,104.899 
			50.3,104.158 63.618,107.488 		"/>
		<polygon opacity="0.5" fill-rule="evenodd" clip-rule="evenodd" fill="#D43E28" points="28.059,95.033 14.739,90.594 
			14.739,89.854 28.059,94.107 		"/>
		<polygon opacity="0.5" fill-rule="evenodd" clip-rule="evenodd" fill="#D43E28" points="28.059,96.389 14.739,91.949 
			14.739,91.209 28.059,95.463 		"/>
		<polygon opacity="0.5" fill-rule="evenodd" clip-rule="evenodd" fill="#D43E28" points="28.059,101.939 14.739,97.5 14.739,96.76 
			28.059,101.015 		"/>
		<polygon opacity="0.5" fill-rule="evenodd" clip-rule="evenodd" fill="#D43E28" points="46.475,88.866 32.415,91.209 
			32.415,90.347 46.475,87.88 		"/>
		<polygon opacity="0.5" fill-rule="evenodd" clip-rule="evenodd" fill="#D43E28" points="46.475,90.531 32.415,92.873 
			32.415,92.011 46.475,89.545 		"/>
		<polygon opacity="0.5" fill-rule="evenodd" clip-rule="evenodd" fill="#D43E28" points="46.475,92.195 32.415,94.537 
			32.415,93.676 46.475,91.209 		"/>
	</g>
</g>
</svg>
