<?xml version="1.0" encoding="utf-8"?>
<!-- Generator: Adobe Illustrator 18.1.1, SVG Export Plug-In . SVG Version: 6.00 Build 0)  -->
<svg version="1.1" id="Layer_1" xmlns="http://www.w3.org/2000/svg" xmlns:xlink="http://www.w3.org/1999/xlink" x="0px" y="0px"
	 viewBox="0 0 129.4 114.4" enable-background="new 0 0 129.4 114.4" xml:space="preserve">
<g>
	<g>
		<path fill="#C73130" d="M126.4,109.9H2c-1.1,0-2-0.8-2-1.7v-9.5c0-0.9,0.9-1.7,2-1.7h2.2v-58C1.7,38,0,35.7,0,33.2V1.7
			C0,0.8,0.9,0,2,0h125.4c1.1,0,2,0.8,2,1.7v31.5c0,2.9-2.2,5.4-5.2,6.3v57.6h2.2c1.1,0,2,0.8,2,1.7v9.5
			C128.3,109.2,127.5,109.9,126.4,109.9z"/>
		<rect x="0" y="109.6" fill="#C73130" width="129.4" height="4.7"/>
	</g>
	<rect x="6.9" y="5.1" fill="#FFFFFF" width="115.3" height="27.1"/>
	<rect x="8.8" y="39.3" fill="#DB7171" width="110.7" height="63.3"/>
	<g>
		<rect x="14.5" y="73.3" fill="#FFFFFF" width="100.5" height="35.5"/>
		<g>
			<path fill="#C73130" d="M23.5,82.2c-0.6-0.4-1.3-0.5-2-0.4c0,0,0,0-0.1,0c-1.4,0.2-2.6,1.4-2.6,2.8v25.2h4.6V82.2z"/>
			<path fill="#C73130" d="M30.1,82.2c-0.5-0.3-1-0.5-1.6-0.5c-0.7,0-1.4,0.3-2,0.7v27.3h3.6V82.2z"/>
			<path fill="#C73130" d="M36.7,82.2c-0.5-0.3-1.1-0.5-1.7-0.5c-0.7,0-1.4,0.3-2,0.7v27.4h3.6V82.2z"/>
			<path fill="#C73130" d="M43.4,82.3c-0.5-0.3-1.1-0.5-1.7-0.5c-0.7,0-1.4,0.2-2,0.7v27.4h3.6V82.3z"/>
			<path fill="#C73130" d="M50,82.3c-0.5-0.3-1.1-0.5-1.7-0.5c-0.7,0-1.4,0.2-2,0.7v27.4H50V82.3z"/>
			<path fill="#C73130" d="M56.6,82.3c-0.5-0.3-1.1-0.5-1.7-0.5c-0.7,0-1.4,0.2-1.9,0.7v27.4h3.6V82.3z"/>
			<path fill="#C73130" d="M63.2,82.3c-0.5-0.3-1.1-0.5-1.7-0.5c-0.7,0-1.4,0.2-1.9,0.7v27.4h3.6V82.3z"/>
			<path fill="#C73130" d="M69.8,82.3c-1.1-0.7-2.6-0.7-3.6,0.1v27.4h3.6V82.3z"/>
			<path fill="#C73130" d="M76.5,82.3c-1.1-0.7-2.6-0.7-3.6,0.1v27.4h3.6V82.3z"/>
			<path fill="#C73130" d="M83.1,82.3c-1.1-0.7-2.6-0.7-3.6,0.1v27.4h3.6V82.3z"/>
			<path fill="#C73130" d="M89.7,82.3c-1-0.8-2.6-0.7-3.6,0.1v27.5h3.6V82.3z"/>
			<path fill="#C73130" d="M96.3,82.3c-1-0.8-2.6-0.7-3.6,0v27.5h3.6V82.3z"/>
			<path fill="#C73130" d="M102.9,82.4c-1-0.8-2.6-0.8-3.6,0v27.5h3.6V82.4z"/>
			<path fill="#C73130" d="M107.7,81.8L107.7,81.8c-0.7,0-1.3,0.2-1.8,0.6v27.5h4.8V84.6c0-1.3-0.9-2.3-2.1-2.7c0,0,0,0,0,0
				C108.3,81.8,108,81.8,107.7,81.8L107.7,81.8C107.7,81.8,107.7,81.8,107.7,81.8L107.7,81.8L107.7,81.8z"/>
		</g>
	</g>
	<g>
		<rect x="14.5" y="14.2" fill="#DB7171" width="100.5" height="9.4"/>
	</g>
</g>
</svg>
