<?xml version="1.0" encoding="utf-8"?>
<!-- Generator: Adobe Illustrator 18.1.1, SVG Export Plug-In . SVG Version: 6.00 Build 0)  -->
<svg version="1.1" id="Layer_1" xmlns="http://www.w3.org/2000/svg" xmlns:xlink="http://www.w3.org/1999/xlink" x="0px" y="0px"
	 viewBox="0 0 246.2 148.1" enable-background="new 0 0 246.2 148.1" xml:space="preserve">
<g>
	<g>
		<g>
			<g>
				<g>
					<g>
						<polygon fill="#FFFFFF" points="150.7,63 150.7,36.6 58.2,36.6 47.6,26 2.6,26 2.6,63 						"/>
					</g>
					<g>
						<rect x="15.9" y="44.5" fill="#FFFFFF" width="121.6" height="18.5"/>
					</g>
					<g>
						<polygon fill="#DB7171" points="150.7,142.3 2.6,142.3 2.6,63 47.6,63 58.2,52.4 150.7,52.4 						"/>
					</g>
					<g>
						<path fill="#C73130" d="M153.4,145H0V60.4h46.5l10.6-10.6h96.3V145z M148.1,139.7V55.1H59.3L48.7,65.7H5.3v74"/>
					</g>
					<g>
						<polygon fill="#C73130" points="5.3,63 0,63 0,23.3 48.7,23.3 59.3,33.9 153.4,33.9 153.4,52.4 148.1,52.4 148.1,39.2 
							57.1,39.2 46.5,28.6 5.3,28.6 						"/>
					</g>
					<g>
						<g>
							<rect x="10.9" y="76.2" fill="#FFFFFF" width="23.7" height="5.3"/>
						</g>
						<g>
							<rect x="10.9" y="86.8" fill="#FFFFFF" width="23.7" height="5.3"/>
						</g>
					</g>
				</g>
			</g>
			<text transform="matrix(1 0 0 1 43.5939 119.4885)" fill="#FFFFFF" font-family="'Arial-Black'" font-size="64.7815">1</text>
		</g>
	</g>
	<g>
		<g>
			<path fill-rule="evenodd" clip-rule="evenodd" fill="#C73130" d="M199.5,23.7c-0.6,0.3-0.3,4.1-0.2,4.7c0.3,1.6,0.4,2.6,1.2,4
				c1,1.9,3.3,4.3,5.3,5.1c2.2,1,1.7,0.8,4.1,1.1c1.4,0.2,3.2,0,4.6-0.5c2.5-0.8,4.5-2.2,6-4.4c1-1.4,1.2-1.8,1.7-3.4
				c0.2-0.6,0.4-1.6,0.5-2.2c0.1-1.2-1-0.9-1.8-0.8c-0.8,0-1.8,0-2.6,0c-0.9,0-1.7,0-2.6,0c-1-0.1-1.3,0.1-1.5,1.1
				c-0.5,1.9-3.5,2.8-5.2,1.4c-1.5-1.2-1.4-2.1-1.4-3.8c0-0.6,0.2-2-0.3-2.3c-0.3-0.2-2-0.1-2.5-0.1
				C204.1,23.6,199.6,23.6,199.5,23.7L199.5,23.7z"/>
			<path fill-rule="evenodd" clip-rule="evenodd" fill="#C73130" d="M207.2,11.4c0.1-0.1,0-0.2,0.2-0.4c0.2-0.2-0.1-0.4,0.1-0.5
				c0.2-0.2,0.3-0.7,0.4-0.9c0.2-0.2,0.5-0.4,0.6-0.6c0.2-0.2,0.3-0.1,0.4-0.2c0.3-0.2,0.3-0.1,0.4-0.2c0.2-0.2,0.2-0.1,0.5-0.1
				c0.4,0,0.2-0.1,0.4-0.2c0.1,0,0.5,0,0.6,0c0.3,0,0.2,0.2,0.4,0.2c0.2,0,0.4-0.1,0.6,0c0.2,0.2,0.3,0.1,0.4,0.2
				c0.1,0.1,0.2,0.3,0.3,0.3c0.3,0.1,0.2,0,0.4,0.2c0.1,0.1,0.2,0.2,0.3,0.3c0.1,0.3,0,0.2,0.3,0.4c0.2,0.2,0.1,0.3,0.2,0.4
				c0.2,0.2,0.1,0.2,0.1,0.5c0,0.1,0,0.5,0,0.6c0.1,0.2,0.2,0,0.2,0.5l0,2.6c0,0.3,0.1,0.3,0.4,0.3c0.8,0.1,2.4,0,3.2,0
				c0.9,0,1.8,0,2.6,0c0.8,0,2,0.4,2-0.6c0-0.9-0.1-1.8,0-2.6c0-0.9-0.1-1.5-0.2-2.4c-0.3-1.6-0.8-2.4-1.5-3.7
				c-0.2-0.5-1.9-2.5-2.4-2.8c-0.3-0.2-0.5-0.3-0.7-0.6c-0.3-0.3-0.4-0.3-0.8-0.5c-0.7-0.4-0.9-0.6-1.7-0.9c-0.6-0.2-1.3-0.5-2-0.6
				C212.2,0,211.9,0,210.8,0c-1.9,0-2.6,0.2-4.4,0.8c-1.2,0.4-2.3,1.2-3.2,2c-0.7,0.5-2,2.1-2.4,2.8c-0.1,0.3-0.4,0.5-0.5,0.8
				c-0.1,0.3-0.2,0.7-0.4,1c-0.3,0.7-0.7,2.3-0.8,3.1c0,0.2,0,0.4,0,0.6c0,0.4,0,0.4,0.3,0.4C200.8,11.4,206.9,11.5,207.2,11.4
				L207.2,11.4z"/>
			<path fill-rule="evenodd" clip-rule="evenodd" fill="#C73130" d="M199.4,11.7c-0.6,0.3,0.2,3.3,0.4,3.9c0.3,1,1.1,2.4,1.7,3.2
				c0.5,0.6,1.8,2,2.4,2.4c1.1,0.8,1.9,1.2,3.2,1.7c1.5,0.5,2.7,0.6,4.2,0.6c1.2,0,2.4,1,2.8,2.1c0.2,0.6,0,1.5,0.8,1.6
				c0.4,0.1,0.9,0,1.2,0c0.4,0,0.8,0,1.2,0c0.6,0,4.6,0.1,4.8,0c0.8-0.3,0-3.4-0.2-4.1c-0.2-0.9-1.1-2.5-1.6-3.3
				c-1.3-1.8-3.8-3.3-5.8-3.9c-1.5-0.4-2.6-0.6-4.2-0.7c-0.9-0.1-1-0.1-1.8-0.7c-0.3-0.3-1-1-1.1-1.3c-0.2-0.6,0-1.4-0.9-1.5
				c-0.4,0-0.8,0-1.3,0C204.6,11.6,199.6,11.6,199.4,11.7L199.4,11.7z"/>
		</g>
		<g>
			<rect x="110.1" y="5.7" fill-rule="evenodd" clip-rule="evenodd" fill="#FFFFFF" width="77.4" height="56.7"/>
			<g>
				<g>
					<path fill="#DB7171" d="M105.6,121.4c-8.8,0-15.9-7.1-15.9-15.9c0-8.8,7.1-15.9,15.9-15.9h2.3V62.4h81.7v45.4h-0.2
						c-1.1,7.7-7.7,13.6-15.7,13.6c-0.8,0-1.5-0.1-2.3-0.2v0.2H105.6z"/>
				</g>
				<g>
					<g>
						<path fill="#C73130" d="M191.8,105.5V1.2l-86.2,0v86.2h4.5V5.7h77.1v99.8c0,7.5-6.1,13.6-13.6,13.6S160,113,160,105.5
							c0-7.5,6.1-13.6,13.6-13.6v-4.5c-10,0-18.1,8.1-18.1,18.1c0,10,8.1,18.1,18.1,18.1S191.8,115.5,191.8,105.5z"/>
					</g>
				</g>
				<g>
					<g>
						<path fill="#C73130" d="M173.6,123.7v-4.5h-68.1c-7.5,0-13.6-6.1-13.6-13.6c0-7.5,6.1-13.6,13.6-13.6h68.1v-4.5h-68.1
							c-10,0-18.1,8.1-18.1,18.1c0,10,8.1,18.1,18.1,18.1H173.6z"/>
					</g>
				</g>
				<g>
					<g>
						<rect x="119.1" y="39.7" fill="#DB7171" width="13.4" height="13.6"/>
					</g>
					<g>
						<rect x="141.5" y="39.7" fill="#DB7171" width="13.4" height="13.6"/>
					</g>
					<g>
						<path fill="#C73130" d="M116.9,37.4h17.9v18.1h-17.9V37.4z M130.3,41.9h-9V51h9V41.9z"/>
					</g>
					<g>
						<path fill="#C73130" d="M139.3,37.4h17.9v18.1h-17.9V37.4z M152.7,41.9h-9V51h9V41.9z"/>
					</g>
					<g>
						<rect x="163.9" y="39.7" fill="#DB7171" width="13.4" height="13.6"/>
					</g>
					<g>
						<path fill="#C73130" d="M161.7,37.4h17.9v18.1h-17.9V37.4z M175.1,41.9h-9V51h9V41.9z"/>
					</g>
					<g>
						<g>
							<rect x="116.9" y="67.5" fill="#FFFFFF" width="17.9" height="4.5"/>
						</g>
						<g>
							<rect x="116.9" y="76.6" fill="#FFFFFF" width="17.9" height="4.5"/>
						</g>
						<g>
							<rect x="139.3" y="67.5" fill="#FFFFFF" width="17.9" height="4.5"/>
						</g>
						<g>
							<rect x="139.3" y="76.6" fill="#FFFFFF" width="17.9" height="4.5"/>
						</g>
						<g>
							<rect x="161.7" y="67.5" fill="#FFFFFF" width="17.9" height="4.5"/>
						</g>
						<g>
							<rect x="161.7" y="76.6" fill="#FFFFFF" width="17.9" height="4.5"/>
						</g>
					</g>
					<g>
						<rect x="119.1" y="17" fill="#DB7171" width="58.2" height="13.6"/>
					</g>
					<g>
						<path fill="#C73130" d="M116.9,14.7h62.7v18.1h-62.7V14.7z M175.1,19.3h-53.7v9.1h53.7V19.3z"/>
					</g>
				</g>
			</g>
		</g>
		<g>
			<g>
				<g>
					<polygon fill="#FFFFFF" points="187.1,58.1 229,58.1 243.6,83.7 201.7,83.7 					"/>
					<path fill="#C73130" d="M243.6,86.8h-41.9l-2.4-1.4l-14.6-25.6l2.4-4.7H229l2.4,1.4L246,82L243.6,86.8z M203.3,80.6h35.3
						l-11.1-19.5h-35.3L203.3,80.6z"/>
				</g>
				<g>
					<rect x="214.4" y="83.7" fill="#FFFFFF" width="29" height="61.3"/>
					<path fill="#C73130" d="M243.4,148.1h-29c-1.5,0-2.8-1.4-2.8-3.1V83.7c0-1.7,1.3-3.1,2.8-3.1h29c1.5,0,2.8,1.4,2.8,3.1V145
						C246.2,146.7,244.9,148.1,243.4,148.1z M217.2,141.9h23.4V86.8h-23.4V141.9z"/>
				</g>
				<g>
					<rect x="172.6" y="83.7" fill="#DB7171" width="41.9" height="61.3"/>
					<path fill="#C73130" d="M214.4,148.1h-41.9c-1.5,0-2.8-1.4-2.8-3.1V83.7c0-1.7,1.3-3.1,2.8-3.1h41.9c1.5,0,2.8,1.4,2.8,3.1V145
						C217.2,146.7,216,148.1,214.4,148.1z M175.4,141.9h36.3V86.8h-36.3V141.9z"/>
				</g>
				<g>
					<rect x="187.1" y="45.2" fill="#DB7171" width="41.9" height="12.8"/>
					<path fill="#C73130" d="M229,61.1h-41.9l-2.8-3.1V45.2l2.8-3.1H229l2.8,3.1v12.8L229,61.1z M189.9,55h36.3v-6.6h-36.3V55z"/>
				</g>
				<g>
					<polygon fill="#DB7171" points="229,58.1 187.1,58.1 172.6,83.7 214.4,83.7 					"/>
					<path fill="#C73130" d="M214.4,86.8h-41.9l-2.4-4.7l14.6-25.6l2.4-1.4H229l2.4,4.7l-14.6,25.6L214.4,86.8z M177.6,80.6h35.3
						L224,61.1h-35.3L177.6,80.6z"/>
				</g>
			</g>
			<ellipse fill="#FFFFFF" cx="193" cy="113.4" rx="11.5" ry="12.6"/>
		</g>
	</g>
</g>
</svg>
