<?xml version="1.0" encoding="utf-8"?>
<!-- Generator: Adobe Illustrator 18.1.1, SVG Export Plug-In . SVG Version: 6.00 Build 0)  -->
<svg version="1.1" id="Layer_1" xmlns="http://www.w3.org/2000/svg" xmlns:xlink="http://www.w3.org/1999/xlink" x="0px" y="0px"
	 viewBox="0 0 94.9 101.2" enable-background="new 0 0 94.9 101.2" xml:space="preserve">
<g>
	<g>
		<g>
			<path fill="#DB7171" stroke="#C73130" stroke-width="4" stroke-linejoin="round" stroke-miterlimit="10" d="M92.9,16.1
				c0-4.2-3.4-7.5-7.5-7.5H9.5C5.4,8.6,2,12,2,16.1V29h90.9V16.1z"/>
			<path fill="none" stroke="#C73130" stroke-width="4" stroke-linejoin="round" stroke-miterlimit="10" d="M2,29v62.7
				c0,4.2,3.4,7.5,7.5,7.5h75.9c4.2,0,7.5-3.4,7.5-7.5V29H2z"/>
		</g>
		
			<line fill="none" stroke="#C73130" stroke-width="4" stroke-linecap="round" stroke-linejoin="round" stroke-miterlimit="10" x1="14.2" y1="2" x2="14.2" y2="16.6"/>
		
			<line fill="none" stroke="#C73130" stroke-width="4" stroke-linecap="round" stroke-linejoin="round" stroke-miterlimit="10" x1="25.2" y1="2.5" x2="25.2" y2="17"/>
		
			<line fill="none" stroke="#C73130" stroke-width="4" stroke-linecap="round" stroke-linejoin="round" stroke-miterlimit="10" x1="36.5" y1="2.2" x2="36.5" y2="16.8"/>
		
			<line fill="none" stroke="#C73130" stroke-width="4" stroke-linecap="round" stroke-linejoin="round" stroke-miterlimit="10" x1="47.5" y1="2.7" x2="47.5" y2="17.3"/>
		
			<line fill="none" stroke="#C73130" stroke-width="4" stroke-linecap="round" stroke-linejoin="round" stroke-miterlimit="10" x1="59.2" y1="2.5" x2="59.2" y2="17"/>
		
			<line fill="none" stroke="#C73130" stroke-width="4" stroke-linecap="round" stroke-linejoin="round" stroke-miterlimit="10" x1="70.2" y1="2.9" x2="70.2" y2="17.5"/>
		
			<line fill="none" stroke="#C73130" stroke-width="4" stroke-linecap="round" stroke-linejoin="round" stroke-miterlimit="10" x1="81.8" y1="2.9" x2="81.8" y2="17.5"/>
	</g>
	<g>
		<path fill="#DB7171" d="M18.3,80.6v-4.8c0-7.5,3-11.5,11.5-14.7c1.4-0.5,2.5-1,3.4-1.5c1.9-1,3.8-2.2,3.7-5.3
			c0-2.9-2.1-4.5-5.5-4.5c-3.4,0-6.3,1.5-8.9,4.6l-4-4.9c0.8-1,1.7-1.7,2.6-2.5c2-1.4,5.2-3.3,10.6-3.3c7.8,0,12.4,3.9,12.4,10.6
			c0,6.2-2.8,9.5-10.6,12.1c-1.5,0.5-2.8,1-3.8,1.5c-1,0.5-2,1.2-2.9,2c-0.9,0.8-1.3,2.2-1.3,4v0.5h17.8v6.1H18.3z"/>
		<path fill="#DB7171" d="M76.7,68.8c0,7.8-5.2,12.4-14,12.4c-5.6,0-10-1.6-13.3-4.8l3.3-5.5c2.5,2.7,5.8,4.2,9.8,4.2
			c4.3-0.1,6.8-2.2,6.8-5.8c0-3.6-2.5-5.8-6.8-5.8c-2.5,0-4.8,0.8-7,2.4l-4.7-2.1l1.2-19.3h22v6.1h-16l-0.6,8.4h0.1
			c2-1.1,4.2-1.6,6.7-1.6C71.9,57.3,76.7,61.7,76.7,68.8z"/>
	</g>
</g>
</svg>
