<?xml version="1.0" encoding="utf-8"?>
<!-- Generator: Adobe Illustrator 16.0.0, SVG Export Plug-In . SVG Version: 6.00 Build 0)  -->
<!DOCTYPE svg PUBLIC "-//W3C//DTD SVG 1.1//EN" "http://www.w3.org/Graphics/SVG/1.1/DTD/svg11.dtd">
<svg version="1.1" id="Layer_1" xmlns="http://www.w3.org/2000/svg" xmlns:xlink="http://www.w3.org/1999/xlink" x="0px" y="0px"
	 width="141.73px" height="141.73px" viewBox="0 0 141.73 141.73" enable-background="new 0 0 141.73 141.73" xml:space="preserve">
<g>
	<g>
		<path fill="#D43E28" d="M55.521,42.477c0.146-0.13,0.315-0.196,0.515-0.196c0.21,0,0.39,0.074,0.54,0.221
			c0.151,0.148,0.225,0.326,0.225,0.534v0.017v0.678h1.752V43.01c-0.003-0.686-0.253-1.273-0.745-1.758s-1.082-0.728-1.769-0.728
			c-0.679,0-1.263,0.237-1.751,0.714c-0.482,0.468-0.737,1.037-0.762,1.704h1.754C55.303,42.759,55.384,42.603,55.521,42.477"/>
		<path fill="#D43E28" d="M57.357,44.149c-0.438-0.235-0.878-0.35-1.326-0.35c-0.203-0.006-0.378-0.081-0.523-0.228
			c-0.137-0.138-0.208-0.303-0.216-0.494h-1.751c0.008,0.673,0.249,1.252,0.729,1.735c0.488,0.49,1.073,0.738,1.762,0.742h0.007
			c0.186,0,0.354,0.059,0.505,0.174c0.176,0.142,0.267,0.337,0.273,0.588h1.752C58.561,45.299,58.157,44.577,57.357,44.149"/>
		<path fill="#D43E28" d="M56.57,46.898c-0.146,0.13-0.314,0.196-0.514,0.196c-0.212,0-0.391-0.075-0.54-0.222
			c-0.15-0.148-0.225-0.326-0.225-0.533v-0.018v-0.679h-1.751v0.722c0.003,0.688,0.252,1.272,0.744,1.757
			c0.493,0.487,1.081,0.729,1.769,0.729c0.68,0,1.264-0.239,1.75-0.713c0.479-0.466,0.733-1.029,0.763-1.685h-1.756
			C56.784,46.628,56.703,46.775,56.57,46.898"/>
	</g>
	<rect x="49.053" y="36.37" fill="#FFFFFF" stroke="#D43E28" stroke-miterlimit="10" width="52.582" height="67.831"/>
	<g>
		<g>
			<rect x="93.285" y="72.643" fill="#FFFFFF" stroke="#D43E28" stroke-miterlimit="10" width="30.162" height="30.402"/>
			<rect x="121.548" y="101.151" fill="#FFFFFF" width="3.853" height="3.851"/>
			<path fill="#D33D27" d="M125.599,105.203h-4.249v-4.253h4.249V105.203z M121.748,104.805h3.452v-3.456h-3.452V104.805z"/>
			<rect x="91.389" y="101.151" fill="#FFFFFF" width="3.852" height="3.851"/>
			<path fill="#D33D27" d="M95.439,105.203h-4.25v-4.253h4.25V105.203z M91.588,104.805h3.453v-3.456h-3.453V104.805z"/>
			<rect x="121.548" y="70.748" fill="#FFFFFF" width="3.853" height="3.853"/>
			<path fill="#D33D27" d="M125.599,74.801h-4.249V70.55h4.249V74.801z M121.748,74.402h3.452v-3.454h-3.452V74.402z"/>
			<rect x="91.389" y="70.748" fill="#FFFFFF" width="3.852" height="3.853"/>
			<path fill="#D33D27" d="M95.439,74.801h-4.25V70.55h4.25V74.801z M91.588,74.402h3.453v-3.454h-3.453V74.402z"/>
			<rect x="107.018" y="71.081" fill="#FFFFFF" width="3.06" height="3.06"/>
			<path fill="#D33D27" d="M110.276,74.34h-3.458v-3.458h3.458V74.34z M107.217,73.941h2.661v-2.66h-2.661V73.941z"/>
			<rect x="91.784" y="86.314" fill="#FFFFFF" width="3.06" height="3.059"/>
			<path fill="#D33D27" d="M95.044,89.573h-3.458v-3.459h3.458V89.573z M91.985,89.173h2.66v-2.66h-2.66V89.173z"/>
			<rect x="121.945" y="86.314" fill="#FFFFFF" width="3.061" height="3.059"/>
			<path fill="#D33D27" d="M125.203,89.573h-3.457v-3.459h3.457V89.573z M122.145,89.173h2.66v-2.66h-2.66V89.173z"/>
			<rect x="106.834" y="101.547" fill="#FFFFFF" width="3.061" height="3.059"/>
			<path fill="#D33D27" d="M110.094,104.806h-3.459v-3.459h3.459V104.806z M107.033,104.407h2.662v-2.662h-2.662V104.407z"/>
		</g>
		<g>
			<g>
				<path fill="#D43E28" d="M106.657,80.668c0.473-0.42,1.024-0.633,1.671-0.633c0.685,0,1.264,0.236,1.754,0.714
					c0.488,0.48,0.727,1.058,0.727,1.733v0.059v2.2h5.689v-2.342c-0.011-2.228-0.821-4.132-2.418-5.706
					c-1.596-1.574-3.516-2.363-5.741-2.363c-2.206,0-4.1,0.771-5.686,2.313c-1.564,1.521-2.393,3.368-2.473,5.532h5.692
					C105.951,81.584,106.213,81.076,106.657,80.668"/>
				<path fill="#D43E28" d="M112.618,86.097c-1.415-0.765-2.847-1.137-4.303-1.137c-0.662-0.02-1.228-0.262-1.698-0.737
					c-0.443-0.449-0.678-0.985-0.701-1.604h-5.684c0.023,2.186,0.811,4.063,2.366,5.636c1.582,1.591,3.483,2.395,5.717,2.404h0.023
					c0.602,0,1.148,0.189,1.634,0.568c0.568,0.458,0.866,1.09,0.887,1.906h5.689C116.526,89.83,115.219,87.484,112.618,86.097"/>
				<path fill="#D43E28" d="M110.065,95.02c-0.474,0.42-1.02,0.637-1.669,0.637c-0.687,0-1.267-0.244-1.752-0.72
					c-0.491-0.479-0.732-1.057-0.732-1.731v-0.056v-2.204h-5.682v2.346c0.011,2.229,0.819,4.126,2.416,5.701
					c1.6,1.577,3.512,2.365,5.74,2.365c2.21,0,4.1-0.773,5.682-2.311c1.559-1.514,2.38-3.342,2.478-5.472h-5.7
					C110.755,94.14,110.498,94.619,110.065,95.02"/>
			</g>
		</g>
		<path fill="#FFFFFF" stroke="#D33D27" stroke-width="0.5" stroke-miterlimit="10" d="M128.881,101.718l1.712-2.526l2.009,1.358
			l-1.707,2.526L128.881,101.718z M128.555,97.079c-0.181-0.884-0.725-1.729-1.58-2.308c-0.705-0.478-1.507-0.691-2.263-0.661
			c-0.912-0.064-2.264-0.03-4.375-1.044c0.021-0.188-0.058-0.384-0.226-0.497c-0.239-0.161-0.565-0.1-0.728,0.141
			c-0.085,0.123-0.106,0.27-0.078,0.403l4.804,3.247c0.284-0.22,0.683-0.248,0.995-0.037c0.386,0.262,0.488,0.787,0.226,1.175
			c-0.261,0.385-0.786,0.488-1.175,0.225c-0.32-0.217-0.444-0.618-0.322-0.971l-4.786-3.237c-0.142,0.019-0.273,0.096-0.359,0.224
			c-0.16,0.238-0.099,0.563,0.14,0.727c0.17,0.115,0.378,0.115,0.547,0.023c1.901,1.741,2.282,3.1,2.719,3.906
			c0.273,0.616,0.731,1.177,1.352,1.598c0.849,0.572,1.826,0.765,2.707,0.612l1.794,1.499l2.653-3.929L128.555,97.079z"/>
	</g>
	<rect x="83.365" y="44.223" fill="#D43E28" width="12.731" height="0.95"/>
	<rect x="83.365" y="46.317" fill="#D43E28" width="12.731" height="0.95"/>
	<g>
		<rect x="20.844" y="61.11" fill="#D43E28" width="65.534" height="41.79"/>
		<rect x="22.879" y="62.785" fill="#FFFFFF" width="61.324" height="38.122"/>
		<rect x="25.319" y="65.257" fill="#D43E28" width="56.062" height="33.331"/>
		<rect x="27.325" y="67.196" fill="#FFFFFF" width="52.087" height="29.277"/>
		<rect x="27.325" y="74.176" opacity="0.5" fill="#D43E28" width="52.087" height="22.296"/>
		<rect x="14.254" y="100.969" fill="#D43E28" width="78.574" height="4.234"/>
		<rect x="16.347" y="102.596" fill="#FFFFFF" width="74.824" height="0.98"/>
		<rect x="26.971" y="72.204" fill="#D43E28" width="53.008" height="2.202"/>
		<rect x="35.464" y="66.698" fill="#D43E28" width="1.494" height="6.135"/>
		
			<rect x="36.211" y="83.929" fill-rule="evenodd" clip-rule="evenodd" fill="#FFFFFF" stroke="#D43E28" stroke-width="0.75" stroke-miterlimit="10" width="18.795" height="10.351"/>
		<polygon fill="#D43E28" points="47.672,89.104 45.899,89.985 44.128,90.866 44.128,89.104 44.128,87.343 45.899,88.224 		"/>
		<path fill-rule="evenodd" clip-rule="evenodd" fill="#D43E28" d="M77.838,77.904H30.791c-0.199,0-0.361-0.164-0.361-0.361v-0.312
			c0-0.199,0.162-0.362,0.361-0.362h47.047c0.199,0,0.362,0.163,0.362,0.362v0.312C78.2,77.74,78.037,77.904,77.838,77.904"/>
		<path fill-rule="evenodd" clip-rule="evenodd" fill="#D43E28" d="M77.838,80.332H30.791c-0.199,0-0.361-0.163-0.361-0.362v-0.311
			c0-0.199,0.162-0.362,0.361-0.362h47.047c0.199,0,0.362,0.163,0.362,0.362v0.311C78.2,80.169,78.037,80.332,77.838,80.332"/>
		<path fill-rule="evenodd" clip-rule="evenodd" fill="#D43E28" d="M77.793,84.964H57.039c-0.088,0-0.16-0.163-0.16-0.362v-0.311
			c0-0.199,0.072-0.362,0.16-0.362h20.754c0.088,0,0.16,0.163,0.16,0.362v0.311C77.953,84.801,77.881,84.964,77.793,84.964"/>
		<path fill-rule="evenodd" clip-rule="evenodd" fill="#D43E28" d="M78.04,87.414H57.286c-0.088,0-0.159-0.163-0.159-0.361v-0.312
			c0-0.199,0.071-0.362,0.159-0.362H78.04c0.088,0,0.16,0.163,0.16,0.362v0.312C78.2,87.251,78.128,87.414,78.04,87.414"/>
	</g>
	<g>
		<rect x="70.375" y="86.131" fill="#FFFFFF" stroke="#D43E28" stroke-miterlimit="10" width="31.412" height="19.948"/>
		<g>
			<path fill="#D43E28" d="M75.847,94.136c0.13-0.115,0.281-0.174,0.46-0.174c0.187,0,0.347,0.065,0.48,0.196
				c0.134,0.132,0.198,0.29,0.198,0.476v0.017v0.604h1.562v-0.643c-0.002-0.612-0.225-1.134-0.663-1.566
				c-0.438-0.433-0.965-0.648-1.576-0.648c-0.604,0-1.125,0.211-1.56,0.635c-0.429,0.418-0.656,0.925-0.679,1.518h1.562
				C75.652,94.388,75.725,94.248,75.847,94.136"/>
			<path fill="#D43E28" d="M77.482,95.626c-0.389-0.21-0.781-0.313-1.181-0.313c-0.181-0.005-0.337-0.072-0.466-0.202
				c-0.123-0.123-0.187-0.27-0.192-0.44h-1.56c0.006,0.601,0.221,1.115,0.648,1.547c0.435,0.437,0.957,0.658,1.569,0.66h0.006
				c0.166,0,0.316,0.052,0.449,0.155c0.156,0.126,0.238,0.3,0.243,0.522h1.561C78.554,96.649,78.195,96.007,77.482,95.626"/>
			<path fill="#D43E28" d="M76.781,98.075c-0.128,0.114-0.279,0.174-0.457,0.174c-0.188,0-0.348-0.066-0.48-0.196
				c-0.136-0.133-0.201-0.29-0.201-0.477v-0.015v-0.605h-1.561V97.6c0.004,0.611,0.226,1.134,0.664,1.565
				c0.439,0.433,0.963,0.65,1.575,0.65c0.606,0,1.126-0.213,1.559-0.635c0.428-0.415,0.654-0.918,0.681-1.502h-1.564
				C76.972,97.834,76.9,97.965,76.781,98.075"/>
		</g>
		<rect x="83.328" y="92.604" fill="#D33D27" width="13.986" height="1.22"/>
		<rect x="83.328" y="95.495" fill="#D33D27" width="13.986" height="1.221"/>
		<rect x="83.328" y="98.229" fill="#D33D27" width="13.986" height="1.219"/>
	</g>
</g>
</svg>
