<?xml version="1.0" encoding="utf-8"?>
<!-- Generator: Adobe Illustrator 18.1.1, SVG Export Plug-In . SVG Version: 6.00 Build 0)  -->
<svg version="1.1" id="Layer_1" xmlns="http://www.w3.org/2000/svg" xmlns:xlink="http://www.w3.org/1999/xlink" x="0px" y="0px"
	 viewBox="0 0 219.9 171.6" enable-background="new 0 0 219.9 171.6" xml:space="preserve">
<g>
	<g>
		<g>
			<polygon fill="#C73130" points="82.3,134.7 0,134.7 0,24.1 82.3,24.1 82.3,134.7 76.7,134.7 76.7,29.7 5.6,29.7 5.6,129.1 
				82.3,129.1 			"/>
		</g>
		<rect x="5.6" y="35.3" fill="#DB7171" width="71.6" height="74.1"/>
		<g>
			<g>
				<path fill="#C73130" d="M64.1,36h-5.6V19.7c0-7.7-6.3-14-14-14h-6.5c-7.7,0-14,6.3-14,14V36h-5.6V19.7C18.2,8.8,27,0,37.9,0h6.5
					c10.8,0,19.7,8.8,19.7,19.7V36z"/>
			</g>
		</g>
		<circle fill="#FFFFFF" cx="41.2" cy="71.8" r="17.3"/>
	</g>
	<g>
		<g>
			<polygon fill="none" stroke="#C73130" stroke-width="4" stroke-linejoin="round" stroke-miterlimit="10" points="205.5,48.3 
				123.5,48.3 123.5,109.7 217.9,109.7 217.9,60.7 			"/>
			<polygon fill="none" stroke="#C73130" stroke-width="4" stroke-linejoin="round" stroke-miterlimit="10" points="205.5,60.7 
				217.9,60.7 205.5,48.3 			"/>
		</g>
		<g>
			
				<circle fill="#C73130" stroke="#DB7171" stroke-width="4" stroke-linejoin="round" stroke-miterlimit="10" cx="199.7" cy="81.3" r="7.8"/>
			
				<line fill="none" stroke="#DB7171" stroke-width="4" stroke-linecap="round" stroke-linejoin="round" stroke-miterlimit="10" x1="195.8" y1="88.1" x2="190.6" y2="101.5"/>
			
				<line fill="none" stroke="#DB7171" stroke-width="4" stroke-linecap="round" stroke-linejoin="round" stroke-miterlimit="10" x1="203.6" y1="88.1" x2="208.8" y2="101.5"/>
		</g>
		
			<line fill="none" stroke="#DB7171" stroke-width="4" stroke-linejoin="round" stroke-miterlimit="10" x1="132.5" y1="62.8" x2="170.7" y2="62.8"/>
		
			<line fill="none" stroke="#DB7171" stroke-width="4" stroke-linejoin="round" stroke-miterlimit="10" x1="142.2" y1="76.1" x2="183.6" y2="76.1"/>
		
			<line fill="none" stroke="#DB7171" stroke-width="4" stroke-linejoin="round" stroke-miterlimit="10" x1="132.5" y1="86.7" x2="183.6" y2="86.7"/>
		
			<line fill="none" stroke="#DB7171" stroke-width="4" stroke-linejoin="round" stroke-miterlimit="10" x1="132.5" y1="97.4" x2="183.6" y2="97.4"/>
	</g>
	<path fill="#FFFFFF" d="M159.7,170.4H61.2c-3.7,0-6.8-3-6.8-6.8V89.1c0-3.7,3-6.8,6.8-6.8h98.5c3.7,0,6.8,3,6.8,6.8v74.6
		C166.4,167.4,163.4,170.4,159.7,170.4z"/>
	<rect x="57.3" y="93.4" fill="#DB7171" width="106.3" height="62.9"/>
	<path fill="#C73130" d="M162.6,171.6H58.3c-2.1,0-3.9-1.7-3.9-3.9V85.1c0-2.1,1.7-3.9,3.9-3.9h104.3c2.1,0,3.9,1.7,3.9,3.9v82.6
		C166.4,169.8,164.7,171.6,162.6,171.6z M57.3,159.1v8.6c0,0.6,0.5,1,1,1h104.3c0.6,0,1-0.5,1-1v-8.6H57.3z M57.3,156.2h106.3V93.4
		H57.3V156.2z M57.3,90.5h106.3v-5.4c0-0.6-0.5-1-1-1H58.3c-0.6,0-1,0.5-1,1V90.5z M77.9,166.9c-0.8,0-1.4-0.6-1.4-1.4v-0.3H61.2
		c-0.8,0-1.4-0.6-1.4-1.4s0.6-1.4,1.4-1.4h15.3v-0.4c0-0.8,0.6-1.4,1.4-1.4c0.8,0,1.4,0.6,1.4,1.4v0.4h80.3c0.8,0,1.4,0.6,1.4,1.4
		s-0.6,1.4-1.4,1.4H79.4v0.3C79.4,166.3,78.7,166.9,77.9,166.9z M158.8,88.7H77.1c-0.8,0-1.4-0.6-1.4-1.4c0-0.8,0.6-1.4,1.4-1.4
		h81.8c0.8,0,1.4,0.6,1.4,1.4C160.3,88.1,159.6,88.7,158.8,88.7z M69.1,88.7H69c-0.8,0-1.4-0.6-1.4-1.4c0-0.8,0.6-1.4,1.4-1.4h0.1
		c0.8,0,1.4,0.6,1.4,1.4C70.5,88.1,69.9,88.7,69.1,88.7z M64.7,88.7h-0.1c-0.8,0-1.4-0.6-1.4-1.4c0-0.8,0.6-1.4,1.4-1.4h0.1
		c0.8,0,1.4,0.6,1.4,1.4C66.2,88.1,65.5,88.7,64.7,88.7z M60.4,88.7h-0.1c-0.8,0-1.4-0.6-1.4-1.4c0-0.8,0.6-1.4,1.4-1.4h0.1
		c0.8,0,1.4,0.6,1.4,1.4C61.8,88.1,61.2,88.7,60.4,88.7z"/>
	<path fill="#FFFFFF" d="M110.4,110c-8.8,0-15.9,7.1-15.9,15.9c0,8.8,7.1,15.9,15.9,15.9c8.8,0,15.9-7.1,15.9-15.9
		C126.3,117.2,119.2,110,110.4,110z"/>
	<path fill="#DB7171" d="M104.9,135.9c-0.2,0-0.5-0.1-0.7-0.2c-0.4-0.3-0.7-0.7-0.7-1.2v-17.1c0-0.5,0.3-1,0.7-1.2
		c0.4-0.3,1-0.3,1.4,0l14.8,8.5c0.4,0.3,0.7,0.7,0.7,1.2c0,0.5-0.3,1-0.7,1.2l-14.8,8.5C105.4,135.8,105.1,135.9,104.9,135.9z"/>
</g>
</svg>
