<?xml version="1.0" encoding="utf-8"?>
<!-- Generator: Adobe Illustrator 18.1.1, SVG Export Plug-In . SVG Version: 6.00 Build 0)  -->
<svg version="1.1" id="Layer_1" xmlns="http://www.w3.org/2000/svg" xmlns:xlink="http://www.w3.org/1999/xlink" x="0px" y="0px"
	 viewBox="0 0 141 110.6" enable-background="new 0 0 141 110.6" xml:space="preserve">
<g>
	<g>
		<g>
			
				<path fill="#FFFFFF" stroke="#C73130" stroke-width="4" stroke-linecap="round" stroke-linejoin="round" stroke-miterlimit="10" d="
				M90.5,2c0,12.3-9,22.2-20,22.2c-11.1,0-20-9.9-20-22.2H27v101.3c0,3,2.2,5.4,4.8,5.4h77.4c2.7,0,4.8-2.4,4.8-5.4V2H90.5z"/>
			
				<path fill="#FFFFFF" stroke="#C73130" stroke-width="4" stroke-linecap="round" stroke-linejoin="round" stroke-miterlimit="10" d="
				M70.5,24.2c11.1,0,20-9.9,20-22.2h-40C50.5,14.3,59.5,24.2,70.5,24.2z"/>
		</g>
		
			<polygon fill="#DB7171" stroke="#C73130" stroke-width="4" stroke-linecap="round" stroke-linejoin="round" stroke-miterlimit="10" points="
			114,2 139,41.9 114,56.8 		"/>
		
			<polygon fill="#DB7171" stroke="#C73130" stroke-width="4" stroke-linecap="round" stroke-linejoin="round" stroke-miterlimit="10" points="
			27,2 2,41.9 27,56.8 		"/>
	</g>
	<g id="XMLID_255_">
		<polygon id="XMLID_256_" fill="#DB7171" points="99.9,72.6 77.9,44.2 54.6,72.6 		"/>
		<g>
			<polygon fill="#DB7171" points="52.7,72.9 64.3,58.5 58.4,50.9 39.3,72.9 			"/>
		</g>
		<circle fill="#DB7171" cx="64.1" cy="41.8" r="3.8"/>
	</g>
</g>
</svg>
