<?xml version="1.0" encoding="utf-8"?>
<!-- Generator: Adobe Illustrator 18.1.1, SVG Export Plug-In . SVG Version: 6.00 Build 0)  -->
<svg version="1.1" id="Layer_1" xmlns="http://www.w3.org/2000/svg" xmlns:xlink="http://www.w3.org/1999/xlink" x="0px" y="0px"
	 viewBox="0 0 169.8 158.1" enable-background="new 0 0 169.8 158.1" xml:space="preserve">
<g>
	<g>
		
			<rect x="12" y="10.3" transform="matrix(0.9881 -0.1535 0.1535 0.9881 -9.1457 9.2483)" fill="#FFFFFF" width="86.6" height="107.1"/>
		<g>
			<g>
				
					<rect x="24.9" y="9.2" transform="matrix(0.9881 -0.1535 0.1535 0.9881 -6.8832 10.0462)" fill="#DB7171" width="73.4" height="80.9"/>
			</g>
			<g>
				<path fill="#C73130" d="M110.3,111.5L17.3,126L0,14.4L92.9,0L110.3,111.5z M20.5,121.7l85.5-13.3L89.8,4.3L4.3,17.6L20.5,121.7z
					"/>
			</g>
			<g>
				
					<rect x="23.5" y="13.1" transform="matrix(0.9881 -0.1535 0.1535 0.9881 -10.0758 4.6987)" fill="#C73130" width="3.8" height="109.1"/>
			</g>
			<g>
				
					<rect x="76.3" y="82.5" transform="matrix(0.1535 0.9881 -0.9881 0.1535 166.2723 8.4424)" fill="#DB7171" width="3.8" height="37.6"/>
			</g>
		</g>
	</g>
	<g>
		<rect x="68.6" y="35.9" fill="#FFFFFF" width="97" height="118"/>
		<g>
			<g>
				<rect x="66.5" y="126.5" fill="#DB7171" width="14.7" height="29.5"/>
			</g>
			<g>
				<rect x="85.5" y="35.9" fill="#DB7171" width="82.2" height="90.6"/>
			</g>
			<g>
				<path fill="#C73130" d="M169.8,158.1H64.4V31.7h105.4V158.1z M68.6,153.9h97v-118h-97V153.9z"/>
			</g>
			<g>
				<rect x="81.3" y="33.8" fill="#C73130" width="4.2" height="122.3"/>
			</g>
			<g>
				<rect x="72.8" y="52.8" fill="#DB7171" width="4.2" height="63.2"/>
			</g>
			<g>
				<rect x="115" y="139.2" fill="#DB7171" width="42.2" height="4.2"/>
			</g>
			<g>
				<g>
					<path fill="#FFFFFF" d="M125.5,91.8c-5.8,0-10.5-4.7-10.5-10.5c0-5.8,4.7-10.5,10.5-10.5c5.8,0,10.5,4.7,10.5,10.5
						C136.1,87,131.3,91.8,125.5,91.8z"/>
				</g>
			</g>
			<g>
				<g>
					<rect x="115" y="106.1" fill="#FFFFFF" width="4.2" height="4.2"/>
				</g>
				<g>
					<rect x="123.4" y="106.1" fill="#FFFFFF" width="4.2" height="4.2"/>
				</g>
				<g>
					<rect x="131.9" y="106.1" fill="#FFFFFF" width="4.2" height="4.2"/>
				</g>
			</g>
		</g>
	</g>
</g>
</svg>
