<?xml version="1.0" encoding="utf-8"?>
<!-- Generator: Adobe Illustrator 16.0.0, SVG Export Plug-In . SVG Version: 6.00 Build 0)  -->
<!DOCTYPE svg PUBLIC "-//W3C//DTD SVG 1.1//EN" "http://www.w3.org/Graphics/SVG/1.1/DTD/svg11.dtd">
<svg version="1.1" id="Layer_1" xmlns="http://www.w3.org/2000/svg" xmlns:xlink="http://www.w3.org/1999/xlink" x="0px" y="0px"
	 width="141.73px" height="141.73px" viewBox="0 0 141.73 141.73" enable-background="new 0 0 141.73 141.73" xml:space="preserve">
<g>
	<rect x="17.173" y="25.286" fill="#FFFFFF" stroke="#D43E28" stroke-miterlimit="10" width="66.555" height="85.855"/>
	<g>
		<g>
			<rect x="66.041" y="57.653" fill="#FFFFFF" stroke="#D43E28" stroke-miterlimit="10" width="50.716" height="51.127"/>
			<rect x="113.565" y="105.596" fill="#FFFFFF" width="6.479" height="6.477"/>
			<path fill="#D33D27" d="M120.38,112.408h-7.148v-7.15h7.148V112.408z M113.902,111.737h5.807v-5.809h-5.807V111.737z"/>
			<rect x="62.851" y="105.596" fill="#FFFFFF" width="6.479" height="6.477"/>
			<path fill="#D33D27" d="M69.665,112.408h-7.149v-7.15h7.149V112.408z M63.188,111.737h5.806v-5.809h-5.806V111.737z"/>
			<rect x="113.565" y="54.467" fill="#FFFFFF" width="6.479" height="6.479"/>
			<path fill="#D33D27" d="M120.38,61.282h-7.148v-7.149h7.148V61.282z M113.902,60.611h5.807v-5.808h-5.807V60.611z"/>
			<rect x="62.851" y="54.467" fill="#FFFFFF" width="6.479" height="6.479"/>
			<path fill="#D33D27" d="M69.665,61.282h-7.149v-7.149h7.149V61.282z M63.188,60.611h5.806v-5.808h-5.806V60.611z"/>
			<rect x="89.137" y="55.026" fill="#FFFFFF" width="5.143" height="5.146"/>
			<path fill="#D33D27" d="M94.615,60.507h-5.814v-5.815h5.814V60.507z M89.472,59.836h4.473v-4.474h-4.473V59.836z"/>
			<rect x="63.518" y="80.646" fill="#FFFFFF" width="5.145" height="5.145"/>
			<path fill="#D33D27" d="M69,86.124h-5.817v-5.815H69V86.124z M63.855,85.453h4.474v-4.474h-4.474V85.453z"/>
			<rect x="114.235" y="80.646" fill="#FFFFFF" width="5.143" height="5.145"/>
			<path fill="#D33D27" d="M119.714,86.124h-5.815v-5.815h5.815V86.124z M114.569,85.453h4.474v-4.474h-4.474V85.453z"/>
			<rect x="88.827" y="106.262" fill="#FFFFFF" width="5.145" height="5.145"/>
			<path fill="#D33D27" d="M94.307,111.742h-5.815v-5.816h5.815V111.742z M89.162,111.071h4.476v-4.475h-4.476V111.071z"/>
		</g>
		<g>
			<g>
				<path fill="#D43E28" d="M88.529,71.149c0.796-0.707,1.722-1.064,2.811-1.064c1.149,0,2.126,0.397,2.946,1.199
					c0.822,0.809,1.221,1.78,1.221,2.916v0.099v3.7h9.565v-3.938c-0.017-3.745-1.38-6.947-4.063-9.597
					c-2.685-2.646-5.911-3.973-9.652-3.973c-3.71,0-6.896,1.297-9.563,3.892c-2.63,2.557-4.021,5.663-4.157,9.302h9.573
					C87.342,72.69,87.782,71.836,88.529,71.149"/>
				<path fill="#D43E28" d="M98.551,80.278c-2.379-1.285-4.785-1.912-7.231-1.912c-1.115-0.033-2.065-0.438-2.856-1.239
					c-0.748-0.756-1.141-1.656-1.181-2.699h-9.558c0.039,3.678,1.363,6.835,3.979,9.479c2.661,2.675,5.859,4.026,9.616,4.044h0.038
					c1.012,0,1.933,0.32,2.747,0.954c0.958,0.771,1.456,1.836,1.491,3.209h9.564C105.122,86.556,102.922,82.613,98.551,80.278"/>
				<path fill="#D43E28" d="M94.259,95.285c-0.793,0.706-1.714,1.07-2.804,1.07c-1.156,0-2.13-0.411-2.946-1.21
					c-0.827-0.807-1.232-1.779-1.232-2.913v-0.096v-3.704h-9.554v3.944c0.016,3.748,1.377,6.939,4.063,9.588
					c2.688,2.652,5.904,3.979,9.652,3.979c3.713,0,6.894-1.302,9.551-3.886c2.619-2.548,4.001-5.618,4.164-9.202h-9.582
					C95.421,93.806,94.988,94.61,94.259,95.285"/>
			</g>
		</g>
		<path fill="#FFFFFF" stroke="#D33D27" stroke-width="0.5" stroke-miterlimit="10" d="M125.9,106.549l2.874-4.25l3.382,2.286
			l-2.871,4.25L125.9,106.549z M125.352,98.748c-0.308-1.486-1.222-2.909-2.658-3.881c-1.189-0.804-2.536-1.163-3.809-1.113
			c-1.534-0.105-3.806-0.05-7.357-1.755c0.037-0.315-0.096-0.645-0.378-0.835c-0.403-0.271-0.949-0.167-1.223,0.236
			c-0.141,0.208-0.18,0.452-0.133,0.68l8.08,5.461c0.478-0.372,1.148-0.418,1.672-0.064c0.65,0.44,0.821,1.326,0.381,1.976
			c-0.438,0.648-1.324,0.82-1.974,0.38c-0.542-0.365-0.746-1.043-0.543-1.635l-8.052-5.445c-0.237,0.033-0.458,0.164-0.603,0.378
			c-0.271,0.401-0.166,0.948,0.235,1.223c0.285,0.192,0.636,0.194,0.919,0.037c3.199,2.929,3.837,5.213,4.571,6.569
			c0.46,1.036,1.229,1.98,2.275,2.688c1.423,0.962,3.069,1.284,4.554,1.029l3.013,2.521l4.464-6.607L125.352,98.748z"/>
	</g>
	<g>
		<path fill="#D43E28" d="M25.36,33.016c0.185-0.165,0.399-0.248,0.651-0.248c0.266,0,0.494,0.093,0.684,0.279
			c0.191,0.187,0.284,0.412,0.284,0.676v0.022v0.858h2.217v-0.912c-0.003-0.869-0.32-1.612-0.942-2.226s-1.37-0.922-2.239-0.922
			c-0.859,0-1.599,0.3-2.216,0.903c-0.611,0.593-0.934,1.313-0.964,2.157h2.22C25.084,33.372,25.187,33.174,25.36,33.016"/>
		<path fill="#D43E28" d="M27.684,35.132c-0.552-0.298-1.11-0.443-1.677-0.443c-0.259-0.008-0.48-0.102-0.663-0.287
			c-0.174-0.176-0.264-0.383-0.274-0.625h-2.216c0.01,0.853,0.316,1.585,0.923,2.197c0.618,0.62,1.359,0.935,2.231,0.939h0.007
			c0.236,0,0.449,0.074,0.639,0.221c0.222,0.179,0.338,0.426,0.346,0.744h2.218C29.208,36.588,28.697,35.674,27.684,35.132"/>
		<path fill="#D43E28" d="M26.688,38.612c-0.183,0.165-0.397,0.248-0.649,0.248c-0.268,0-0.494-0.095-0.684-0.281
			c-0.191-0.187-0.285-0.412-0.285-0.675v-0.022v-0.859h-2.216v0.914c0.004,0.87,0.32,1.61,0.943,2.224
			c0.624,0.616,1.368,0.923,2.238,0.923c0.86,0,1.599-0.302,2.215-0.902c0.607-0.59,0.928-1.303,0.966-2.134h-2.223
			C26.958,38.271,26.857,38.456,26.688,38.612"/>
	</g>
	<g>
		<rect x="44.162" y="88.271" fill="#FFFFFF" stroke="#D43E28" stroke-miterlimit="10" width="39.76" height="25.249"/>
		<g>
			<path fill="#D43E28" d="M51.087,98.402c0.164-0.146,0.356-0.222,0.581-0.222c0.237,0,0.439,0.084,0.608,0.249
				c0.17,0.166,0.252,0.366,0.252,0.602v0.021v0.766h1.976v-0.814c-0.002-0.773-0.285-1.435-0.84-1.982
				c-0.553-0.546-1.22-0.821-1.994-0.821c-0.766,0-1.423,0.268-1.975,0.805c-0.543,0.527-0.831,1.169-0.859,1.922h1.978
				C50.842,98.719,50.933,98.543,51.087,98.402"/>
			<path fill="#D43E28" d="M53.158,100.288c-0.493-0.266-0.99-0.396-1.495-0.396c-0.229-0.006-0.426-0.091-0.59-0.256
				c-0.155-0.157-0.235-0.343-0.243-0.558h-1.974c0.008,0.761,0.281,1.411,0.821,1.957c0.55,0.552,1.21,0.834,1.986,0.836h0.008
				c0.209,0,0.4,0.066,0.568,0.198c0.199,0.158,0.302,0.379,0.308,0.661h1.976C54.514,101.583,54.06,100.771,53.158,100.288"/>
			<path fill="#D43E28" d="M52.27,103.388c-0.163,0.146-0.354,0.221-0.578,0.221c-0.239,0-0.441-0.086-0.608-0.249
				c-0.172-0.169-0.255-0.368-0.255-0.604v-0.019v-0.765h-1.975v0.813c0.004,0.774,0.285,1.435,0.84,1.98
				c0.556,0.549,1.219,0.822,1.994,0.822c0.767,0,1.424-0.269,1.973-0.802c0.541-0.525,0.827-1.161,0.86-1.9h-1.979
				C52.511,103.082,52.421,103.248,52.27,103.388"/>
		</g>
		<rect x="60.557" y="96.463" fill="#D33D27" width="17.703" height="1.545"/>
		<rect x="60.557" y="100.123" fill="#D33D27" width="17.703" height="1.544"/>
		<rect x="60.557" y="103.583" fill="#D33D27" width="17.703" height="1.542"/>
	</g>
	<rect x="60.557" y="32.574" fill="#D43E28" width="16.115" height="1.202"/>
	<rect x="60.604" y="35.226" fill="#D43E28" width="16.115" height="1.202"/>
	<rect x="60.604" y="37.876" fill="#D43E28" width="16.115" height="1.202"/>
</g>
</svg>
