<?xml version="1.0" encoding="utf-8"?>
<!-- Generator: Adobe Illustrator 18.1.1, SVG Export Plug-In . SVG Version: 6.00 Build 0)  -->
<svg version="1.1" id="Layer_1" xmlns="http://www.w3.org/2000/svg" xmlns:xlink="http://www.w3.org/1999/xlink" x="0px" y="0px"
	 viewBox="0 0 92 127.8" enable-background="new 0 0 92 127.8" xml:space="preserve">
<g>
	<g>
		
			<rect x="11.6" y="1.3" fill="#DB7171" stroke="#C73130" stroke-width="2.5" stroke-linejoin="round" stroke-miterlimit="10" width="79.2" height="125.3"/>
		
			<rect x="1.2" y="1.3" fill="#FFFFFF" stroke="#C73130" stroke-width="2.5" stroke-linejoin="round" stroke-miterlimit="10" width="10.3" height="125.3"/>
	</g>
	<g>
		<path fill="#FFFFFF" stroke="#C73130" stroke-width="2.5" stroke-linejoin="round" stroke-miterlimit="10" d="M59.3,68.1v-12
			c-2.5-1.1-5.3-1.7-8.2-1.7c-2.9,0-5.7,0.6-8.2,1.7v12H59.3z"/>
		<path fill="#FFFFFF" stroke="#C73130" stroke-width="2.5" stroke-linejoin="round" stroke-miterlimit="10" d="M42.9,56.1
			c-5.3,2.2-9.6,6.6-11.8,12h11.8V56.1z"/>
		
			<rect x="42.9" y="68.1" fill="#FFFFFF" stroke="#C73130" stroke-width="2.5" stroke-linejoin="round" stroke-miterlimit="10" width="16.4" height="16.8"/>
		<path fill="#FFFFFF" stroke="#C73130" stroke-width="2.5" stroke-linejoin="round" stroke-miterlimit="10" d="M42.9,68.1H31.1
			c-1.1,2.7-1.7,5.6-1.7,8.7c0,2.9,0.6,5.7,1.5,8.2h12V68.1z"/>
		<path fill="#FFFFFF" stroke="#C73130" stroke-width="2.5" stroke-linejoin="round" stroke-miterlimit="10" d="M71.2,68.1
			c-2.2-5.4-6.5-9.8-11.8-12v12H71.2z"/>
		<path fill="#FFFFFF" stroke="#C73130" stroke-width="2.5" stroke-linejoin="round" stroke-miterlimit="10" d="M71.2,68.1H59.3
			v16.8h12c1-2.5,1.5-5.3,1.5-8.2C72.9,73.7,72.3,70.7,71.2,68.1z"/>
		<path fill="#FFFFFF" stroke="#C73130" stroke-width="2.5" stroke-linejoin="round" stroke-miterlimit="10" d="M59.3,97.4
			c5.5-2.3,9.8-6.8,12-12.5h-12V97.4z"/>
		<path fill="#FFFFFF" stroke="#C73130" stroke-width="2.5" stroke-linejoin="round" stroke-miterlimit="10" d="M42.9,84.9v12.5
			c2.5,1.1,5.3,1.7,8.2,1.7c2.9,0,5.7-0.6,8.2-1.7V84.9H42.9z"/>
		<path fill="#FFFFFF" stroke="#C73130" stroke-width="2.5" stroke-linejoin="round" stroke-miterlimit="10" d="M30.9,84.9
			c2.2,5.6,6.5,10.2,12,12.5V84.9H30.9z"/>
	</g>
	<path fill="#FFFFFF" stroke="#C73130" stroke-width="2.5" stroke-linejoin="round" stroke-miterlimit="10" d="M34,32.4
		c0,1.7,1.3,3.2,2.9,3.2h28.4c1.6,0,2.9-1.4,2.9-3.2v-7.1c0-1.7-1.3-3.2-2.9-3.2H36.9c-1.6,0-2.9,1.4-2.9,3.2V32.4z"/>
	
		<line fill="none" stroke="#C73130" stroke-width="2.5" stroke-linejoin="round" stroke-miterlimit="10" x1="34" y1="111.8" x2="57.1" y2="111.8"/>
	
		<line fill="none" stroke="#C73130" stroke-width="2.5" stroke-linejoin="round" stroke-miterlimit="10" x1="63.1" y1="111.8" x2="70.7" y2="111.8"/>
</g>
</svg>
