<?xml version="1.0" encoding="utf-8"?>
<!-- Generator: Adobe Illustrator 16.0.0, SVG Export Plug-In . SVG Version: 6.00 Build 0)  -->
<!DOCTYPE svg PUBLIC "-//W3C//DTD SVG 1.1//EN" "http://www.w3.org/Graphics/SVG/1.1/DTD/svg11.dtd">
<svg version="1.1" id="Layer_1" xmlns="http://www.w3.org/2000/svg" xmlns:xlink="http://www.w3.org/1999/xlink" x="0px" y="0px"
	 width="141.73px" height="141.73px" viewBox="0 0 141.73 141.73" enable-background="new 0 0 141.73 141.73" xml:space="preserve">
<g>
	<g>
		<rect x="25.532" y="21.041" fill="#FFFFFF" stroke="#D43E28" stroke-miterlimit="10" width="75.31" height="97.15"/>
		<g>
			<path fill="#D43E28" d="M37.809,29.789c0.209-0.187,0.452-0.281,0.737-0.281c0.302,0,0.559,0.106,0.773,0.316
				c0.217,0.212,0.321,0.466,0.321,0.765v0.025v0.97h2.51v-1.032c-0.003-0.983-0.362-1.825-1.066-2.519
				c-0.705-0.695-1.551-1.043-2.533-1.043c-0.972,0-1.809,0.341-2.508,1.022c-0.691,0.67-1.056,1.486-1.091,2.44h2.512
				C37.498,30.192,37.613,29.968,37.809,29.789"/>
			<path fill="#D43E28" d="M40.439,32.183c-0.625-0.337-1.257-0.501-1.898-0.501c-0.292-0.009-0.542-0.115-0.75-0.325
				c-0.197-0.199-0.298-0.434-0.311-0.708h-2.508c0.012,0.965,0.357,1.793,1.044,2.486c0.699,0.701,1.537,1.057,2.524,1.062h0.009
				c0.267,0,0.507,0.084,0.722,0.25c0.252,0.203,0.383,0.483,0.391,0.842h2.51C42.163,33.831,41.585,32.796,40.439,32.183"/>
			<path fill="#D43E28" d="M39.313,36.121c-0.208,0.187-0.45,0.281-0.736,0.281c-0.303,0-0.559-0.107-0.773-0.318
				c-0.216-0.211-0.322-0.465-0.322-0.763v-0.025v-0.972h-2.508v1.034c0.005,0.984,0.362,1.822,1.066,2.517
				c0.706,0.697,1.549,1.044,2.533,1.044c0.974,0,1.809-0.341,2.506-1.021c0.687-0.668,1.05-1.474,1.093-2.414h-2.515
				C39.619,35.734,39.503,35.944,39.313,36.121"/>
		</g>
		<rect x="77.637" y="29.289" fill="#D43E28" width="18.235" height="1.36"/>
		<rect x="77.689" y="32.289" fill="#D43E28" width="18.235" height="1.361"/>
		<rect x="77.689" y="35.289" fill="#D43E28" width="18.235" height="1.36"/>
	</g>
	<g>
		<g>
			<rect x="78.718" y="81.403" fill="#FFFFFF" stroke="#D43E28" stroke-miterlimit="10" width="39.038" height="39.353"/>
			<rect x="115.299" y="118.306" fill="#FFFFFF" width="4.987" height="4.985"/>
			<path fill="#D33D27" d="M120.544,123.55h-5.502v-5.504h5.502V123.55z M115.558,123.033h4.47v-4.471h-4.47V123.033z"/>
			<rect x="76.263" y="118.306" fill="#FFFFFF" width="4.987" height="4.985"/>
			<path fill="#D33D27" d="M81.509,123.55h-5.503v-5.504h5.503V123.55z M76.521,123.033h4.471v-4.471h-4.471V123.033z"/>
			<rect x="115.299" y="78.951" fill="#FFFFFF" width="4.987" height="4.985"/>
			<path fill="#D33D27" d="M120.544,84.195h-5.502v-5.502h5.502V84.195z M115.558,83.68h4.47v-4.47h-4.47V83.68z"/>
			<rect x="76.263" y="78.951" fill="#FFFFFF" width="4.987" height="4.985"/>
			<path fill="#D33D27" d="M81.509,84.195h-5.503v-5.502h5.503V84.195z M76.521,83.68h4.471v-4.47h-4.471V83.68z"/>
			<rect x="96.495" y="79.38" fill="#FFFFFF" width="3.96" height="3.962"/>
			<path fill="#D33D27" d="M100.713,83.6h-4.475v-4.477h4.475V83.6z M96.754,83.084h3.442V79.64h-3.442V83.084z"/>
			<rect x="76.776" y="99.101" fill="#FFFFFF" width="3.96" height="3.96"/>
			<path fill="#D33D27" d="M80.996,103.317H76.52v-4.476h4.477V103.317z M77.035,102.801h3.444v-3.442h-3.444V102.801z"/>
			<rect x="115.813" y="99.101" fill="#FFFFFF" width="3.96" height="3.96"/>
			<path fill="#D33D27" d="M120.031,103.317h-4.477v-4.476h4.477V103.317z M116.07,102.801h3.444v-3.442h-3.444V102.801z"/>
			<rect x="96.257" y="118.817" fill="#FFFFFF" width="3.96" height="3.961"/>
			<path fill="#D33D27" d="M100.476,123.036H96v-4.478h4.476V123.036z M96.515,122.52h3.444v-3.444h-3.444V122.52z"/>
		</g>
		<g>
			<g>
				<path fill="#D43E28" d="M96.027,91.791c0.612-0.544,1.326-0.818,2.163-0.818c0.887,0,1.639,0.306,2.267,0.923
					c0.635,0.622,0.942,1.37,0.942,2.244v0.076v2.848h7.363v-3.032c-0.013-2.882-1.063-5.346-3.129-7.386
					c-2.065-2.037-4.55-3.059-7.43-3.059c-2.854,0-5.307,0.998-7.358,2.997c-2.026,1.967-3.097,4.357-3.201,7.157h7.368
					C95.113,92.978,95.451,92.319,96.027,91.791"/>
				<path fill="#D43E28" d="M103.742,98.818c-1.833-0.99-3.686-1.472-5.567-1.472c-0.857-0.026-1.59-0.338-2.198-0.954
					c-0.574-0.583-0.877-1.275-0.908-2.078h-7.357c0.031,2.831,1.05,5.261,3.063,7.297c2.048,2.06,4.51,3.098,7.401,3.112h0.029
					c0.78,0,1.487,0.246,2.115,0.734c0.736,0.595,1.121,1.413,1.147,2.47h7.361C108.799,103.65,107.106,100.615,103.742,98.818"/>
				<path fill="#D43E28" d="M100.438,110.369c-0.608,0.544-1.318,0.824-2.157,0.824c-0.89,0-1.641-0.316-2.267-0.932
					c-0.638-0.622-0.95-1.369-0.95-2.242v-0.073v-2.852h-7.354v3.035c0.014,2.887,1.061,5.343,3.128,7.38
					c2.069,2.043,4.546,3.064,7.43,3.064c2.859,0,5.307-1.002,7.353-2.992c2.017-1.96,3.078-4.325,3.205-7.084h-7.377
					C101.332,109.23,100.999,109.85,100.438,110.369"/>
			</g>
		</g>
		<path fill="#FFFFFF" stroke="#D33D27" stroke-width="0.5" stroke-miterlimit="10" d="M124.794,119.04l2.211-3.271l2.603,1.759
			l-2.209,3.271L124.794,119.04z M124.37,113.034c-0.235-1.143-0.94-2.239-2.044-2.987c-0.917-0.617-1.952-0.895-2.934-0.855
			c-1.182-0.083-2.931-0.039-5.662-1.351c0.028-0.244-0.075-0.498-0.29-0.645c-0.311-0.209-0.733-0.128-0.942,0.183
			c-0.108,0.16-0.138,0.349-0.103,0.523l6.221,4.204c0.366-0.287,0.882-0.324,1.285-0.05c0.5,0.338,0.633,1.019,0.295,1.521
			c-0.339,0.498-1.021,0.631-1.522,0.291c-0.415-0.281-0.571-0.802-0.415-1.258l-6.199-4.19c-0.181,0.025-0.352,0.125-0.463,0.29
			c-0.209,0.309-0.128,0.729,0.182,0.941c0.22,0.148,0.489,0.148,0.709,0.029c2.46,2.253,2.951,4.012,3.517,5.057
			c0.354,0.798,0.947,1.524,1.752,2.068c1.096,0.741,2.362,0.988,3.504,0.792l2.32,1.941l3.437-5.087L124.37,113.034z"/>
	</g>
	<g>
		<rect x="18.484" y="91.214" fill="#FFFFFF" stroke="#D43E28" stroke-miterlimit="10" width="44.99" height="28.57"/>
		<g>
			<path fill="#D43E28" d="M26.321,102.678c0.186-0.165,0.403-0.249,0.658-0.249c0.268,0,0.497,0.094,0.688,0.281
				c0.193,0.188,0.286,0.415,0.286,0.681v0.023v0.865h2.236v-0.921c-0.003-0.876-0.322-1.623-0.95-2.243
				c-0.627-0.618-1.381-0.93-2.256-0.93c-0.867,0-1.611,0.304-2.234,0.911c-0.615,0.597-0.94,1.324-0.972,2.174h2.237
				C26.043,103.038,26.146,102.838,26.321,102.678"/>
			<path fill="#D43E28" d="M28.665,104.813c-0.557-0.3-1.119-0.448-1.691-0.448c-0.259-0.007-0.483-0.102-0.668-0.289
				c-0.175-0.177-0.266-0.388-0.275-0.631h-2.234c0.009,0.86,0.317,1.597,0.929,2.215c0.623,0.625,1.37,0.943,2.248,0.945h0.009
				c0.237,0,0.453,0.075,0.643,0.224c0.225,0.18,0.341,0.43,0.349,0.75h2.236C30.199,106.278,29.686,105.357,28.665,104.813"/>
			<path fill="#D43E28" d="M27.66,108.32c-0.184,0.164-0.4,0.25-0.654,0.25c-0.271,0-0.499-0.098-0.688-0.282
				c-0.194-0.19-0.288-0.417-0.288-0.684v-0.02v-0.867h-2.234v0.922c0.004,0.877,0.322,1.623,0.95,2.241
				c0.63,0.621,1.38,0.931,2.256,0.931c0.868,0,1.612-0.305,2.233-0.908c0.612-0.595,0.936-1.313,0.974-2.15h-2.24
				C27.932,107.975,27.831,108.163,27.66,108.32"/>
		</g>
		<rect x="37.037" y="100.484" fill="#D33D27" width="20.032" height="1.748"/>
		<rect x="37.037" y="104.626" fill="#D33D27" width="20.032" height="1.747"/>
		<rect x="37.037" y="108.541" fill="#D33D27" width="20.032" height="1.745"/>
	</g>
	<g>
		<polygon fill="#FFFFFF" stroke="#D43E28" stroke-miterlimit="10" points="82.013,69.035 67.81,69.035 53.607,69.035 
			51.943,73.249 67.81,73.249 83.677,73.249 		"/>
		<polygon fill="#FFFFFF" stroke="#D43E28" stroke-miterlimit="10" points="67.567,75.468 51.335,75.468 52.433,85.11 67.567,85.11 
			82.701,85.11 83.799,75.468 		"/>
		<polygon fill="#D43E28" stroke="#D43E28" stroke-miterlimit="10" points="67.567,85.11 52.433,85.11 54.948,107.17 67.567,107.17 
			80.188,107.17 82.701,85.11 		"/>
		<polygon fill="#FFFFFF" stroke="#D43E28" stroke-miterlimit="10" points="67.567,107.17 54.948,107.17 56.884,124.163 
			67.567,124.163 78.248,124.163 80.188,107.17 		"/>
		<polygon fill="#FFFFFF" points="81.783,69.456 67.761,69.456 53.74,69.456 52.098,73.67 67.761,73.67 83.427,73.67 		"/>
		<polygon opacity="0.5" fill="#D43E28" stroke="#D43E28" stroke-miterlimit="10" points="81.831,69.456 67.811,69.456 
			53.788,69.456 52.145,73.67 67.811,73.67 83.477,73.67 		"/>
		<polygon fill="#FFFFFF" stroke="#D43E28" stroke-miterlimit="10" points="67.81,72.417 49.445,72.417 49.445,76.008 67.81,76.008 
			86.174,76.008 86.174,72.417 		"/>
		<polygon fill="#FFFFFF" points="67.601,85.356 52.769,85.356 55.233,106.803 67.601,106.803 79.969,106.803 82.434,85.356 		"/>
		<polygon opacity="0.5" fill="#D43E28" stroke="#D43E28" stroke-miterlimit="10" points="67.601,85.417 52.769,85.417 
			55.233,106.864 67.601,106.864 79.969,106.864 82.434,85.417 		"/>
		<g>
			<path fill="#D43E28" d="M66.699,90.946c0.338-0.301,0.734-0.455,1.196-0.455c0.488,0,0.904,0.171,1.253,0.513
				c0.35,0.344,0.521,0.756,0.521,1.239v0.043v1.572h4.068v-1.674c-0.007-1.595-0.588-2.957-1.73-4.082
				c-1.141-1.127-2.512-1.691-4.104-1.691c-1.578,0-2.933,0.551-4.067,1.658c-1.118,1.085-1.711,2.407-1.769,3.955h4.073
				C66.196,91.601,66.381,91.237,66.699,90.946"/>
			<path fill="#D43E28" d="M70.963,94.829c-1.014-0.546-2.037-0.813-3.077-0.813c-0.472-0.015-0.878-0.188-1.215-0.527
				c-0.317-0.321-0.485-0.704-0.503-1.147h-4.064c0.016,1.563,0.58,2.906,1.69,4.029c1.134,1.139,2.495,1.715,4.092,1.724h0.016
				c0.431,0,0.824,0.136,1.169,0.403c0.408,0.33,0.619,0.783,0.633,1.365h4.07C73.756,97.499,72.821,95.821,70.963,94.829"/>
			<path fill="#D43E28" d="M69.136,101.213c-0.337,0.3-0.728,0.454-1.191,0.454c-0.493,0-0.907-0.177-1.253-0.515
				c-0.354-0.343-0.525-0.757-0.525-1.238v-0.04v-1.577h-4.064v1.677c0.006,1.595,0.587,2.954,1.729,4.079
				c1.143,1.13,2.511,1.693,4.105,1.693c1.58,0,2.932-0.554,4.063-1.655c1.113-1.08,1.702-2.389,1.772-3.912h-4.079
				C69.632,100.583,69.445,100.924,69.136,101.213"/>
		</g>
	</g>
</g>
</svg>
