<?xml version="1.0" encoding="utf-8"?>
<!-- Generator: Adobe Illustrator 18.1.1, SVG Export Plug-In . SVG Version: 6.00 Build 0)  -->
<svg version="1.1" id="Layer_1" xmlns="http://www.w3.org/2000/svg" xmlns:xlink="http://www.w3.org/1999/xlink" x="0px" y="0px"
	 viewBox="0 0 118.8 142.5" enable-background="new 0 0 118.8 142.5" xml:space="preserve">
<g>
	<g>
		<g>
			<path fill="#C73130" d="M114.8,141.5H53.6c-1.1,0-1.9-0.9-1.9-1.9V10.8c0-1.1,0.9-1.9,1.9-1.9h61.2c1.1,0,1.9,0.9,1.9,1.9v128.8
				C116.8,140.6,115.9,141.5,114.8,141.5z M55.6,137.6h59.3V12.7H55.6V137.6z"/>
			<path fill="#C73130" d="M116.8,141.5h-16c-1.1,0-1.9-0.9-1.9-1.9V10.8c0-1.1,0.9-1.9,1.9-1.9h16c1.1,0,1.9,0.9,1.9,1.9v128.8
				C118.8,140.6,117.9,141.5,116.8,141.5z M102.8,137.6l13.1,1V12.7h-13.1V137.6z"/>
			<path fill="#C73130" d="M82.3,12.3H63.1c-1.1,0-1.9-0.9-1.9-1.9V1.9c0-1.1,0.9-1.9,1.9-1.9h19.1c1.1,0,1.9,0.9,1.9,1.9v8.4
				C84.2,11.4,83.3,12.3,82.3,12.3z M65.1,8.4h15.2V3.9H65.1V8.4z"/>
			<path fill="#C73130" d="M110.3,35.2c-0.8,0-1.6-0.5-1.8-1.3L99,11.4c-0.3-1,0.2-2.1,1.2-2.5c1-0.3,2.1,0.2,2.5,1.2l7.5,16.6
				l4.8-16.5c0.3-1,1.4-1.6,2.4-1.3c1,0.3,1.6,1.4,1.3,2.4l-6.5,22.5C112,34.6,111.2,35.2,110.3,35.2
				C110.4,35.2,110.3,35.2,110.3,35.2z"/>
		</g>
		<polygon fill="#DB7171" points="61.2,29.3 90.7,29.3 90.7,104.9 62.8,104.9 		"/>
	</g>
	<g>
		
			<rect x="2.2" y="56.4" fill="#FFFFFF" stroke="#C73130" stroke-width="2.5" stroke-linejoin="round" stroke-miterlimit="10" width="68.7" height="13.9"/>
		
			<line fill="none" stroke="#C73130" stroke-width="2.5" stroke-linejoin="round" stroke-miterlimit="10" x1="11" y1="56.4" x2="11" y2="63.3"/>
		
			<line fill="none" stroke="#C73130" stroke-width="2.5" stroke-linejoin="round" stroke-miterlimit="10" x1="23" y1="56.4" x2="23" y2="63.3"/>
		
			<line fill="none" stroke="#C73130" stroke-width="2.5" stroke-linejoin="round" stroke-miterlimit="10" x1="35" y1="56.4" x2="35" y2="63.3"/>
		
			<line fill="none" stroke="#C73130" stroke-width="2.5" stroke-linejoin="round" stroke-miterlimit="10" x1="46.9" y1="56.4" x2="46.9" y2="63.3"/>
		
			<line fill="none" stroke="#C73130" stroke-width="2.5" stroke-linejoin="round" stroke-miterlimit="10" x1="58.9" y1="56.4" x2="58.9" y2="63.3"/>
		<g>
			<path fill="#FFFFFF" stroke="#C73130" stroke-width="2.5" stroke-linejoin="round" stroke-miterlimit="10" d="M1.2,129.3
				c0,6.6,5.4,12,12,12h46.6c6.6,0,12-5.4,12-12v-11.4H1.2V129.3z"/>
			<path fill="#FFFFFF" stroke="#C73130" stroke-width="2.5" stroke-linejoin="round" stroke-miterlimit="10" d="M59.8,70.3H13.2
				c-6.4,0-11.5,4.9-11.9,11.2h70.4C71.3,75.2,66.2,70.3,59.8,70.3z"/>
			<path fill="#DB7171" stroke="#C73130" stroke-width="2.5" stroke-linejoin="round" stroke-miterlimit="10" d="M71.7,81.5H1.3
				c0,0.3,0,0.5,0,0.8v35.6h70.5V82.2C71.8,82,71.8,81.7,71.7,81.5z"/>
		</g>
		
			<path fill="none" stroke="#FFFFFF" stroke-width="2.5" stroke-linecap="round" stroke-linejoin="round" stroke-miterlimit="10" d="
			M9.3,104.9c0,0,0,5.5,0,6.2"/>
		
			<path fill="none" stroke="#FFFFFF" stroke-width="2.5" stroke-linecap="round" stroke-linejoin="round" stroke-miterlimit="10" d="
			M15.9,104.9c0,0,0,5.5,0,6.2"/>
		
			<path fill="none" stroke="#FFFFFF" stroke-width="2.5" stroke-linecap="round" stroke-linejoin="round" stroke-miterlimit="10" d="
			M22.6,104.9c0,0,0,5.5,0,6.2"/>
		
			<path fill="none" stroke="#FFFFFF" stroke-width="2.5" stroke-linecap="round" stroke-linejoin="round" stroke-miterlimit="10" d="
			M29,104.9c0,0,0,5.5,0,6.2"/>
	</g>
</g>
</svg>
