<?xml version="1.0" encoding="utf-8"?>
<!-- Generator: Adobe Illustrator 18.1.1, SVG Export Plug-In . SVG Version: 6.00 Build 0)  -->
<svg version="1.1" id="Layer_1" xmlns="http://www.w3.org/2000/svg" xmlns:xlink="http://www.w3.org/1999/xlink" x="0px" y="0px"
	 viewBox="0 0 123.6 124.8" enable-background="new 0 0 123.6 124.8" xml:space="preserve">
<g>
	<g>
		<g>
			<polygon fill="#FFFFFF" points="76.1,122.7 10,122.7 10,11.2 18.3,2.9 26.5,11.2 34.8,2.9 43.1,11.2 51.3,2.9 59.6,11.2 
				67.8,2.9 76.1,11.2 84.4,2.9 92.6,11.2 92.6,106.2 			"/>
		</g>
		<g>
			<polygon fill="#C73130" points="76.1,124.8 7.9,124.8 7.9,10.3 18.3,0 26.5,8.3 34.8,0 43.1,8.3 51.3,0 59.6,8.3 67.8,0 
				76.1,8.3 84.4,0 94.7,10.3 94.7,106.2 90.6,106.2 90.6,12 84.4,5.8 76.1,14.1 67.8,5.8 59.6,14.1 51.3,5.8 43.1,14.1 34.8,5.8 
				26.5,14.1 18.3,5.8 12.1,12 12.1,120.7 76.1,120.7 			"/>
		</g>
		<g>
			<polygon fill="#DB7171" points="76.1,122.7 76.1,106.2 92.6,106.2 			"/>
		</g>
		<g>
			<path fill="#C73130" d="M76.1,124.8c-0.3,0-0.5-0.1-0.8-0.2c-0.8-0.3-1.3-1.1-1.3-1.9v-16.5c0-1.1,0.9-2.1,2.1-2.1h16.5
				c0.8,0,1.6,0.5,1.9,1.3c0.3,0.8,0.1,1.7-0.4,2.3l-16.5,16.5C77.2,124.6,76.6,124.8,76.1,124.8z M78.2,108.3v9.5l9.5-9.5H78.2z"/>
		</g>
		<g>
			<g>
				<polygon fill="#FFFFFF" points="121.5,104.1 121.5,112.4 113.3,120.7 105,112.4 105,104.1 				"/>
			</g>
			<g>
				<rect x="103" y="19.4" fill="#C73130" width="4.1" height="82.6"/>
			</g>
			<g>
				<rect x="119.5" y="19.4" fill="#C73130" width="4.1" height="82.6"/>
			</g>
			<g>
				<polygon fill="#C73130" points="113.3,123.6 103,113.3 103,102.1 107.1,102.1 107.1,111.5 113.3,117.7 119.5,111.5 119.5,102.1 
					123.6,102.1 123.6,113.3 				"/>
			</g>
			<g>
				<rect x="111.2" y="120.7" fill="#C73130" width="4.1" height="4.1"/>
			</g>
			<g>
				<rect x="107.1" y="21.5" fill="#DB7171" width="12.4" height="78.5"/>
			</g>
			<g>
				<rect x="111.2" y="19.4" fill="#C73130" width="4.1" height="80.6"/>
			</g>
			<g>
				<rect x="107.1" y="100" fill="#C73130" width="12.4" height="4.1"/>
			</g>
			<g>
				<path fill="#DB7171" d="M105,9.1c0-3.4,2.8-6.2,6.2-6.2h4.1c3.4,0,6.2,2.8,6.2,6.2v10.3H105V9.1z"/>
			</g>
			<g>
				<path fill="#C73130" d="M123.6,21.5H103V9.1c0-4.6,3.7-8.3,8.3-8.3h4.1c4.6,0,8.3,3.7,8.3,8.3V21.5z M107.1,17.4h12.4V9.1
					c0-2.3-1.9-4.1-4.1-4.1h-4.1c-2.3,0-4.1,1.9-4.1,4.1V17.4z"/>
			</g>
		</g>
	</g>
	<g>
		<path fill-rule="evenodd" clip-rule="evenodd" fill="#C73130" d="M31.3,67.6c-1,0.5-0.4,6.9-0.3,8c0.5,2.7,0.7,4.3,2,6.8
			c1.7,3.2,5.6,7.2,8.9,8.7c3.7,1.6,2.9,1.3,6.9,1.9c2.4,0.4,5.3,0,7.7-0.8c4.2-1.4,7.6-3.7,10.2-7.4c1.6-2.3,2.1-3,2.9-5.8
			c0.3-1,0.8-2.7,0.8-3.8c0.1-1.9-1.7-1.4-3-1.4c-1.4,0.1-3,0-4.4,0c-1.5,0-2.9,0-4.4,0c-1.7-0.1-2.2,0.2-2.6,1.8
			c-0.8,3.2-5.9,4.7-8.8,2.4c-2.6-2-2.3-3.5-2.3-6.5c0-1,0.4-3.3-0.6-3.8c-0.6-0.3-3.4-0.1-4.3-0.1C39.2,67.5,31.4,67.5,31.3,67.6
			L31.3,67.6z"/>
		<path fill-rule="evenodd" clip-rule="evenodd" fill="#C73130" d="M44.4,46.8c0.2-0.2,0-0.3,0.4-0.7c0.3-0.3-0.1-0.6,0.2-0.9
			c0.3-0.3,0.5-1.2,0.7-1.4c0.3-0.4,0.8-0.7,1.1-1.1c0.4-0.4,0.5-0.2,0.7-0.4c0.4-0.4,0.5-0.2,0.7-0.4c0.4-0.3,0.3-0.2,0.9-0.2
			c0.6,0,0.4-0.2,0.8-0.3c0.1,0,0.9,0,1.1,0c0.6,0,0.3,0.3,0.7,0.4c0.3,0.1,0.7-0.1,1,0.1c0.4,0.3,0.5,0.2,0.7,0.4
			c0.2,0.2,0.3,0.4,0.6,0.5c0.5,0.2,0.3,0,0.7,0.4c0.2,0.2,0.4,0.3,0.5,0.6c0.1,0.5,0.1,0.3,0.4,0.7c0.3,0.3,0.1,0.5,0.4,0.7
			c0.4,0.4,0.2,0.3,0.2,0.9c0,0.2,0,0.9,0,1c0.1,0.4,0.3,0.1,0.3,0.8l0,4.4c0,0.5,0.2,0.4,0.6,0.5c1.3,0.1,4,0,5.5,0
			c1.4,0,3,0,4.4,0c1.3,0,3.4,0.6,3.3-1.1c0-1.5-0.1-3-0.1-4.4c0.1-1.6-0.2-2.5-0.4-4c-0.4-2.7-1.4-4-2.5-6.3
			c-0.4-0.9-3.2-4.2-4.1-4.7c-0.5-0.3-0.8-0.5-1.2-1c-0.5-0.5-0.7-0.5-1.3-0.9c-1.2-0.7-1.5-1-2.9-1.5c-1.1-0.4-2.3-0.8-3.4-1
			c-1.8-0.3-2.2-0.3-4.1-0.3c-3.2,0-4.4,0.3-7.4,1.3c-2,0.7-3.9,2-5.5,3.3c-1.1,0.9-3.4,3.5-4,4.8c-0.2,0.5-0.6,0.9-0.8,1.3
			c-0.2,0.5-0.4,1.1-0.6,1.6c-0.5,1.1-1.2,3.9-1.4,5.2c0,0.3-0.1,0.7-0.1,1c0,0.6,0,0.7,0.5,0.7C33.5,46.8,43.8,47,44.4,46.8
			L44.4,46.8z"/>
		<path fill-rule="evenodd" clip-rule="evenodd" fill="#C73130" d="M31.2,47.2c-1,0.5,0.4,5.6,0.7,6.6c0.5,1.6,1.8,4,2.9,5.4
			c0.9,1.1,3,3.4,4.1,4.1c1.9,1.3,3.2,2.1,5.4,2.8c2.5,0.8,4.5,1,7.1,1.1c2,0.1,4,1.6,4.7,3.5c0.4,1,0,2.5,1.4,2.7
			c0.6,0.1,1.5,0,2.1-0.1c0.7,0,1.4,0,2,0c1.1,0,7.8,0.1,8.2-0.1c1.3-0.6,0-5.7-0.3-6.9c-0.4-1.5-1.8-4.3-2.7-5.5
			c-2.1-3-6.4-5.6-9.8-6.6c-2.5-0.8-4.5-1-7-1.2c-1.6-0.1-1.7-0.2-3-1.1c-0.6-0.4-1.6-1.6-1.9-2.3c-0.4-1.1,0-2.4-1.6-2.5
			c-0.7,0-1.4,0.1-2.1,0.1C39.9,47.2,31.5,47.1,31.2,47.2L31.2,47.2z"/>
	</g>
</g>
</svg>
