<?xml version="1.0" encoding="utf-8"?>
<!-- Generator: Adobe Illustrator 18.1.1, SVG Export Plug-In . SVG Version: 6.00 Build 0)  -->
<svg version="1.1" id="Layer_1" xmlns="http://www.w3.org/2000/svg" xmlns:xlink="http://www.w3.org/1999/xlink" x="0px" y="0px"
	 viewBox="0 0 245.3 142.3" enable-background="new 0 0 245.3 142.3" xml:space="preserve">
<g>
	<g>
		<g>
			<g>
				<g>
					<g>
						<polygon fill="#FFFFFF" points="150.7,54.2 150.7,27.7 58.2,27.7 47.6,17.2 2.6,17.2 2.6,54.2 						"/>
					</g>
					<g>
						<rect x="15.9" y="35.7" fill="#FFFFFF" width="121.6" height="18.5"/>
					</g>
					<g>
						<polygon fill="#DB7171" points="150.7,133.5 2.6,133.5 2.6,54.2 47.6,54.2 58.2,43.6 150.7,43.6 						"/>
					</g>
					<g>
						<path fill="#C73130" d="M153.4,136.2H0V51.5h46.5L57.1,41h96.3V136.2z M148.1,130.9V46.2H59.3L48.7,56.8H5.3v74"/>
					</g>
					<g>
						<polygon fill="#C73130" points="5.3,54.2 0,54.2 0,14.5 48.7,14.5 59.3,25.1 153.4,25.1 153.4,43.6 148.1,43.6 148.1,30.4 
							57.1,30.4 46.5,19.8 5.3,19.8 						"/>
					</g>
					<g>
						<g>
							<rect x="10.9" y="67.4" fill="#FFFFFF" width="23.7" height="5.3"/>
						</g>
						<g>
							<rect x="10.9" y="78" fill="#FFFFFF" width="23.7" height="5.3"/>
						</g>
					</g>
				</g>
			</g>
			<text transform="matrix(1 0 0 1 43.5939 110.6532)" fill="#FFFFFF" font-family="'Arial-Black'" font-size="64.7815">2</text>
		</g>
	</g>
	<g>
		<g>
			<g>
				<g>
					
						<path fill="#FFFFFF" stroke="#C73130" stroke-width="4" stroke-linecap="round" stroke-linejoin="round" stroke-miterlimit="10" d="
						M175,5.4c0,12.3-9,22.2-20,22.2c-11.1,0-20-9.9-20-22.2h-23.5v101.3c0,3,2.2,5.4,4.8,5.4h77.4c2.7,0,4.8-2.4,4.8-5.4V5.4H175z"
						/>
					
						<path fill="#FFFFFF" stroke="#C73130" stroke-width="4" stroke-linecap="round" stroke-linejoin="round" stroke-miterlimit="10" d="
						M155,27.6c11.1,0,20-9.9,20-22.2h-40C134.9,17.7,143.9,27.6,155,27.6z"/>
				</g>
				
					<polygon fill="#DB7171" stroke="#C73130" stroke-width="4" stroke-linecap="round" stroke-linejoin="round" stroke-miterlimit="10" points="
					198.5,5.4 223.5,45.3 198.5,60.2 				"/>
				
					<polygon fill="#DB7171" stroke="#C73130" stroke-width="4" stroke-linecap="round" stroke-linejoin="round" stroke-miterlimit="10" points="
					111.4,5.4 86.4,45.3 111.4,60.2 				"/>
			</g>
			<g id="XMLID_2948_">
				<polygon id="XMLID_2953_" fill="#DB7171" points="184.4,76 162.3,47.6 139,76 				"/>
				<g>
					<polygon fill="#DB7171" points="137.1,76.3 148.7,61.9 142.9,54.4 123.8,76.3 					"/>
				</g>
				<circle fill="#DB7171" cx="148.6" cy="45.2" r="3.8"/>
			</g>
		</g>
		<g>
			<path fill-rule="evenodd" clip-rule="evenodd" fill="#C73130" d="M220.4,23.7c-0.6,0.3-0.3,4.1-0.2,4.7c0.3,1.6,0.4,2.6,1.2,4
				c1,1.9,3.3,4.3,5.3,5.1c2.2,1,1.7,0.8,4.1,1.1c1.4,0.2,3.2,0,4.6-0.5c2.5-0.8,4.5-2.2,6-4.4c1-1.4,1.2-1.8,1.7-3.4
				c0.2-0.6,0.4-1.6,0.5-2.2c0.1-1.2-1-0.9-1.8-0.8c-0.8,0-1.8,0-2.6,0c-0.9,0-1.7,0-2.6,0c-1-0.1-1.3,0.1-1.5,1.1
				c-0.5,1.9-3.5,2.8-5.2,1.4c-1.5-1.2-1.4-2.1-1.4-3.8c0-0.6,0.2-2-0.3-2.3c-0.3-0.2-2-0.1-2.5-0.1
				C225.1,23.6,220.5,23.6,220.4,23.7L220.4,23.7z"/>
			<path fill-rule="evenodd" clip-rule="evenodd" fill="#C73130" d="M228.2,11.4c0.1-0.1,0-0.2,0.2-0.4c0.2-0.2-0.1-0.4,0.1-0.5
				c0.2-0.2,0.3-0.7,0.4-0.9c0.2-0.2,0.5-0.4,0.6-0.6c0.2-0.2,0.3-0.1,0.4-0.2c0.3-0.2,0.3-0.1,0.4-0.2c0.2-0.2,0.2-0.1,0.5-0.1
				c0.4,0,0.2-0.1,0.4-0.2c0.1,0,0.5,0,0.6,0c0.3,0,0.2,0.2,0.4,0.2c0.2,0,0.4-0.1,0.6,0c0.2,0.2,0.3,0.1,0.4,0.2
				c0.1,0.1,0.2,0.3,0.3,0.3c0.3,0.1,0.2,0,0.4,0.2c0.1,0.1,0.2,0.2,0.3,0.3c0.1,0.3,0,0.2,0.3,0.4c0.2,0.2,0.1,0.3,0.2,0.4
				c0.2,0.2,0.1,0.2,0.1,0.5c0,0.1,0,0.5,0,0.6c0.1,0.2,0.2,0,0.2,0.5l0,2.6c0,0.3,0.1,0.3,0.4,0.3c0.8,0.1,2.4,0,3.2,0
				c0.9,0,1.8,0,2.6,0c0.8,0,2,0.4,2-0.6c0-0.9-0.1-1.8,0-2.6c0-0.9-0.1-1.5-0.2-2.4c-0.3-1.6-0.8-2.4-1.5-3.7
				c-0.2-0.5-1.9-2.5-2.4-2.8c-0.3-0.2-0.5-0.3-0.7-0.6c-0.3-0.3-0.4-0.3-0.8-0.5c-0.7-0.4-0.9-0.6-1.7-0.9c-0.6-0.2-1.3-0.5-2-0.6
				C233.1,0,232.9,0,231.8,0c-1.9,0-2.6,0.2-4.4,0.8c-1.2,0.4-2.3,1.2-3.2,2c-0.7,0.5-2,2.1-2.4,2.8c-0.1,0.3-0.4,0.5-0.5,0.8
				c-0.1,0.3-0.2,0.7-0.4,1c-0.3,0.7-0.7,2.3-0.8,3.1c0,0.2,0,0.4,0,0.6c0,0.4,0,0.4,0.3,0.4C221.7,11.4,227.8,11.5,228.2,11.4
				L228.2,11.4z"/>
			<path fill-rule="evenodd" clip-rule="evenodd" fill="#C73130" d="M220.4,11.7c-0.6,0.3,0.2,3.3,0.4,3.9c0.3,1,1.1,2.4,1.7,3.2
				c0.5,0.6,1.8,2,2.4,2.4c1.1,0.8,1.9,1.2,3.2,1.7c1.5,0.5,2.7,0.6,4.2,0.6c1.2,0,2.4,1,2.8,2.1c0.2,0.6,0,1.5,0.8,1.6
				c0.4,0.1,0.9,0,1.2,0c0.4,0,0.8,0,1.2,0c0.6,0,4.6,0.1,4.8,0c0.8-0.3,0-3.4-0.2-4.1c-0.2-0.9-1.1-2.5-1.6-3.3
				c-1.3-1.8-3.8-3.3-5.8-3.9c-1.5-0.4-2.6-0.6-4.2-0.7c-0.9-0.1-1-0.1-1.8-0.7c-0.3-0.3-1-1-1.1-1.3c-0.2-0.6,0-1.4-0.9-1.5
				c-0.4,0-0.8,0-1.3,0C225.5,11.6,220.5,11.6,220.4,11.7L220.4,11.7z"/>
		</g>
		<g>
			
				<rect x="166.6" y="46.6" fill="#FFFFFF" stroke="#C73130" stroke-width="4" stroke-linejoin="round" stroke-miterlimit="10" width="75.8" height="15.4"/>
			
				<line fill="none" stroke="#C73130" stroke-width="2.5" stroke-linejoin="round" stroke-miterlimit="10" x1="176.3" y1="46.6" x2="176.3" y2="54.3"/>
			
				<line fill="none" stroke="#C73130" stroke-width="2.5" stroke-linejoin="round" stroke-miterlimit="10" x1="189.5" y1="46.6" x2="189.5" y2="54.3"/>
			
				<line fill="none" stroke="#C73130" stroke-width="2.5" stroke-linejoin="round" stroke-miterlimit="10" x1="202.7" y1="46.6" x2="202.7" y2="54.3"/>
			
				<line fill="none" stroke="#C73130" stroke-width="2.5" stroke-linejoin="round" stroke-miterlimit="10" x1="215.9" y1="46.6" x2="215.9" y2="54.3"/>
			
				<line fill="none" stroke="#C73130" stroke-width="2.5" stroke-linejoin="round" stroke-miterlimit="10" x1="229.2" y1="46.6" x2="229.2" y2="54.3"/>
			<g>
				<path fill="#FFFFFF" stroke="#C73130" stroke-width="4" stroke-linejoin="round" stroke-miterlimit="10" d="M165.6,127
					c0,7.3,5.9,13.2,13.2,13.2h51.4c7.3,0,13.2-5.9,13.2-13.2v-12.5h-77.8V127z"/>
				<path fill="#FFFFFF" stroke="#C73130" stroke-width="4" stroke-linejoin="round" stroke-miterlimit="10" d="M230.1,62h-51.4
					c-7,0-12.7,5.5-13.2,12.4h77.7C242.9,67.4,237.1,62,230.1,62z"/>
				<path fill="#DB7171" stroke="#C73130" stroke-width="4" stroke-linejoin="round" stroke-miterlimit="10" d="M243.3,74.3h-77.7
					c0,0.3,0,0.6,0,0.9v39.3h77.8V75.2C243.3,74.9,243.3,74.6,243.3,74.3z"/>
			</g>
			
				<path fill="none" stroke="#FFFFFF" stroke-width="2.5" stroke-linecap="round" stroke-linejoin="round" stroke-miterlimit="10" d="
				M174.4,100.2c0,0,0,6.1,0,6.8"/>
			
				<path fill="none" stroke="#FFFFFF" stroke-width="2.5" stroke-linecap="round" stroke-linejoin="round" stroke-miterlimit="10" d="
				M181.7,100.2c0,0,0,6.1,0,6.8"/>
			
				<path fill="none" stroke="#FFFFFF" stroke-width="2.5" stroke-linecap="round" stroke-linejoin="round" stroke-miterlimit="10" d="
				M189.1,100.2c0,0,0,6.1,0,6.8"/>
			
				<path fill="none" stroke="#FFFFFF" stroke-width="2.5" stroke-linecap="round" stroke-linejoin="round" stroke-miterlimit="10" d="
				M196.2,100.2c0,0,0,6.1,0,6.8"/>
		</g>
	</g>
</g>
</svg>
