<?xml version="1.0" encoding="utf-8"?>
<!-- Generator: Adobe Illustrator 18.1.1, SVG Export Plug-In . SVG Version: 6.00 Build 0)  -->
<svg version="1.1" id="Layer_1" xmlns="http://www.w3.org/2000/svg" xmlns:xlink="http://www.w3.org/1999/xlink" x="0px" y="0px"
	 viewBox="0 0 112.3 110.3" enable-background="new 0 0 112.3 110.3" xml:space="preserve">
<g id="XMLID_2775_">
	<rect x="8.9" y="1.3" fill="#DB7171" width="17.7" height="85.7"/>
	<g id="XMLID_2780_">
		<polygon id="XMLID_2781_" fill="#C73130" points="10.4,87.9 7.4,87.9 7.4,0 91.1,0 91.1,75 88.1,75 88.1,3 10.4,3 		"/>
		<rect x="38.7" y="107.4" fill="#C73130" width="13.9" height="2.8"/>
	</g>
	<rect x="105.2" y="41.8" fill="#DB7171" width="4.8" height="57.2"/>
	<rect x="27.7" y="1.3" fill="#DB7171" width="6" height="85.7"/>
	<g id="XMLID_2810_">
		<polygon id="XMLID_2811_" fill="#C73130" points="36.5,87.1 33.5,87.1 33.5,2.7 27.9,2.7 27.9,87.1 24.9,87.1 24.9,0.7 36.5,0.7 
					"/>
	</g>
	<g id="XMLID_2798_">
		<path id="XMLID_2799_" fill="#C73130" d="M41.8,110.3H0V85.6h41.8V110.3z M3,107.3h35.8V88.6H3V107.3z"/>
	</g>
	<g id="XMLID_2782_">
		<g id="XMLID_2787_">
			<path id="XMLID_2788_" fill="#C73130" d="M112.3,110.3h-10.1l0.1-69.3l3.7-9.9l1.2-0.1c0.7,0,1.3,0.4,1.6,1.1l3.5,9.4V110.3z
				 M105.2,107.3h4.2V41.8l-2.1-5.5l-2.1,5.5V107.3z"/>
		</g>
		<g id="XMLID_2785_">
			<rect id="XMLID_2786_" x="103.7" y="99" fill="#C73130" width="6.3" height="3"/>
		</g>
		<g id="XMLID_2783_">
			<rect id="XMLID_2784_" x="104.2" y="40" fill="#C73130" width="6.3" height="3"/>
		</g>
	</g>
	<g>
		<g id="XMLID_2791_">
			<path id="XMLID_2792_" fill="#C73130" d="M104.4,110.1H51.1V73.3h53.3V110.1z M54,107.1h47.4V76.3H54V107.1z"/>
		</g>
		<g id="XMLID_2778_">
			
				<rect id="XMLID_2779_" x="76.2" y="61.4" transform="matrix(0.5583 0.8296 -0.8296 0.5583 110.3872 -23.9912)" fill="#C73130" width="3" height="60.6"/>
		</g>
		<g id="XMLID_2776_">
			
				<rect id="XMLID_2777_" x="47.4" y="90.2" transform="matrix(0.8301 0.5576 -0.5576 0.8301 64.3278 -27.7657)" fill="#C73130" width="60.6" height="3"/>
		</g>
	</g>
</g>
<g>
	<path fill-rule="evenodd" clip-rule="evenodd" fill="#ED1C24" d="M65.7,23.8c-0.3,0.2-0.2,2.4-0.1,2.7c0.2,0.9,0.2,1.5,0.7,2.3
		c0.6,1.1,1.9,2.5,3.1,3c1.3,0.6,1,0.4,2.3,0.6c0.8,0.1,1.8,0,2.6-0.3c1.4-0.5,2.6-1.3,3.5-2.5c0.6-0.8,0.7-1,1-2
		c0.1-0.4,0.3-0.9,0.3-1.3c0-0.7-0.6-0.5-1-0.5c-0.5,0-1,0-1.5,0c-0.5,0-1,0-1.5,0c-0.6,0-0.7,0.1-0.9,0.6c-0.3,1.1-2,1.6-3,0.8
		c-0.9-0.7-0.8-1.2-0.8-2.2c0-0.3,0.1-1.1-0.2-1.3c-0.2-0.1-1.2,0-1.5,0C68.4,23.7,65.7,23.7,65.7,23.8L65.7,23.8z"/>
	<path fill-rule="evenodd" clip-rule="evenodd" fill="#ED1C24" d="M70.2,16.6c0.1-0.1,0-0.1,0.1-0.2c0.1-0.1,0-0.2,0.1-0.3
		c0.1-0.1,0.2-0.4,0.3-0.5c0.1-0.1,0.3-0.2,0.4-0.4c0.1-0.1,0.2-0.1,0.3-0.1c0.2-0.1,0.2-0.1,0.3-0.1c0.1-0.1,0.1-0.1,0.3-0.1
		c0.2,0,0.1-0.1,0.3-0.1c0,0,0.3,0,0.4,0c0.2,0,0.1,0.1,0.3,0.1c0.1,0,0.2,0,0.3,0c0.1,0.1,0.2,0.1,0.3,0.1c0.1,0.1,0.1,0.2,0.2,0.2
		c0.2,0.1,0.1,0,0.2,0.1c0.1,0.1,0.1,0.1,0.2,0.2c0,0.2,0,0.1,0.1,0.2c0.1,0.1,0,0.2,0.1,0.3c0.1,0.1,0.1,0.1,0.1,0.3
		c0,0.1,0,0.3,0,0.4c0,0.1,0.1,0,0.1,0.3l0,1.5c0,0.2,0.1,0.1,0.2,0.2c0.4,0,1.4,0,1.9,0c0.5,0,1,0,1.5,0c0.5,0,1.2,0.2,1.1-0.4
		c0-0.5,0-1,0-1.5c0-0.5-0.1-0.9-0.1-1.4c-0.1-0.9-0.5-1.4-0.8-2.2c-0.1-0.3-1.1-1.4-1.4-1.6c-0.2-0.1-0.3-0.2-0.4-0.3
		c-0.2-0.2-0.3-0.2-0.4-0.3c-0.4-0.2-0.5-0.3-1-0.5c-0.4-0.1-0.8-0.3-1.2-0.3c-0.6-0.1-0.8-0.1-1.4-0.1c-1.1,0-1.5,0.1-2.5,0.5
		c-0.7,0.2-1.3,0.7-1.9,1.1c-0.4,0.3-1.2,1.2-1.4,1.6c-0.1,0.2-0.2,0.3-0.3,0.5c-0.1,0.2-0.1,0.4-0.2,0.6c-0.2,0.4-0.4,1.3-0.5,1.8
		c0,0.1,0,0.2,0,0.3c0,0.2,0,0.2,0.2,0.2C66.4,16.6,70,16.7,70.2,16.6L70.2,16.6z"/>
	<path fill-rule="evenodd" clip-rule="evenodd" fill="#ED1C24" d="M65.7,16.8c-0.3,0.2,0.1,1.9,0.2,2.3c0.2,0.6,0.6,1.4,1,1.8
		c0.3,0.4,1,1.1,1.4,1.4c0.6,0.5,1.1,0.7,1.9,1c0.9,0.3,1.5,0.3,2.4,0.4c0.7,0,1.4,0.6,1.6,1.2c0.1,0.4,0,0.9,0.5,0.9
		c0.2,0,0.5,0,0.7,0c0.2,0,0.5,0,0.7,0c0.4,0,2.7,0,2.8,0c0.4-0.2,0-2-0.1-2.4c-0.1-0.5-0.6-1.5-0.9-1.9c-0.7-1-2.2-1.9-3.4-2.3
		c-0.8-0.3-1.5-0.3-2.4-0.4c-0.5,0-0.6-0.1-1-0.4c-0.2-0.1-0.6-0.6-0.6-0.8c-0.1-0.4,0-0.8-0.5-0.9c-0.2,0-0.5,0-0.7,0
		C68.6,16.8,65.7,16.8,65.7,16.8L65.7,16.8z"/>
</g>
<g>
	<path fill-rule="evenodd" clip-rule="evenodd" fill="#ED1C24" d="M16.7,99.5c-0.2,0.1-0.1,1.5-0.1,1.7c0.1,0.6,0.1,0.9,0.4,1.5
		c0.4,0.7,1.2,1.6,1.9,1.9c0.8,0.4,0.6,0.3,1.5,0.4c0.5,0.1,1.2,0,1.7-0.2c0.9-0.3,1.7-0.8,2.2-1.6c0.4-0.5,0.5-0.7,0.6-1.3
		c0.1-0.2,0.2-0.6,0.2-0.8c0-0.4-0.4-0.3-0.6-0.3c-0.3,0-0.6,0-1,0c-0.3,0-0.6,0-1,0c-0.4,0-0.5,0-0.6,0.4c-0.2,0.7-1.3,1-1.9,0.5
		c-0.6-0.4-0.5-0.8-0.5-1.4c0-0.2,0.1-0.7-0.1-0.8c-0.1-0.1-0.7,0-0.9,0C18.4,99.5,16.7,99.5,16.7,99.5L16.7,99.5z"/>
	<path fill-rule="evenodd" clip-rule="evenodd" fill="#ED1C24" d="M19.5,95c0-0.1,0-0.1,0.1-0.2c0.1-0.1,0-0.1,0-0.2
		c0.1-0.1,0.1-0.3,0.2-0.3c0.1-0.1,0.2-0.2,0.2-0.2c0.1-0.1,0.1,0,0.2-0.1c0.1-0.1,0.1,0,0.2-0.1c0.1-0.1,0.1,0,0.2,0
		c0.1,0,0.1,0,0.2-0.1c0,0,0.2,0,0.2,0c0.1,0,0.1,0.1,0.2,0.1c0.1,0,0.2,0,0.2,0c0.1,0.1,0.1,0,0.2,0.1c0,0,0.1,0.1,0.1,0.1
		c0.1,0,0.1,0,0.2,0.1c0,0,0.1,0.1,0.1,0.1c0,0.1,0,0.1,0.1,0.1c0.1,0.1,0,0.1,0.1,0.2c0.1,0.1,0.1,0.1,0.1,0.2c0,0,0,0.2,0,0.2
		c0,0.1,0.1,0,0.1,0.2l0,1c0,0.1,0,0.1,0.1,0.1c0.3,0,0.9,0,1.2,0c0.3,0,0.6,0,1,0c0.3,0,0.7,0.1,0.7-0.2c0-0.3,0-0.6,0-1
		c0-0.3,0-0.5-0.1-0.9c-0.1-0.6-0.3-0.9-0.5-1.4c-0.1-0.2-0.7-0.9-0.9-1c-0.1-0.1-0.2-0.1-0.3-0.2c-0.1-0.1-0.2-0.1-0.3-0.2
		c-0.3-0.1-0.3-0.2-0.6-0.3C22.2,91,22,91,21.7,90.9c-0.4-0.1-0.5-0.1-0.9-0.1c-0.7,0-0.9,0.1-1.6,0.3c-0.4,0.1-0.8,0.4-1.2,0.7
		c-0.2,0.2-0.7,0.8-0.9,1c-0.1,0.1-0.1,0.2-0.2,0.3c-0.1,0.1-0.1,0.2-0.1,0.3c-0.1,0.2-0.3,0.8-0.3,1.1c0,0.1,0,0.1,0,0.2
		c0,0.1,0,0.1,0.1,0.1C17.2,95,19.4,95.1,19.5,95L19.5,95z"/>
	<path fill-rule="evenodd" clip-rule="evenodd" fill="#ED1C24" d="M16.7,95.1c-0.2,0.1,0.1,1.2,0.1,1.4c0.1,0.4,0.4,0.9,0.6,1.2
		c0.2,0.2,0.7,0.7,0.9,0.9c0.4,0.3,0.7,0.4,1.2,0.6c0.5,0.2,1,0.2,1.5,0.2c0.4,0,0.9,0.3,1,0.8c0.1,0.2,0,0.5,0.3,0.6
		c0.1,0,0.3,0,0.5,0c0.1,0,0.3,0,0.4,0c0.2,0,1.7,0,1.8,0c0.3-0.1,0-1.2-0.1-1.5c-0.1-0.3-0.4-0.9-0.6-1.2c-0.5-0.6-1.4-1.2-2.1-1.4
		c-0.5-0.2-1-0.2-1.5-0.3c-0.3,0-0.4,0-0.6-0.2c-0.1-0.1-0.4-0.3-0.4-0.5c-0.1-0.2,0-0.5-0.3-0.5c-0.1,0-0.3,0-0.5,0
		C18.6,95.1,16.7,95.1,16.7,95.1L16.7,95.1z"/>
</g>
</svg>
