<?xml version="1.0" encoding="utf-8"?>
<!-- Generator: Adobe Illustrator 18.1.1, SVG Export Plug-In . SVG Version: 6.00 Build 0)  -->
<svg version="1.1" id="Layer_1" xmlns="http://www.w3.org/2000/svg" xmlns:xlink="http://www.w3.org/1999/xlink" x="0px" y="0px"
	 viewBox="0 0 181.2 96.8" enable-background="new 0 0 181.2 96.8" xml:space="preserve">
<g>
	<g id="XMLID_259_">
		<path id="XMLID_243_" fill="#C73130" d="M153,90.2H9.3c-0.6,0-1-0.4-1-1V1c0-0.6,0.4-1,1-1H153c0.6,0,1,0.4,1,1v88.2
			C154,89.8,153.6,90.2,153,90.2z"/>
		<rect id="XMLID_242_" x="15.4" y="8.2" fill="#FFFFFF" width="130.7" height="70.5"/>
		<path id="XMLID_241_" fill="#F2F2F2" d="M152.2,94.9H10c-3.4,0-6.3-2.5-6.9-5.8l-1-6.2h158.8l-0.9,5.4
			C159.4,92.1,156.1,94.9,152.2,94.9z"/>
		<g id="XMLID_240_">
			<path id="XMLID_1172_" fill="#C73130" d="M152.2,96.7H10c-4.3,0-8-3.1-8.7-7.4L0,81.1h163l-1.2,7.5C161,93.3,157,96.7,152.2,96.7
				z M4.3,84.7l0.7,4.1c0.4,2.5,2.5,4.3,5.1,4.3h142.2c3,0,5.5-2.2,6-5.1l0.5-3.3H4.3z"/>
		</g>
		<rect id="XMLID_244_" x="22.3" y="18.2" fill="#DB7171" width="57" height="30.7"/>
		<rect id="XMLID_245_" x="87.2" y="18.2" fill="#DB7171" width="13.9" height="13.9"/>
		<rect id="XMLID_247_" x="87.2" y="35" fill="#DB7171" width="13.9" height="13.9"/>
		<rect id="XMLID_248_" x="87.2" y="51.7" fill="#DB7171" width="13.9" height="13.9"/>
		<g id="XMLID_249_">
			<rect id="XMLID_1171_" x="107.7" y="18.3" fill="#C73130" width="30.7" height="3.6"/>
		</g>
		<g id="XMLID_246_">
			<rect id="XMLID_1170_" x="107.7" y="25.6" fill="#C73130" width="17.2" height="3.6"/>
		</g>
		<g id="XMLID_251_">
			<rect id="XMLID_1169_" x="107.7" y="36.5" fill="#C73130" width="30.7" height="3.6"/>
		</g>
		<g id="XMLID_250_">
			<rect id="XMLID_1168_" x="107.7" y="43.8" fill="#C73130" width="17.2" height="3.6"/>
		</g>
		<g id="XMLID_253_">
			<rect id="XMLID_1167_" x="107.7" y="54.6" fill="#C73130" width="30.7" height="3.6"/>
		</g>
		<g id="XMLID_254_">
			<rect id="XMLID_1166_" x="26.3" y="61.8" fill="#C73130" width="44.4" height="3.6"/>
		</g>
		<g id="XMLID_252_">
			<rect id="XMLID_1165_" x="107.7" y="61.9" fill="#C73130" width="17.2" height="3.6"/>
		</g>
	</g>
	<g>
		<g>
			<g>
				<path fill="#FFFFFF" d="M179.3,91.1c0,2.1-1.7,3.8-3.8,3.8h-41.7c-2.1,0-3.8-1.7-3.8-3.8V30.5c0-2.1,1.7-3.8,3.8-3.8h41.7
					c2.1,0,3.8,1.7,3.8,3.8V91.1z"/>
			</g>
			<g>
				<path fill="#C73130" d="M175.6,96.8h-41.7c-3.1,0-5.7-2.5-5.7-5.7V30.5c0-3.1,2.5-5.7,5.7-5.7h41.7c3.1,0,5.7,2.5,5.7,5.7v60.6
					C181.2,94.2,178.7,96.8,175.6,96.8z M133.9,28.6c-1,0-1.9,0.8-1.9,1.9v60.6c0,1,0.8,1.9,1.9,1.9h41.7c1,0,1.9-0.8,1.9-1.9V30.5
					c0-1-0.8-1.9-1.9-1.9H133.9z"/>
			</g>
			<g>
				<rect x="150.9" y="85.4" fill="#DB7171" width="7.6" height="3.8"/>
			</g>
			<g>
				<rect x="135.8" y="32.4" fill="#DB7171" width="37.9" height="49.2"/>
			</g>
		</g>
		<g>
			<rect x="141.5" y="38.1" fill="#FFFFFF" width="26.5" height="7.6"/>
		</g>
		<g>
			<path fill="#C73130" d="M169.9,47.5h-30.3V36.2h30.3V47.5z M143.4,43.7h22.7v-3.8h-22.7V43.7z"/>
		</g>
		<g>
			<g>
				<rect x="140.6" y="54" fill="#FFFFFF" width="28.3" height="2.7"/>
			</g>
			<g>
				<rect x="140.6" y="59.4" fill="#FFFFFF" width="28.3" height="2.7"/>
			</g>
		</g>
		<g>
			<g>
				<rect x="140.6" y="65.5" fill="#FFFFFF" width="28.3" height="2.7"/>
			</g>
			<g>
				<rect x="140.6" y="70.9" fill="#FFFFFF" width="28.3" height="2.7"/>
			</g>
		</g>
	</g>
</g>
</svg>
