<?xml version="1.0" encoding="utf-8"?>
<!-- Generator: Adobe Illustrator 18.1.1, SVG Export Plug-In . SVG Version: 6.00 Build 0)  -->
<svg version="1.1" id="Layer_1" xmlns="http://www.w3.org/2000/svg" xmlns:xlink="http://www.w3.org/1999/xlink" x="0px" y="0px"
	 viewBox="0 0 273.3 164.9" enable-background="new 0 0 273.3 164.9" xml:space="preserve">
<g>
	<g>
		<rect x="138.6" y="12.9" fill="#FFFFFF" width="97.9" height="76.7"/>
		<g>
			<rect x="135.5" y="13.1" fill="#DB7171" width="105.1" height="18.4"/>
			<polygon fill="#DB7171" points="180.7,38.7 173.1,38.7 173.1,46.3 180.7,46.3 180.7,38.7 			"/>
			<polygon fill="#DB7171" points="192.1,38.7 184.5,38.7 184.5,46.3 192.1,46.3 192.1,38.7 			"/>
			<polygon fill="#DB7171" points="203.5,38.7 195.9,38.7 195.9,46.3 203.5,46.3 203.5,38.7 			"/>
			<polygon fill="#DB7171" points="214.8,38.7 207.2,38.7 207.2,46.3 214.8,46.3 214.8,38.7 			"/>
			<polygon fill="#DB7171" points="226.2,38.7 218.6,38.7 218.6,46.3 226.2,46.3 226.2,38.7 			"/>
			<polygon fill="#C73130" points="158,50.1 150.4,50.1 150.4,57.7 158,57.7 158,50.1 			"/>
			<polygon fill="#DB7171" points="169.3,50.1 161.8,50.1 161.8,57.7 169.3,57.7 169.3,50.1 			"/>
			<polygon fill="#DB7171" points="180.7,50.1 173.1,50.1 173.1,57.7 180.7,57.7 180.7,50.1 			"/>
			<polygon fill="#DB7171" points="192.1,50.1 184.5,50.1 184.5,57.7 192.1,57.7 192.1,50.1 			"/>
			<polygon fill="#C73130" points="203.5,50.1 195.9,50.1 195.9,57.7 203.5,57.7 203.5,50.1 			"/>
			<polygon fill="#DB7171" points="214.8,50.1 207.2,50.1 207.2,57.7 214.8,57.7 214.8,50.1 			"/>
			<polygon fill="#DB7171" points="226.2,50.1 218.6,50.1 218.6,57.7 226.2,57.7 226.2,50.1 			"/>
			<polygon fill="#C73130" points="158,61.5 150.4,61.5 150.4,69 158,69 158,61.5 			"/>
			<polygon fill="#DB7171" points="169.3,61.5 161.8,61.5 161.8,69 169.3,69 169.3,61.5 			"/>
			<polygon fill="#DB7171" points="180.7,61.5 173.1,61.5 173.1,69 180.7,69 180.7,61.5 			"/>
			<polygon fill="#DB7171" points="192.1,61.5 184.5,61.5 184.5,69 192.1,69 192.1,61.5 			"/>
			<polygon fill="#DB7171" points="203.5,61.5 195.9,61.5 195.9,69 203.5,69 203.5,61.5 			"/>
			<polygon fill="#DB7171" points="214.8,61.5 207.2,61.5 207.2,69 214.8,69 214.8,61.5 			"/>
			<polygon fill="#DB7171" points="226.2,61.5 218.6,61.5 218.6,69 226.2,69 226.2,61.5 			"/>
			<polygon fill="#C73130" points="158,72.8 150.4,72.8 150.4,80.4 158,80.4 158,72.8 			"/>
			<polygon fill="#DB7171" points="169.3,72.8 161.8,72.8 161.8,80.4 169.3,80.4 169.3,72.8 			"/>
			<polygon fill="#DB7171" points="180.7,72.8 173.1,72.8 173.1,80.4 180.7,80.4 180.7,72.8 			"/>
			<polygon fill="#C73130" points="192.1,72.8 184.5,72.8 184.5,80.4 192.1,80.4 192.1,72.8 			"/>
			<polygon fill="#DB7171" points="203.5,72.8 195.9,72.8 195.9,80.4 203.5,80.4 203.5,72.8 			"/>
			<polygon fill="#DB7171" points="214.8,72.8 207.2,72.8 207.2,80.4 214.8,80.4 214.8,72.8 			"/>
			<path fill="#C73130" d="M135.6,9.4v18v48.5v18h105.1v-18V27.4v-18H135.6z M236.5,75.9v13.7h-96.6V75.9V27.4V13.7h96.6v13.7V75.9z
				"/>
			<g>
				<g>
					<rect x="153.2" y="2" fill="#FFFFFF" width="8.2" height="18.5"/>
					<path fill="#C73130" d="M163.5,22.5h-12.2V0h12.2V22.5z M155.2,18.5h4.2V4h-4.2V18.5z"/>
				</g>
				<g>
					<rect x="214.9" y="2" fill="#FFFFFF" width="8.2" height="18.5"/>
					<path fill="#C73130" d="M225.2,22.5h-12.2V0h12.2V22.5z M216.9,18.5h4.2V4h-4.2V18.5z"/>
				</g>
			</g>
		</g>
	</g>
	<g>
		<g>
			<g>
				<g>
					<g>
						<polygon fill="#FFFFFF" points="150.7,62.4 150.7,36 58.2,36 47.6,25.4 2.6,25.4 2.6,62.4 						"/>
					</g>
					<g>
						<rect x="15.9" y="43.9" fill="#FFFFFF" width="121.6" height="18.5"/>
					</g>
					<g>
						<polygon fill="#DB7171" points="150.7,141.7 2.6,141.7 2.6,62.4 47.6,62.4 58.2,51.8 150.7,51.8 						"/>
					</g>
					<g>
						<path fill="#C73130" d="M153.4,144.4H0V59.7h46.5l10.6-10.6h96.3V144.4z M148.1,139.1V54.5H59.3L48.7,65H5.3v74"/>
					</g>
					<g>
						<polygon fill="#C73130" points="5.3,62.4 0,62.4 0,22.7 48.7,22.7 59.3,33.3 153.4,33.3 153.4,51.8 148.1,51.8 148.1,38.6 
							57.1,38.6 46.5,28 5.3,28 						"/>
					</g>
					<g>
						<g>
							<rect x="10.9" y="75.6" fill="#FFFFFF" width="23.7" height="5.3"/>
						</g>
						<g>
							<rect x="10.9" y="86.2" fill="#FFFFFF" width="23.7" height="5.3"/>
						</g>
					</g>
				</g>
			</g>
			<text transform="matrix(1 0 0 1 43.5939 118.8703)" fill="#FFFFFF" font-family="'Arial-Black'" font-size="64.7815">3</text>
		</g>
	</g>
	<g>
		<path fill-rule="evenodd" clip-rule="evenodd" fill="#C73130" d="M246,56.7c-0.6,0.3-0.3,4.1-0.2,4.7c0.3,1.6,0.4,2.6,1.2,4
			c1,1.9,3.3,4.3,5.3,5.1c2.2,1,1.7,0.8,4.1,1.1c1.4,0.2,3.2,0,4.6-0.5c2.5-0.8,4.5-2.2,6-4.4c1-1.4,1.2-1.8,1.7-3.4
			c0.2-0.6,0.4-1.6,0.5-2.2c0.1-1.2-1-0.9-1.8-0.8c-0.8,0-1.8,0-2.6,0c-0.9,0-1.7,0-2.6,0c-1-0.1-1.3,0.1-1.5,1.1
			c-0.5,1.9-3.5,2.8-5.2,1.4c-1.5-1.2-1.4-2.1-1.4-3.8c0-0.6,0.2-2-0.3-2.3c-0.3-0.2-2-0.1-2.5-0.1C250.6,56.7,246,56.7,246,56.7
			L246,56.7z"/>
		<path fill-rule="evenodd" clip-rule="evenodd" fill="#C73130" d="M253.7,44.5c0.1-0.1,0-0.2,0.2-0.4c0.2-0.2-0.1-0.4,0.1-0.5
			c0.2-0.2,0.3-0.7,0.4-0.9c0.2-0.2,0.5-0.4,0.6-0.6c0.2-0.2,0.3-0.1,0.4-0.2c0.3-0.2,0.3-0.1,0.4-0.2c0.2-0.2,0.2-0.1,0.5-0.1
			c0.4,0,0.2-0.1,0.4-0.2c0.1,0,0.5,0,0.6,0c0.3,0,0.2,0.2,0.4,0.2c0.2,0,0.4-0.1,0.6,0c0.2,0.2,0.3,0.1,0.4,0.2
			c0.1,0.1,0.2,0.3,0.3,0.3c0.3,0.1,0.2,0,0.4,0.2c0.1,0.1,0.2,0.2,0.3,0.3c0.1,0.3,0,0.2,0.3,0.4c0.2,0.2,0.1,0.3,0.2,0.4
			c0.2,0.2,0.1,0.2,0.1,0.5c0,0.1,0,0.5,0,0.6c0.1,0.2,0.2,0,0.2,0.5l0,2.6c0,0.3,0.1,0.3,0.4,0.3c0.8,0.1,2.4,0,3.2,0
			c0.9,0,1.8,0,2.6,0c0.8,0,2,0.4,2-0.6c0-0.9-0.1-1.8,0-2.6c0-0.9-0.1-1.5-0.2-2.4c-0.3-1.6-0.8-2.4-1.5-3.7
			c-0.2-0.5-1.9-2.5-2.4-2.8c-0.3-0.2-0.5-0.3-0.7-0.6c-0.3-0.3-0.4-0.3-0.8-0.5c-0.7-0.4-0.9-0.6-1.7-0.9c-0.6-0.2-1.3-0.5-2-0.6
			c-1.1-0.2-1.3-0.2-2.4-0.2c-1.9,0-2.6,0.2-4.4,0.8c-1.2,0.4-2.3,1.2-3.2,2c-0.7,0.5-2,2.1-2.4,2.8c-0.1,0.3-0.4,0.5-0.5,0.8
			c-0.1,0.3-0.2,0.7-0.4,1c-0.3,0.7-0.7,2.3-0.8,3.1c0,0.2,0,0.4,0,0.6c0,0.4,0,0.4,0.3,0.4C247.3,44.4,253.4,44.6,253.7,44.5
			L253.7,44.5z"/>
		<path fill-rule="evenodd" clip-rule="evenodd" fill="#C73130" d="M245.9,44.7c-0.6,0.3,0.2,3.3,0.4,3.9c0.3,1,1.1,2.4,1.7,3.2
			c0.5,0.6,1.8,2,2.4,2.4c1.1,0.8,1.9,1.2,3.2,1.7c1.5,0.5,2.7,0.6,4.2,0.6c1.2,0,2.4,1,2.8,2.1c0.2,0.6,0,1.5,0.8,1.6
			c0.4,0.1,0.9,0,1.2,0c0.4,0,0.8,0,1.2,0c0.6,0,4.6,0.1,4.8,0c0.8-0.3,0-3.4-0.2-4.1c-0.2-0.9-1.1-2.5-1.6-3.3
			c-1.3-1.8-3.8-3.3-5.8-3.9c-1.5-0.4-2.6-0.6-4.2-0.7c-0.9-0.1-1-0.1-1.8-0.7c-0.3-0.3-1-1-1.1-1.3c-0.2-0.6,0-1.4-0.9-1.5
			c-0.4,0-0.8,0-1.3,0C251.1,44.7,246.1,44.6,245.9,44.7L245.9,44.7z"/>
	</g>
	<g>
		<g>
			<g>
				
					<rect x="121.8" y="85.5" fill="#DB7171" stroke="#C73130" stroke-width="4" stroke-linejoin="round" stroke-miterlimit="10" width="149.5" height="77.4"/>
			</g>
			<g>
				
					<line fill="none" stroke="#FFFFFF" stroke-width="3" stroke-linejoin="round" stroke-miterlimit="10" x1="146.2" y1="134.2" x2="146.2" y2="161.8"/>
				<path fill="none" stroke="#FFFFFF" stroke-width="3" stroke-linejoin="round" stroke-miterlimit="10" d="M156.2,138.4
					c0,4.4-4.5,8-10,8l0,0c-5.5,0-10-3.6-10-8v-11.7c0-4.4,4.5-8,10-8l0,0c5.5,0,10,3.6,10,8V138.4z"/>
			</g>
			<g>
				
					<line fill="none" stroke="#FFFFFF" stroke-width="3" stroke-linejoin="round" stroke-miterlimit="10" x1="177.2" y1="134" x2="177.2" y2="161.8"/>
				<path fill="none" stroke="#FFFFFF" stroke-width="3" stroke-linejoin="round" stroke-miterlimit="10" d="M187.3,138.3
					c0,4.4-4.5,8-10,8l0,0c-5.5,0-10-3.6-10-8v-11.7c0-4.4,4.5-8,10-8l0,0c5.5,0,10,3.6,10,8V138.3z"/>
			</g>
			
				<circle fill="none" stroke="#FFFFFF" stroke-width="3" stroke-linejoin="round" stroke-miterlimit="10" cx="204" cy="112.5" r="8.4"/>
		</g>
		
			<line fill="none" stroke="#FFFFFF" stroke-width="3" stroke-linejoin="round" stroke-miterlimit="10" x1="226.1" y1="103.9" x2="258.1" y2="103.9"/>
		
			<line fill="none" stroke="#FFFFFF" stroke-width="3" stroke-linejoin="round" stroke-miterlimit="10" x1="226.1" y1="113.5" x2="258.1" y2="113.5"/>
		
			<line fill="none" stroke="#FFFFFF" stroke-width="3" stroke-linejoin="round" stroke-miterlimit="10" x1="226.1" y1="124.3" x2="258.1" y2="124.3"/>
	</g>
</g>
</svg>
