<?xml version="1.0" encoding="utf-8"?>
<!-- Generator: Adobe Illustrator 18.1.1, SVG Export Plug-In . SVG Version: 6.00 Build 0)  -->
<svg version="1.1" id="Layer_1" xmlns="http://www.w3.org/2000/svg" xmlns:xlink="http://www.w3.org/1999/xlink" x="0px" y="0px"
	 viewBox="0 0 93.3 139.5" enable-background="new 0 0 93.3 139.5" xml:space="preserve">
<g>
	<path fill="#DB7171" stroke="#C73130" stroke-width="3.803" d="M21.6,110.1c-1,4.6-5.5,7.6-10.1,6.7l0,0c-4.6-1-7.6-5.5-6.7-10.1
		l5.8-28.3c1-4.6,5.5-7.6,10.1-6.7l0,0c4.6,1,7.6,5.5,6.7,10.1L21.6,110.1z"/>
	<circle fill="#FFFFFF" stroke="#C73130" stroke-width="2.5354" cx="10" cy="114.3" r="7.9"/>
	<path fill="#DB7171" stroke="#C73130" stroke-width="3.803" d="M71.7,110.1c1,4.6,5.5,7.6,10.1,6.7l0,0c4.6-1,7.6-5.5,6.7-10.1
		l-5.8-28.3c-1-4.6-5.5-7.6-10.1-6.7l0,0c-4.6,1-7.6,5.5-6.7,10.1L71.7,110.1z"/>
	<circle fill="#FFFFFF" stroke="#C73130" stroke-width="2.5354" cx="83.3" cy="114.3" r="7.9"/>
	<path fill="#DB7171" stroke="#231F20" stroke-width="3.803" d="M46.1,129.2c0,4.6-3.3,8.4-7.3,8.4H23.1c-4,0-7.3-3.8-7.3-8.4l0,0
		c0-4.6,3.3-8.4,7.3-8.4h15.7C42.8,120.8,46.1,124.5,46.1,129.2L46.1,129.2z"/>
	<path fill="#DB7171" stroke="#231F20" stroke-width="3.803" d="M77.5,129.2c0,4.6-3.3,8.4-7.3,8.4H54.5c-4,0-7.3-3.8-7.3-8.4l0,0
		c0-4.6,3.3-8.4,7.3-8.4h15.7C74.3,120.8,77.5,124.5,77.5,129.2L77.5,129.2z"/>
	<path fill="none" stroke="#C73130" stroke-width="3.803" d="M46.1,129.2c0,4.6-3.3,8.4-7.3,8.4H23.1c-4,0-7.3-3.8-7.3-8.4l0,0
		c0-4.6,3.3-8.4,7.3-8.4h15.7C42.8,120.8,46.1,124.5,46.1,129.2L46.1,129.2z"/>
	<path fill="none" stroke="#C73130" stroke-width="3.803" d="M77.5,129.2c0,4.6-3.3,8.4-7.3,8.4H54.5c-4,0-7.3-3.8-7.3-8.4l0,0
		c0-4.6,3.3-8.4,7.3-8.4h15.7C74.3,120.8,77.5,124.5,77.5,129.2L77.5,129.2z"/>
	<path fill="#FFFFFF" stroke="#231F20" stroke-width="3.803" d="M80.2,114.3c0,7.1-5.8,12.9-12.9,12.9H25.9
		c-7.1,0-12.9-5.8-12.9-12.9l4.3-45c0-7.1,5.8-12.9,12.9-12.9h32.9c7.1,0,12.9,5.8,12.9,12.9L80.2,114.3z"/>
	<path fill="none" stroke="#C73130" stroke-width="3.803" d="M80.2,114.3c0,7.1-5.8,12.9-12.9,12.9H25.9c-7.1,0-12.9-5.8-12.9-12.9
		l4.3-45c0-7.1,5.8-12.9,12.9-12.9h32.9c7.1,0,12.9,5.8,12.9,12.9L80.2,114.3z"/>
	<circle fill="#FFFFFF" stroke="#C73130" stroke-width="3.803" cx="46.7" cy="78.6" r="12.1"/>
	<circle fill="#FFFFFF" stroke="#231F20" stroke-width="3.803" cx="46.7" cy="47.9" r="36.7"/>
	<circle fill="none" stroke="#C73130" stroke-width="3.803" cx="46.7" cy="47.9" r="36.7"/>
	<circle fill="#C73130" cx="61" cy="56.7" r="5.4"/>
	<circle fill="#C73130" cx="36.7" cy="56.7" r="3.2"/>
	<circle fill="#FFFFFF" stroke="#C73130" stroke-width="2.5354" cx="47.2" cy="74" r="2.7"/>
	<path fill="#DB7171" stroke="#C73130" stroke-width="3.803" d="M46.7,1.9C21.9,1.9,1.9,22,1.9,46.8c0,2.6,0.2,5.1,0.6,7.5h18.8
		c0.5-2.3,1.1-4.7,2.1-7.1c3.9-10,6.8-12.9,6.8-12.9s-2.5,7.5-1.4,18.9c0,0.4,0.1,0.7,0.1,1.1h61.9c0.4-2.4,0.6-4.9,0.6-7.5
		C91.4,22,71.4,1.9,46.7,1.9z"/>
</g>
</svg>
