<?xml version="1.0" encoding="utf-8"?>
<!-- Generator: Adobe Illustrator 18.1.1, SVG Export Plug-In . SVG Version: 6.00 Build 0)  -->
<svg version="1.1" id="Layer_1" xmlns="http://www.w3.org/2000/svg" xmlns:xlink="http://www.w3.org/1999/xlink" x="0px" y="0px"
	 viewBox="0 0 102.6 103.8" enable-background="new 0 0 102.6 103.8" xml:space="preserve">
<g>
	<g>
		<g>
			<path fill="#FFFFFF" stroke="#808285" d="M70.3,12.7l-38.1-10L15.6,38.3l29.3,62.5L72.3,88l27.4-12.8L70.3,12.7z M37,27.2
				c-1.4-3.1-0.1-6.7,3-8.2c3.1-1.4,6.7-0.1,8.2,3c1.4,3.1,0.1,6.7-3,8.2C42.1,31.6,38.4,30.3,37,27.2z"/>
			<path fill="#C73130" d="M43.9,103.8L13.2,38.3L31,0l40.9,10.8l30.7,65.5L43.9,103.8z M18.1,38.3L46,97.8l50.7-23.8L68.8,14.6
				L33.5,5.3L18.1,38.3z M35,28.1C33,24,34.8,19,39,17c4.2-2,9.2-0.2,11.2,4c2,4.2,0.2,9.2-4,11.2C41.9,34.1,36.9,32.3,35,28.1z
				 M46.1,22.9c-0.9-2-3.3-2.8-5.2-1.9c-2,0.9-2.8,3.3-1.9,5.2s3.3,2.8,5.2,1.9C46.2,27.2,47,24.9,46.1,22.9z"/>
		</g>
		<circle fill="#DB7171" cx="58.1" cy="57.7" r="19.9"/>
		<g>
			<path fill="#FFFFFF" d="M51.5,60.5l-0.4,8.6l7-4.9l8,3L63.7,59l5.4-6.7l-8.6-0.2L55.7,45l-2.8,8.1l-8.3,2.3L51.5,60.5z"/>
		</g>
	</g>
	<g>
		<path fill="#DB7171" d="M41.2,31.5c-1.4,0.7-3.4,1-6.2,0.8c-4.4-0.3-9.9-1.9-15.4-4.6C8.7,22.5-1.5,13.7,0.2,7
			c0.6-2.2,2.6-4.8,9.1-4.3c4.4,0.3,9.9,1.9,15.4,4.6c1.3,0.6,2.6,1.3,3.9,2l-1.4,4.3c-1.2-0.7-2.4-1.3-3.6-1.9
			c-5.1-2.4-10-3.9-13.9-4.2C6.3,7.3,4.5,8.1,4.3,9c-0.5,2,4.8,8.8,16.4,14.3c5.1,2.4,10,3.9,13.9,4.2c3.4,0.2,5.2-0.6,5.4-1.4
			c0.2-0.6-0.4-1.9-1.4-3.3l3.1-2.8c2.7,3.7,2.8,6.4,2.4,8C43.8,29.3,43,30.6,41.2,31.5z"/>
	</g>
</g>
</svg>
