<?xml version="1.0" encoding="utf-8"?>
<!-- Generator: Adobe Illustrator 18.1.1, SVG Export Plug-In . SVG Version: 6.00 Build 0)  -->
<svg version="1.1" id="Layer_1" xmlns="http://www.w3.org/2000/svg" xmlns:xlink="http://www.w3.org/1999/xlink" x="0px" y="0px"
	 viewBox="0 0 126.2 93.6" enable-background="new 0 0 126.2 93.6" xml:space="preserve">
<g>
	<path fill="#C73130" d="M124.5,93.6c-0.1,0-0.2,0-0.3,0l-40.7-6.4l-40.7,6.4l0,0l0,0c0,0,0,0,0,0c0,0,0,0,0,0c0,0,0,0,0,0s0,0,0,0
		c0,0,0,0,0,0l0,0l0,0l0,0l0,0h0c-0.1,0-0.1,0-0.2,0c0,0,0,0,0,0c0,0,0,0,0,0h0h0l0,0c0,0,0,0,0,0h0h0h0h0c0,0,0,0,0,0h0l0,0h0h0
		c0,0,0,0,0,0h0h0h0c0,0,0,0,0,0h0c0,0,0,0,0,0c0,0,0,0,0,0l0,0c0,0,0,0,0,0h0l0,0h0h0c0,0,0,0,0,0c-0.1,0-0.1,0-0.2,0L1.5,87.2
		C0.6,87.1,0,86.3,0,85.5V1.7c0-0.5,0.2-1,0.6-1.3C1,0.1,1.5-0.1,2,0l40.7,6.4L83.3,0c0.1,0,0.2,0,0.2,0h0h0c0,0,0,0,0,0l0,0
		c0,0,0,0,0,0l0,0c0,0,0,0,0,0c0,0,0,0,0,0s0,0,0,0c0,0,0,0,0,0c0,0,0,0,0,0h0l0,0c0.1,0,0.2,0,0.2,0l40.9,6.4
		c0.8,0.1,1.5,0.9,1.5,1.7v83.8c0,0.5-0.2,1-0.6,1.3C125.3,93.5,124.9,93.6,124.5,93.6z M85.3,84l37.5,5.9V9.6L85.3,3.7
		c0,0,1,59.5,0,59.6V84z"/>
	<polygon fill="#FFFFFF" points="44.9,9.6 81.2,3.9 81.2,82.8 44.3,88.7 	"/>
	<polygon fill="#FFFFFF" points="3.5,2.9 40.7,9.4 40.7,88.7 3.5,82.4 	"/>
	<polygon fill="#DB7171" points="11.6,43.8 34.3,47.5 34.3,50.4 11.6,46.9 	"/>
	<polygon fill="#DB7171" points="90.6,71 118.5,75.3 118.5,77.9 90.6,73.8 	"/>
	<polygon fill="#DB7171" points="11.6,50.4 34.3,54.1 34.3,57 11.6,53.5 	"/>
	<polygon fill="#DB7171" points="11.6,57 34.3,60.8 34.3,63.6 11.6,60.1 	"/>
	<polygon fill="#DB7171" points="11.6,63.6 34.3,67.4 34.3,70.3 11.6,66.8 	"/>
	<polygon fill="#DB7171" points="11.5,13.1 11.6,37.5 34.3,41.8 34.3,17.5 	"/>
	<polygon fill="#DB7171" points="90.6,15.3 118.3,19.3 118.3,70.3 90.6,66.3 	"/>
	<polygon fill="#DB7171" points="50.3,17.5 75.6,14.1 75.6,45.5 50.3,48.6 	"/>
	<polygon fill="#DB7171" points="50.3,53.7 75.6,50.4 75.6,53.7 50.3,57 	"/>
	<polygon fill="#DB7171" points="50.3,60.3 75.6,57 75.6,60.3 50.3,63.6 	"/>
	<polygon fill="#DB7171" points="50.3,67 75.6,63.6 75.6,67 50.3,70.3 	"/>
</g>
</svg>
