<?xml version="1.0" encoding="utf-8"?>
<!-- Generator: Adobe Illustrator 18.1.1, SVG Export Plug-In . SVG Version: 6.00 Build 0)  -->
<svg version="1.1" id="Layer_1" xmlns="http://www.w3.org/2000/svg" xmlns:xlink="http://www.w3.org/1999/xlink" x="0px" y="0px"
	 viewBox="0 0 295.5 281.7" enable-background="new 0 0 295.5 281.7" xml:space="preserve">
<g>
	<polygon fill="#DB7071" stroke="#CA3032" stroke-width="3" stroke-linecap="round" points="140.1,144.9 113.3,158.9 118.5,129.1 
		96.9,108 126.8,103.7 140.2,76.7 153.5,103.8 183.4,108.2 161.7,129.2 166.8,159 	"/>
	<line fill="none" stroke="#CA3032" stroke-width="3" stroke-linecap="round" x1="270.6" y1="96.6" x2="261.4" y2="115.8"/>
	<line fill="none" stroke="#CA3032" stroke-width="3" stroke-linecap="round" x1="276.2" y1="84.9" x2="272.9" y2="91.8"/>
	<line fill="none" stroke="#CA3032" stroke-width="3" stroke-linecap="round" x1="280.1" y1="77.4" x2="278.6" y2="80.6"/>
	<line fill="none" stroke="#CA3032" stroke-width="3" stroke-linecap="round" x1="252.8" y1="92.2" x2="250.5" y2="110.4"/>
	<line fill="none" stroke="#CA3032" stroke-width="3" stroke-linecap="round" x1="254.2" y1="79.6" x2="253.4" y2="85.8"/>
	<line fill="none" stroke="#CA3032" stroke-width="3" stroke-linecap="round" x1="285" y1="108" x2="272.3" y2="121.1"/>
	<line fill="none" stroke="#CA3032" stroke-width="3" stroke-linecap="round" x1="294" y1="99.1" x2="289.6" y2="103.6"/>
	<line fill="none" stroke="#CA3032" stroke-width="3" x1="18.6" y1="245.3" x2="18.6" y2="262.8"/>
	<line fill="none" stroke="#CA3032" stroke-width="3" x1="10.2" y1="254.7" x2="26.9" y2="254.7"/>
	<line fill="none" stroke="#CA3032" stroke-width="3" x1="289.3" y1="35" x2="289.3" y2="44.2"/>
	<line fill="none" stroke="#CA3032" stroke-width="3" x1="284.9" y1="39.9" x2="293.7" y2="39.9"/>
	<line fill="none" stroke="#CA3032" stroke-width="3" x1="252.9" y1="13.4" x2="252.9" y2="22.7"/>
	<line fill="none" stroke="#CA3032" stroke-width="3" x1="248.5" y1="18.4" x2="257.3" y2="18.4"/>
	<line fill="none" stroke="#CA3032" stroke-width="3" x1="8.4" y1="46.3" x2="8.4" y2="63.8"/>
	<line fill="none" stroke="#CA3032" stroke-width="3" x1="0" y1="55.7" x2="16.7" y2="55.7"/>
	<line fill="none" stroke="#CA3032" stroke-width="3" x1="22.1" y1="83.9" x2="22.1" y2="93.2"/>
	<line fill="none" stroke="#CA3032" stroke-width="3" x1="17.7" y1="88.9" x2="26.5" y2="88.9"/>
	<polygon fill="#DB7071" points="48.7,15.4 60.7,15.4 61.6,234.9 206.6,235.7 206.1,248.8 48.7,248.8 	"/>
	<path fill="none" stroke="#CA3032" stroke-width="3" stroke-linecap="round" d="M206.6,235.3c0,8.5,0,13.5,0,13.5H48.7V15.4
		c0,0,4.8,0,12.7,0"/>
	<polygon fill="#DB7071" points="177.1,44.3 180.4,2.9 218.4,37.5 	"/>
	<path fill="none" stroke="#CA3032" stroke-width="3" stroke-linecap="round" d="M180.4,1.5c-46.8,0-118.8,0-118.8,0v233.4h157.8
		c0,0,0-131.7,0-197.4L180.4,1.5z"/>
	<polyline fill="none" stroke="#CA3032" stroke-width="3" points="219.5,37.5 177.1,44.3 180.4,1.5 	"/>
	<g>
		<polygon fill="#CA3032" points="199,181.4 161.7,265.3 188.3,255.1 198.5,281.7 235.8,197.8 		"/>
		<polygon fill="#DB7071" points="223.3,220.3 198.7,275.6 189.6,252.1 166.1,261.1 190.7,205.8 192.9,206.8 170.7,256.7 191,248.9 
			198.8,269.3 221.1,219.3 		"/>
		<polygon fill="#CA3032" points="208.1,197.8 245.4,281.6 255.6,255.1 282.2,265.3 244.9,181.4 		"/>
		<polygon fill="#DB7071" points="253.2,205.8 277.8,261.1 254.3,252.1 245.2,275.6 220.6,220.3 222.8,219.3 245.1,269.3 
			252.9,248.9 273.2,256.7 251,206.8 		"/>
	</g>
	<g>
		<path fill="#DB7071" stroke="#CA3032" stroke-width="3" stroke-linecap="round" d="M173.5,179c1,2.3,1,4.9,0,7.2
			c-0.4,0.8-0.7,1.7-1,2.6c-0.2,0.5-0.4,1-0.5,1.5c-1.2,3.6-0.3,7.6,2.5,10.2c0.8,0.7,1.6,1.4,2.4,2c2.2,1.7,3.4,4.4,3.5,7.2
			c0,0.4,0,0.7,0,1.1c0.2,4.5,3.5,8.3,7.9,9c0.2,0,0.3,0,0.5,0.1c3,0.5,5.6,2.4,7,5.1c0,0,0,0.1,0.1,0.1c2,4,6.6,5.9,10.8,4.8
			c0.2,0,0.3-0.1,0.5-0.1c2.9-0.8,6.1-0.2,8.4,1.7c0.1,0.1,0.2,0.2,0.4,0.3c3.4,2.7,8.2,2.8,11.7,0.1c0.1-0.1,0.3-0.2,0.4-0.3
			c2.4-1.9,5.5-2.5,8.4-1.6c0.2,0.1,0.3,0.1,0.5,0.2c4.3,1.2,8.8-0.7,10.9-4.6c0,0,0-0.1,0.1-0.1c1.4-2.7,4-4.6,7-5
			c0.2,0,0.3,0,0.5-0.1c4.4-0.7,7.8-4.4,8-8.9c0-0.3,0-0.7,0-1c0.1-2.9,1.3-5.6,3.6-7.3c0.8-0.6,1.5-1.2,2.3-1.8
			c2.9-2.5,3.8-6.5,2.6-10.1c-0.5-1.6-1.1-3.1-1.7-4.6c-1-2.4-1-5,0-7.4c0.6-1.5,1.2-3.1,1.7-4.6c1.2-3.6,0.2-7.6-2.6-10.1
			c-0.7-0.7-1.5-1.3-2.3-1.8c-2.3-1.7-3.6-4.5-3.6-7.3c0-0.3,0-0.7,0-1c-0.2-4.5-3.5-8.2-8-8.9c-0.2,0-0.3,0-0.5-0.1
			c-3-0.4-5.6-2.3-7-5c0,0,0-0.1-0.1-0.1c-2.1-3.9-6.6-5.9-10.9-4.6c-0.2,0.1-0.3,0.1-0.5,0.2c-2.9,0.9-6.1,0.2-8.4-1.6
			c-0.1-0.1-0.2-0.2-0.4-0.3c-3.4-2.7-8.3-2.7-11.7,0.1c-0.1,0.1-0.2,0.2-0.4,0.3c-2.3,1.9-5.5,2.6-8.4,1.7
			c-0.2-0.1-0.3-0.1-0.5-0.1c-4.3-1.2-8.8,0.8-10.8,4.8c0,0,0,0.1-0.1,0.1c-1.4,2.7-4,4.6-7,5.1c-0.2,0-0.3,0-0.5,0.1
			c-4.4,0.7-7.7,4.5-7.9,9c0,0.4,0,0.8,0,1.1c0,2.8-1.2,5.5-3.5,7.2c-0.8,0.6-1.6,1.3-2.4,2c-2.8,2.6-3.7,6.6-2.5,10.2
			c0.2,0.5,0.4,1,0.5,1.5C172.8,177.3,173.1,178.1,173.5,179"/>
		<circle fill="#FFFFFF" stroke="#CA3032" stroke-width="3" stroke-linecap="round" cx="221.8" cy="182.6" r="35.4"/>
	</g>
	<rect x="201.8" y="176.7" fill="#DB7071" width="11.9" height="19.8"/>
	<rect x="201.8" y="176.7" fill="none" stroke="#CA3032" stroke-width="2" width="11.9" height="19.8"/>
	<path fill="none" stroke="#CA3032" stroke-width="2" d="M213.7,195.5c0,0,1.9-0.1,2.6,0.1c0.8,0.3,1.9,1,1.9,1c0,0,21,0,21,0
		c1.4,0,2.6-1.1,2.6-2.6c0-1.4-1.1-2.6-2.6-2.6v-0.1c1.4,0,2.6-1.1,2.6-2.6c0-1.4-1.1-2.6-2.5-2.6c1.4,0,2.5-1.1,2.5-2.6
		c0-1.4-1.1-2.5-2.5-2.6c1.4,0,2.5-1.1,2.5-2.6c0-1.4-1.1-2.5-2.5-2.6c0,0-6.5,0-12.2,0c0,0,1.2-3.7,1.2-6.8c0-3.1-0.2-5.8-0.2-5.8
		c0,0,0,0,0,0c0-1.4-1.1-2.6-2.6-2.6c-1.4,0-2.6,1.1-2.6,2.6c0,0,0,3.4-1,6c-1,2.6-2.7,5.1-4.5,7.3c-1.7,2.2-3.7,1.9-3.7,1.9"/>
	<circle fill="none" stroke="#FFFFFF" stroke-width="2" cx="207.7" cy="191.2" r="2.2"/>
</g>
</svg>
