<?xml version="1.0" encoding="utf-8"?>
<!-- Generator: Adobe Illustrator 18.1.1, SVG Export Plug-In . SVG Version: 6.00 Build 0)  -->
<svg version="1.1" id="Layer_1" xmlns="http://www.w3.org/2000/svg" xmlns:xlink="http://www.w3.org/1999/xlink" x="0px" y="0px"
	 viewBox="0 0 143.5 119.3" enable-background="new 0 0 143.5 119.3" xml:space="preserve">
<g>
	<g>
		<g>
			<g>
				
					<polygon fill="#FFFFFF" stroke="#C73130" stroke-width="4" stroke-linecap="round" stroke-linejoin="round" stroke-miterlimit="10" points="
					66.3,2 66.3,105.8 128.3,117.3 128.3,105.8 128.3,15.9 				"/>
				
					<polygon fill="#FFFFFF" stroke="#C73130" stroke-width="4" stroke-linecap="round" stroke-linejoin="round" stroke-miterlimit="10" points="
					66.3,2 128.3,15.9 128.3,105.8 141.5,105.8 141.5,2 				"/>
			</g>
		</g>
		
			<polygon fill="#DB7171" stroke="#C73130" stroke-width="2.5" stroke-linecap="round" stroke-linejoin="round" stroke-miterlimit="10" points="
			78,18.9 115.2,27.3 115.2,88.2 78,81.3 		"/>
		
			<line fill="none" stroke="#DB7171" stroke-width="2.5" stroke-linecap="round" stroke-linejoin="round" stroke-miterlimit="10" x1="80.6" y1="91.3" x2="112.6" y2="97.4"/>
		
			<line fill="none" stroke="#DB7171" stroke-width="2.5" stroke-linecap="round" stroke-linejoin="round" stroke-miterlimit="10" x1="81.3" y1="99.8" x2="113.3" y2="105.8"/>
	</g>
	<g>
		<rect x="5" y="36.7" fill="#FFFFFF" width="80.2" height="54.8"/>
		<g>
			<g id="XMLID_257_">
				<path id="XMLID_258_" fill="#C73130" d="M90.2,94H0V31.7h90.2V94z M5,88.9h80.2V36.7H5V88.9z"/>
			</g>
			<polygon fill="#DB7171" points="5,36.7 45.1,64.7 85.2,36.7 			"/>
		</g>
	</g>
</g>
</svg>
