<?xml version="1.0" encoding="utf-8"?>
<!-- Generator: Adobe Illustrator 18.1.1, SVG Export Plug-In . SVG Version: 6.00 Build 0)  -->
<svg version="1.1" id="Layer_1" xmlns="http://www.w3.org/2000/svg" xmlns:xlink="http://www.w3.org/1999/xlink" x="0px" y="0px"
	 viewBox="0 0 162 156.9" enable-background="new 0 0 162 156.9" xml:space="preserve">
<g>
	<g>
		
			<rect x="12.2" y="8.6" transform="matrix(0.9756 -0.2197 0.2197 0.9756 -13.7811 14.0459)" fill="#DB7171" width="88.1" height="120.9"/>
		<g>
			<g>
				<g>
					
						<rect x="24.5" y="105.1" transform="matrix(0.9756 -0.2197 0.2197 0.9756 -23.9484 17.7413)" fill="#FFFFFF" width="86.5" height="23"/>
				</g>
				<g>
					<path fill="#C73130" d="M114.4,119.5l-87.5,19.7L0,19.7L87.5,0L114.4,119.5z M30,134.3l79.6-17.9L84.5,4.9L4.9,22.8L30,134.3z"
						/>
				</g>
				<g>
					<g>
						
							<rect x="34.7" y="118.9" transform="matrix(0.9756 -0.2197 0.2197 0.9756 -25.26 13.934)" fill="#ED1C24" width="30.6" height="3.2"/>
					</g>
					<g>
						
							<rect x="33.3" y="112.7" transform="matrix(0.9756 -0.2197 0.2197 0.9756 -23.9207 13.4719)" fill="#ED1C24" width="30.6" height="3.2"/>
					</g>
				</g>
				<g>
					<g>
						
							<rect x="70.7" y="110.8" transform="matrix(0.9756 -0.2197 0.2197 0.9756 -22.5998 21.6441)" fill="#ED1C24" width="30.6" height="3.2"/>
					</g>
					<g>
						
							<rect x="69.3" y="104.6" transform="matrix(0.9756 -0.2197 0.2197 0.9756 -21.2605 21.182)" fill="#ED1C24" width="30.6" height="3.2"/>
					</g>
				</g>
				<g id="XMLID_842_">
					
						<rect id="XMLID_926_" x="21.5" y="30.7" transform="matrix(0.9756 -0.2197 0.2197 0.9756 -11.6781 13.5617)" fill="#FFFFFF" width="67.3" height="57.3"/>
					<g id="XMLID_843_">
						
							<rect id="XMLID_844_" x="27.5" y="85.5" transform="matrix(0.9756 -0.2197 0.2197 0.9756 -17.5308 15.5812)" fill="#FFFFFF" width="67.5" height="2.2"/>
					</g>
				</g>
			</g>
		</g>
	</g>
	<g>
		<rect x="63.7" y="21.9" fill="#FFFFFF" width="92.1" height="110.9"/>
		<g>
			<g>
				<g>
					<rect x="61.1" y="128.8" fill="#DB7171" width="99" height="26.3"/>
				</g>
				<g>
					<path fill="#C73130" d="M162,156.9H59.3V16.8H162V156.9z M64,152.2h93.4V21.4H64V152.2z"/>
				</g>
				<g>
					<rect x="83.8" y="31.6" fill="#C73130" width="53.8" height="3.7"/>
				</g>
				<g>
					<g>
						<rect x="72.3" y="120.8" fill="#C73130" width="35.1" height="3.7"/>
					</g>
				</g>
				<g>
					<g>
						<rect x="114.5" y="120.8" fill="#C73130" width="35.1" height="3.7"/>
					</g>
				</g>
				<g>
					<g>
						<rect x="72.3" y="140.1" fill="#FFFFFF" width="35.1" height="3.7"/>
					</g>
					<g>
						<rect x="72.3" y="132.7" fill="#FFFFFF" width="35.1" height="3.7"/>
					</g>
				</g>
				<g>
					<g>
						<rect x="114.5" y="140.1" fill="#FFFFFF" width="35.1" height="3.7"/>
					</g>
					<g>
						<rect x="114.5" y="132.7" fill="#FFFFFF" width="35.1" height="3.7"/>
					</g>
				</g>
				<g id="XMLID_934_">
					<rect id="XMLID_948_" x="72.4" y="42" fill="#DB7171" width="77" height="65.5"/>
					<polygon id="XMLID_947_" fill="#FFFFFF" points="113.7,106.8 94.9,82.7 75.2,106.8 					"/>
					<g id="XMLID_945_">
						<polygon id="XMLID_946_" fill="#C73130" points="76.1,107.6 74.2,106 95,80.7 105.3,93.9 103.3,95.5 94.9,84.7 						"/>
					</g>
					<polygon id="XMLID_944_" fill="#FFFFFF" points="140.1,106.3 116.1,75.3 90.7,106.3 					"/>
					<g id="XMLID_942_">
						<rect id="XMLID_943_" x="72.3" y="105.6" fill="#C73130" width="77.3" height="2.5"/>
					</g>
					<path id="XMLID_941_" fill="#FFFFFF" d="M145.2,78c0-0.5-0.4-1-1-1c-0.2,0-0.3,0-0.4,0.1c-0.2-0.4-0.5-0.6-1-0.7
						c0-0.1,0.1-0.2,0.1-0.3c0-0.9-0.7-1.6-1.6-1.6c-0.4,0-0.8,0.2-1.1,0.4c-0.1-1.6-1.4-2.8-3-2.8c-1.4,0-2.5,0.9-2.9,2.2
						c-0.1,0-0.3,0-0.4,0c-1,0-1.8,0.7-2,1.5c-0.2-0.1-0.4-0.1-0.7-0.1c-1,0-1.9,0.8-1.9,1.9c0,0.4,0.1,0.7,0.3,0.9H145
						C145.1,78.4,145.2,78.2,145.2,78z"/>
					<path id="XMLID_940_" fill="#FFFFFF" d="M86.5,59.7c0-0.3-0.2-0.6-0.6-0.6c-0.1,0-0.2,0-0.2,0.1c-0.1-0.2-0.3-0.4-0.5-0.4
						c0-0.1,0-0.1,0-0.2c0-0.5-0.4-0.9-0.9-0.9c-0.2,0-0.5,0.1-0.6,0.2c-0.1-0.9-0.8-1.6-1.7-1.6c-0.8,0-1.4,0.5-1.6,1.2
						c-0.1,0-0.2,0-0.2,0c-0.5,0-1,0.4-1.1,0.9c-0.1,0-0.3-0.1-0.4-0.1c-0.6,0-1.1,0.5-1.1,1.1c0,0.2,0.1,0.4,0.2,0.5h8.7
						C86.5,59.9,86.5,59.8,86.5,59.7z"/>
					<g id="XMLID_937_">
						<polygon id="XMLID_938_" fill="#C73130" points="91.7,107.1 89.7,105.5 116.1,73.3 141.1,105.5 139.2,107 116.1,77.3 						
							"/>
					</g>
					<circle fill="#FFFFFF" cx="102.1" cy="71.7" r="3.2"/>
				</g>
			</g>
		</g>
	</g>
</g>
</svg>
