<?xml version="1.0" encoding="utf-8"?>
<!-- Generator: Adobe Illustrator 18.1.1, SVG Export Plug-In . SVG Version: 6.00 Build 0)  -->
<svg version="1.1" id="Layer_1" xmlns="http://www.w3.org/2000/svg" xmlns:xlink="http://www.w3.org/1999/xlink" x="0px" y="0px"
	 viewBox="0 0 312.3 271.3" enable-background="new 0 0 312.3 271.3" xml:space="preserve">
<g>
	<line fill="none" stroke="#CA3032" stroke-width="3" x1="9.6" y1="16.3" x2="9.6" y2="31.5"/>
	<line fill="none" stroke="#CA3032" stroke-width="3" x1="2.3" y1="24.4" x2="16.8" y2="24.4"/>
	<line fill="none" stroke="#CA3032" stroke-width="3" x1="63.6" y1="242.3" x2="63.6" y2="257.5"/>
	<line fill="none" stroke="#CA3032" stroke-width="3" x1="56.3" y1="250.4" x2="70.8" y2="250.4"/>
	<line fill="none" stroke="#CA3032" stroke-width="3" x1="7.2" y1="194.7" x2="7.2" y2="209.8"/>
	<line fill="none" stroke="#CA3032" stroke-width="3" x1="0" y1="202.8" x2="14.4" y2="202.8"/>
	<line fill="none" stroke="#CA3032" stroke-width="3" x1="20.7" y1="245.4" x2="20.7" y2="271.3"/>
	<line fill="none" stroke="#CA3032" stroke-width="3" x1="8.4" y1="259.3" x2="33" y2="259.3"/>
	<line fill="none" stroke="#CA3032" stroke-width="3" stroke-linecap="round" x1="273.1" y1="19.8" x2="282.7" y2="7.7"/>
	<line fill="none" stroke="#CA3032" stroke-width="3" stroke-linecap="round" x1="262.5" y1="15" x2="268.7" y2="1.5"/>
	<line fill="none" stroke="#CA3032" stroke-width="3" stroke-linecap="round" x1="280.3" y1="27.1" x2="293.2" y2="18.8"/>
	<path fill="#DB7071" stroke="#CA3032" stroke-width="3" stroke-linecap="round" d="M309.3,192.6l-16.4-9.5V96.8c0-3.9-3.1-7-7-7
		H124.8c-3.9,0-7,3.1-7,7v139.6c0,3.9,3.1,7,7,7h161.1c3.9,0,7-3.1,7-7V202L309.3,192.6z"/>
	<path fill="#FFFFFF" stroke="#CA3032" stroke-width="3" d="M253.4,35.4H46.3c-3.9,0-7,3.1-7,7V112l-27.7,16l27.7,16v64.2
		c0,3.9,3.1,7,7,7h207.1c3.9,0,7-3.1,7-7V42.5C260.4,38.6,257.3,35.4,253.4,35.4z"/>
	<line fill="none" stroke="#CA3032" stroke-width="3" x1="168.4" y1="78.7" x2="226.6" y2="78.7"/>
	<line fill="none" stroke="#CA3032" stroke-width="3" x1="168.4" y1="98.1" x2="236.3" y2="98.1"/>
	<line fill="none" stroke="#CA3032" stroke-width="3" x1="236.3" y1="78.7" x2="246" y2="78.7"/>
	<line fill="none" stroke="#CA3032" stroke-width="3" x1="168.4" y1="88.4" x2="207.2" y2="88.4"/>
	<line fill="none" stroke="#CA3032" stroke-width="3" x1="219.5" y1="88.4" x2="246" y2="88.4"/>
	<line fill="none" stroke="#CA3032" stroke-width="3" x1="61.6" y1="147.9" x2="164.4" y2="147.9"/>
	<line fill="none" stroke="#CA3032" stroke-width="3" x1="61.6" y1="170.8" x2="244.3" y2="170.8"/>
	<line fill="none" stroke="#CA3032" stroke-width="3" x1="175.8" y1="147.9" x2="232.9" y2="147.9"/>
	<line fill="none" stroke="#CA3032" stroke-width="3" x1="61.6" y1="182.2" x2="164.4" y2="182.2"/>
	<line fill="none" stroke="#CA3032" stroke-width="3" x1="61.3" y1="159.3" x2="231.2" y2="159.3"/>
	<g>
		<polygon fill="#DB7071" points="70.1,112.3 65.3,118.7 64.9,58.2 153.2,58.2 154.6,103.1 130.8,79.3 112.5,97.6 94.9,81.7 		"/>
		<path fill="none" stroke="#CA3032" stroke-width="3" stroke-linecap="round" d="M154.1,118.8c0,2-2,3.6-3.6,3.6l-82.8-0.1
			c-2,0-3.6-1.6-3.6-3.6l0-58.2c0-2,1.6-3.6,3.6-3.6l82.8,0.1c2,0,3.6,1.6,3.6,3.6L154.1,118.8z"/>
		<polyline fill="none" stroke="#CA3032" stroke-width="3" stroke-linecap="round" points="66,120.1 94.9,81.7 140,122.4 		"/>
		<polyline fill="none" stroke="#CA3032" stroke-width="3" points="112.5,97.6 130.8,79.3 154.6,103.1 		"/>
		<line fill="none" stroke="#CA3032" stroke-width="3" stroke-linecap="round" x1="129.1" y1="122.4" x2="108.4" y2="104.5"/>
		<line fill="none" stroke="#CA3032" stroke-width="3" stroke-linecap="round" x1="104" y1="100.7" x2="100" y2="97.2"/>
	</g>
</g>
</svg>
