<?xml version="1.0" encoding="utf-8"?>
<!-- Generator: Adobe Illustrator 18.1.1, SVG Export Plug-In . SVG Version: 6.00 Build 0)  -->
<svg version="1.1" id="Layer_1" xmlns="http://www.w3.org/2000/svg" xmlns:xlink="http://www.w3.org/1999/xlink" x="0px" y="0px"
	 viewBox="0 0 167 138.1" enable-background="new 0 0 167 138.1" xml:space="preserve">
<g>
	<g>
		<path fill="#DB7171" d="M127.6,20.6h-42c-6,0-10.8,4.8-10.8,10.8v9.4h63.6v-9.4C138.4,25.4,133.6,20.6,127.6,20.6z"/>
		<path fill="#DB7171" d="M138.4,114.9H74.8v10c0,5.6,4.6,10.2,10.2,10.2h43.2c5.6,0,10.2-4.6,10.2-10.2V114.9z"/>
		<g>
			<rect x="74.8" y="42.7" fill="#FFFFFF" width="63.6" height="71.1"/>
		</g>
		<g>
			<rect x="74.8" y="40.8" fill="#C73130" width="63.6" height="3.7"/>
		</g>
		<g>
			<rect x="74.8" y="111.9" fill="#C73130" width="63.6" height="3.7"/>
		</g>
		<g>
			<path fill="#C73130" d="M129.1,138.1H84.2c-6.2,0-11.2-5-11.2-11.2V29.6c0-6.2,5-11.2,11.2-11.2h44.9c6.2,0,11.2,5,11.2,11.2
				v24.3h-3.7V29.6c0-4.1-3.4-7.5-7.5-7.5H84.2c-4.1,0-7.5,3.4-7.5,7.5v97.3c0,4.1,3.4,7.5,7.5,7.5h44.9c4.1,0,7.5-3.4,7.5-7.5V98.7
				h3.7v28.2C140.3,133.1,135.3,138.1,129.1,138.1z"/>
		</g>
		<g>
			<rect x="95.4" y="29.6" fill="#FFFFFF" width="22.5" height="3.7"/>
		</g>
		<g>
			<rect x="102.9" y="121.3" fill="#FFFFFF" width="7.5" height="7.5"/>
		</g>
		<g>
			<path fill="#C73130" d="M112.2,130.6H101v-11.2h11.2V130.6z M104.8,126.9h3.7v-3.7h-3.7V126.9z"/>
		</g>
		<g>
			<g>
				<path fill="#FFFFFF" d="M101.6,53.7h59.2c2.6,0,4.7,2.2,4.7,5V92c0,2.8-2.1,5-4.7,5h-59.2C99,97,97,94.8,97,92V58.7
					C97,56,99,53.7,101.6,53.7z"/>
			</g>
			<g>
				<path fill="#C73130" d="M160.8,98.7h-59.2c-3.4,0-6.2-3-6.2-6.7V58.7c0-3.7,2.8-6.7,6.2-6.7h59.2c3.4,0,6.2,3,6.2,6.7V92
					C167,95.7,164.2,98.7,160.8,98.7z M101.6,55.4c-1.7,0-3.1,1.5-3.1,3.3V92c0,1.8,1.4,3.3,3.1,3.3h59.2c1.7,0,3.1-1.5,3.1-3.3
					V58.7c0-1.8-1.4-3.3-3.1-3.3H101.6z"/>
			</g>
			<g>
				<rect x="101.6" y="68.5" fill="#DB7171" width="43.6" height="6.7"/>
			</g>
			<g>
				<rect x="148.3" y="68.5" fill="#DB7171" width="12.5" height="6.7"/>
			</g>
			<g>
				<rect x="101.6" y="85.4" fill="#DB7171" width="21.8" height="3.3"/>
			</g>
			<g>
				<rect x="126.5" y="85.4" fill="#DB7171" width="6.2" height="3.3"/>
			</g>
		</g>
	</g>
	<g>
		<path fill="#FFFFFF" d="M12.6,4.2C8,4.2,4.2,8,4.2,12.6v100.6c0,4.6,3.8,8.4,8.4,8.4h58.7c4.6,0,8.4-3.8,8.4-8.4V12.6
			c0-4.6-3.8-8.4-8.4-8.4H12.6z"/>
		<g>
			<g>
				<polyline fill="#ED1C24" points="81.8,104.8 2.1,104.8 2.1,21 81.8,21 				"/>
			</g>
			<g>
				<g>
					<path fill="#DB7171" d="M81.8,99.3V26.5c0-4.2-4.7-7.6-10.5-7.6H12.6c-5.8,0-10.5,3.4-10.5,7.6v72.9c0,4.2,4.7,7.6,10.5,7.6
						h58.7C77.1,106.9,81.8,103.5,81.8,99.3z"/>
				</g>
				<g>
					<rect x="2.1" y="16.8" fill="#C73130" width="79.7" height="4.2"/>
				</g>
				<g>
					<rect x="2.1" y="104.8" fill="#C73130" width="79.7" height="4.2"/>
				</g>
				<g>
					<path fill="#C73130" d="M71.3,125.8H12.6c-6.9,0-12.6-5.6-12.6-12.6V12.6C0,5.6,5.6,0,12.6,0h58.7c6.9,0,12.6,5.6,12.6,12.6
						v100.6C83.9,120.2,78.2,125.8,71.3,125.8z M12.6,4.2C8,4.2,4.2,8,4.2,12.6v100.6c0,4.6,3.8,8.4,8.4,8.4h58.7
						c4.6,0,8.4-3.8,8.4-8.4V12.6c0-4.6-3.8-8.4-8.4-8.4H12.6z"/>
				</g>
				<g>
					<rect x="33.5" y="8.4" fill="#DB7171" width="16.8" height="4.2"/>
				</g>
				<g>
					<rect x="37.7" y="113.2" fill="#DB7171" width="8.4" height="4.2"/>
				</g>
			</g>
			<g>
				<g>
					<circle fill="#FFFFFF" cx="41.9" cy="56.6" r="21"/>
				</g>
				<g>
					<path fill="#C73130" d="M41.9,79.7c-12.7,0-23.1-10.3-23.1-23.1s10.3-23.1,23.1-23.1C54.7,33.5,65,43.9,65,56.6
						S54.7,79.7,41.9,79.7z M41.9,37.7c-10.4,0-18.9,8.5-18.9,18.9s8.5,18.9,18.9,18.9c10.4,0,18.9-8.5,18.9-18.9
						S52.3,37.7,41.9,37.7z"/>
				</g>
				<g>
					<circle fill="#C73130" cx="41.9" cy="56.6" r="8.4"/>
				</g>
				<g>
					<rect x="39.8" y="88.1" fill="#FFFFFF" width="4.2" height="4.2"/>
				</g>
				<g>
					<rect x="31.5" y="88.1" fill="#FFFFFF" width="4.2" height="4.2"/>
				</g>
				<g>
					<rect x="48.2" y="88.1" fill="#FFFFFF" width="4.2" height="4.2"/>
				</g>
			</g>
		</g>
	</g>
</g>
</svg>
