<?xml version="1.0" encoding="utf-8"?>
<!-- Generator: Adobe Illustrator 18.1.1, SVG Export Plug-In . SVG Version: 6.00 Build 0)  -->
<svg version="1.1" id="Layer_1" xmlns="http://www.w3.org/2000/svg" xmlns:xlink="http://www.w3.org/1999/xlink" x="0px" y="0px"
	 viewBox="0 0 112.3 110.5" enable-background="new 0 0 112.3 110.5" xml:space="preserve">
<g>
	<rect x="16.9" y="1.6" fill="#DB7171" width="17.7" height="85.7"/>
	<g id="XMLID_856_">
		<polygon id="XMLID_857_" fill="#C73130" points="18.3,88.1 15.3,88.1 15.3,0.3 99,0.3 99,75.3 96.1,75.3 96.1,3.2 18.3,3.2 		"/>
		<rect x="46.6" y="107.7" fill="#C73130" width="13.9" height="2.8"/>
	</g>
	<rect x="35.6" y="1.6" fill="#DB7171" width="6" height="85.7"/>
	<g id="XMLID_853_">
		<polygon id="XMLID_855_" fill="#C73130" points="44.4,87.4 41.4,87.4 41.4,3 35.8,3 35.8,87.4 32.9,87.4 32.9,0 44.4,0 		"/>
	</g>
	<g id="XMLID_845_">
		<path id="XMLID_846_" fill="#C73130" d="M49.7,110.5H7.9V85.9h41.8V110.5z M10.9,107.6h35.8V88.8H10.9V107.6z"/>
	</g>
	<g id="XMLID_812_">
		<path id="XMLID_839_" fill="#C73130" d="M112.3,110.3H59V73.6h53.3V110.3z M62,107.4h47.4V76.5H62V107.4z"/>
	</g>
	<rect x="83.4" y="93.5" fill="#C73130" width="20.7" height="8.6"/>
	<g>
		<path fill-rule="evenodd" clip-rule="evenodd" fill="#C73130" d="M72.7,22.4c-0.3,0.2-0.2,2.5-0.1,2.9c0.2,1,0.2,1.6,0.7,2.4
			c0.6,1.1,2,2.6,3.2,3.1c1.3,0.6,1,0.5,2.5,0.7c0.9,0.1,1.9,0,2.8-0.3c1.5-0.5,2.7-1.3,3.7-2.7c0.6-0.8,0.7-1.1,1.1-2.1
			c0.1-0.4,0.3-1,0.3-1.3c0-0.7-0.6-0.5-1.1-0.5c-0.5,0-1.1,0-1.6,0c-0.5,0-1.1,0-1.6,0c-0.6,0-0.8,0.1-0.9,0.6
			c-0.3,1.1-2.1,1.7-3.2,0.9c-0.9-0.7-0.8-1.2-0.8-2.3c0-0.4,0.1-1.2-0.2-1.4c-0.2-0.1-1.2,0-1.5,0C75.5,22.3,72.8,22.3,72.7,22.4
			L72.7,22.4z"/>
		<path fill-rule="evenodd" clip-rule="evenodd" fill="#C73130" d="M77.4,14.9c0.1-0.1,0-0.1,0.1-0.3c0.1-0.1,0-0.2,0.1-0.3
			c0.1-0.1,0.2-0.4,0.3-0.5c0.1-0.1,0.3-0.3,0.4-0.4c0.1-0.1,0.2-0.1,0.3-0.1c0.2-0.1,0.2-0.1,0.3-0.1c0.1-0.1,0.1-0.1,0.3-0.1
			c0.2,0,0.1-0.1,0.3-0.1c0,0,0.3,0,0.4,0c0.2,0,0.1,0.1,0.3,0.1c0.1,0,0.3,0,0.4,0c0.1,0.1,0.2,0.1,0.3,0.1
			c0.1,0.1,0.1,0.2,0.2,0.2c0.2,0.1,0.1,0,0.3,0.1c0.1,0.1,0.1,0.1,0.2,0.2c0,0.2,0,0.1,0.2,0.2c0.1,0.1,0,0.2,0.1,0.3
			c0.1,0.1,0.1,0.1,0.1,0.3c0,0.1,0,0.3,0,0.4c0.1,0.1,0.1,0,0.1,0.3l0,1.6c0,0.2,0.1,0.2,0.2,0.2c0.5,0,1.5,0,2,0
			c0.5,0,1.1,0,1.6,0c0.5,0,1.2,0.2,1.2-0.4c0-0.5,0-1.1,0-1.6c0-0.6-0.1-0.9-0.1-1.4c-0.2-1-0.5-1.4-0.9-2.3
			c-0.1-0.3-1.2-1.5-1.5-1.7c-0.2-0.1-0.3-0.2-0.4-0.3c-0.2-0.2-0.3-0.2-0.5-0.3c-0.4-0.2-0.6-0.4-1-0.5c-0.4-0.1-0.8-0.3-1.2-0.4
			C80.4,8,80.3,8,79.6,8c-1.2,0-1.6,0.1-2.7,0.5c-0.7,0.2-1.4,0.7-2,1.2c-0.4,0.3-1.2,1.3-1.4,1.7c-0.1,0.2-0.2,0.3-0.3,0.5
			c-0.1,0.2-0.1,0.4-0.2,0.6c-0.2,0.4-0.4,1.4-0.5,1.9c0,0.1,0,0.2,0,0.4c0,0.2,0,0.2,0.2,0.2C73.5,14.9,77.2,15,77.4,14.9
			L77.4,14.9z"/>
		<path fill-rule="evenodd" clip-rule="evenodd" fill="#C73130" d="M72.7,15.1c-0.4,0.2,0.1,2,0.2,2.4c0.2,0.6,0.7,1.4,1,1.9
			c0.3,0.4,1.1,1.2,1.5,1.5c0.7,0.5,1.2,0.7,1.9,1c0.9,0.3,1.6,0.3,2.6,0.4c0.7,0,1.4,0.6,1.7,1.3c0.1,0.4,0,0.9,0.5,1
			c0.2,0,0.5,0,0.8,0c0.2,0,0.5,0,0.7,0c0.4,0,2.8,0,2.9,0c0.5-0.2,0-2.1-0.1-2.5c-0.1-0.5-0.6-1.5-1-2c-0.8-1.1-2.3-2-3.5-2.4
			c-0.9-0.3-1.6-0.4-2.5-0.4c-0.6,0-0.6-0.1-1.1-0.4c-0.2-0.2-0.6-0.6-0.7-0.8c-0.1-0.4,0-0.9-0.6-0.9c-0.2,0-0.5,0-0.8,0
			C75.8,15.1,72.8,15,72.7,15.1L72.7,15.1z"/>
	</g>
	<g>
		<path fill-rule="evenodd" clip-rule="evenodd" fill="#C73130" d="M65.8,86c-0.2,0.1-0.1,1.1,0,1.3c0.1,0.4,0.1,0.7,0.3,1.1
			c0.3,0.5,0.9,1.2,1.5,1.4c0.6,0.3,0.5,0.2,1.1,0.3c0.4,0.1,0.9,0,1.3-0.1c0.7-0.2,1.3-0.6,1.7-1.2c0.3-0.4,0.3-0.5,0.5-1
			c0.1-0.2,0.1-0.4,0.1-0.6c0-0.3-0.3-0.2-0.5-0.2c-0.2,0-0.5,0-0.7,0c-0.2,0-0.5,0-0.7,0c-0.3,0-0.4,0-0.4,0.3
			c-0.1,0.5-1,0.8-1.5,0.4c-0.4-0.3-0.4-0.6-0.4-1.1c0-0.2,0.1-0.6-0.1-0.6c-0.1,0-0.6,0-0.7,0C67.1,86,65.8,86,65.8,86L65.8,86z"/>
		<path fill-rule="evenodd" clip-rule="evenodd" fill="#C73130" d="M68,82.6c0,0,0-0.1,0.1-0.1c0-0.1,0-0.1,0-0.1
			c0.1-0.1,0.1-0.2,0.1-0.2c0.1-0.1,0.1-0.1,0.2-0.2c0.1-0.1,0.1,0,0.1-0.1c0.1-0.1,0.1,0,0.1-0.1c0.1-0.1,0.1,0,0.1,0
			c0.1,0,0.1,0,0.1-0.1c0,0,0.2,0,0.2,0c0.1,0,0.1,0.1,0.1,0.1c0.1,0,0.1,0,0.2,0c0.1,0,0.1,0,0.1,0.1c0,0,0,0.1,0.1,0.1
			c0.1,0,0,0,0.1,0.1c0,0,0.1,0,0.1,0.1c0,0.1,0,0.1,0.1,0.1c0.1,0.1,0,0.1,0.1,0.1c0.1,0.1,0,0.1,0,0.1c0,0,0,0.1,0,0.2
			c0,0.1,0.1,0,0.1,0.1l0,0.7c0,0.1,0,0.1,0.1,0.1c0.2,0,0.7,0,0.9,0c0.2,0,0.5,0,0.7,0c0.2,0,0.6,0.1,0.6-0.2c0-0.2,0-0.5,0-0.7
			c0-0.3,0-0.4-0.1-0.7c-0.1-0.4-0.2-0.7-0.4-1c-0.1-0.1-0.5-0.7-0.7-0.8c-0.1-0.1-0.1-0.1-0.2-0.2c-0.1-0.1-0.1-0.1-0.2-0.1
			c-0.2-0.1-0.3-0.2-0.5-0.2c-0.2-0.1-0.4-0.1-0.6-0.2c-0.3-0.1-0.4-0.1-0.7-0.1c-0.5,0-0.7,0-1.2,0.2c-0.3,0.1-0.6,0.3-0.9,0.6
			c-0.2,0.1-0.6,0.6-0.7,0.8c0,0.1-0.1,0.1-0.1,0.2c0,0.1-0.1,0.2-0.1,0.3c-0.1,0.2-0.2,0.6-0.2,0.9c0,0.1,0,0.1,0,0.2
			c0,0.1,0,0.1,0.1,0.1C66.2,82.6,67.9,82.6,68,82.6L68,82.6z"/>
		<path fill-rule="evenodd" clip-rule="evenodd" fill="#C73130" d="M65.8,82.7c-0.2,0.1,0.1,0.9,0.1,1.1c0.1,0.3,0.3,0.7,0.5,0.9
			c0.1,0.2,0.5,0.6,0.7,0.7c0.3,0.2,0.5,0.3,0.9,0.5c0.4,0.1,0.7,0.2,1.2,0.2c0.3,0,0.7,0.3,0.8,0.6c0.1,0.2,0,0.4,0.2,0.5
			c0.1,0,0.2,0,0.3,0c0.1,0,0.2,0,0.3,0c0.2,0,1.3,0,1.4,0c0.2-0.1,0-0.9,0-1.1c-0.1-0.2-0.3-0.7-0.4-0.9c-0.4-0.5-1.1-0.9-1.6-1.1
			c-0.4-0.1-0.7-0.2-1.2-0.2c-0.3,0-0.3,0-0.5-0.2c-0.1-0.1-0.3-0.3-0.3-0.4c-0.1-0.2,0-0.4-0.3-0.4c-0.1,0-0.2,0-0.4,0
			C67.2,82.6,65.8,82.6,65.8,82.7L65.8,82.7z"/>
	</g>
	<g>
		<path fill-rule="evenodd" clip-rule="evenodd" fill="#C73130" d="M15.4,96.9c-0.1,0.1-0.1,1,0,1.1c0.1,0.4,0.1,0.6,0.3,1
			c0.2,0.5,0.8,1,1.3,1.2c0.5,0.2,0.4,0.2,1,0.3c0.3,0.1,0.8,0,1.1-0.1c0.6-0.2,1.1-0.5,1.4-1c0.2-0.3,0.3-0.4,0.4-0.8
			c0-0.1,0.1-0.4,0.1-0.5c0-0.3-0.2-0.2-0.4-0.2c-0.2,0-0.4,0-0.6,0c-0.2,0-0.4,0-0.6,0c-0.2,0-0.3,0-0.4,0.3
			c-0.1,0.5-0.8,0.7-1.2,0.3c-0.4-0.3-0.3-0.5-0.3-0.9c0-0.1,0.1-0.5-0.1-0.5c-0.1,0-0.5,0-0.6,0C16.5,96.9,15.4,96.9,15.4,96.9
			L15.4,96.9z"/>
		<path fill-rule="evenodd" clip-rule="evenodd" fill="#C73130" d="M17.3,94c0,0,0,0,0.1-0.1c0,0,0-0.1,0-0.1c0,0,0.1-0.2,0.1-0.2
			c0-0.1,0.1-0.1,0.2-0.2c0.1-0.1,0.1,0,0.1-0.1c0.1-0.1,0.1,0,0.1-0.1c0.1,0,0,0,0.1,0c0.1,0,0.1,0,0.1,0c0,0,0.1,0,0.2,0
			c0.1,0,0,0,0.1,0.1c0,0,0.1,0,0.1,0c0.1,0,0.1,0,0.1,0.1c0,0,0,0.1,0.1,0.1c0.1,0,0,0,0.1,0.1c0,0,0.1,0,0.1,0.1
			c0,0.1,0,0,0.1,0.1c0,0,0,0.1,0.1,0.1c0.1,0.1,0,0,0,0.1c0,0,0,0.1,0,0.1c0,0.1,0,0,0,0.1l0,0.6c0,0.1,0,0.1,0.1,0.1
			c0.2,0,0.6,0,0.8,0c0.2,0,0.4,0,0.6,0c0.2,0,0.5,0.1,0.5-0.2c0-0.2,0-0.4,0-0.6c0-0.2,0-0.4-0.1-0.6c-0.1-0.4-0.2-0.6-0.4-0.9
			c-0.1-0.1-0.5-0.6-0.6-0.7c-0.1,0-0.1-0.1-0.2-0.1c-0.1-0.1-0.1-0.1-0.2-0.1c-0.2-0.1-0.2-0.1-0.4-0.2c-0.2-0.1-0.3-0.1-0.5-0.1
			c-0.3,0-0.3,0-0.6,0c-0.5,0-0.6,0-1.1,0.2c-0.3,0.1-0.5,0.3-0.8,0.5c-0.2,0.1-0.5,0.5-0.6,0.7c0,0.1-0.1,0.1-0.1,0.2
			c0,0.1-0.1,0.2-0.1,0.2c-0.1,0.2-0.2,0.5-0.2,0.7c0,0,0,0.1,0,0.1c0,0.1,0,0.1,0.1,0.1C15.7,94,17.2,94,17.3,94L17.3,94z"/>
		<path fill-rule="evenodd" clip-rule="evenodd" fill="#C73130" d="M15.4,94.1c-0.1,0.1,0.1,0.8,0.1,0.9c0.1,0.2,0.3,0.6,0.4,0.8
			c0.1,0.2,0.4,0.5,0.6,0.6c0.3,0.2,0.5,0.3,0.8,0.4c0.4,0.1,0.6,0.1,1,0.2c0.3,0,0.6,0.2,0.7,0.5c0.1,0.1,0,0.4,0.2,0.4
			c0.1,0,0.2,0,0.3,0c0.1,0,0.2,0,0.3,0c0.2,0,1.1,0,1.2,0c0.2-0.1,0-0.8,0-1c-0.1-0.2-0.3-0.6-0.4-0.8c-0.3-0.4-0.9-0.8-1.4-0.9
			c-0.3-0.1-0.6-0.1-1-0.2c-0.2,0-0.2,0-0.4-0.2c-0.1-0.1-0.2-0.2-0.3-0.3c-0.1-0.2,0-0.3-0.2-0.4c-0.1,0-0.2,0-0.3,0
			C16.6,94.1,15.4,94,15.4,94.1L15.4,94.1z"/>
	</g>
</g>
</svg>
