<?xml version="1.0" encoding="utf-8"?>
<!-- Generator: Adobe Illustrator 18.1.1, SVG Export Plug-In . SVG Version: 6.00 Build 0)  -->
<svg version="1.1" id="Layer_1" xmlns="http://www.w3.org/2000/svg" xmlns:xlink="http://www.w3.org/1999/xlink" x="0px" y="0px"
	 viewBox="0 0 136.9 110.1" enable-background="new 0 0 136.9 110.1" xml:space="preserve">
<g>
	<path fill="#DB7171" stroke="#C73130" stroke-width="5" stroke-miterlimit="10" d="M13.2,44.6c0,0,17.4,59,21.4,63h70.1
		c3.3-3.3,21.8-63,21.8-63"/>
	<path fill="none" stroke="#C73130" stroke-width="5" stroke-miterlimit="10" d="M134.4,38.7c0,3.3-2.7,5.9-5.9,5.9H8.4
		c-3.3,0-5.9-2.7-5.9-5.9l0,0c0-3.3,2.7-5.9,5.9-5.9h120C131.7,32.7,134.4,35.4,134.4,38.7L134.4,38.7z"/>
	<g>
		<path fill="#DB7171" stroke="#C73130" stroke-width="5" stroke-miterlimit="10" d="M126.5,25.4c0-4.3-2.1-7.8-4.8-7.8H17.9
			c-2.6,0-4.8,3.5-4.8,7.8v7.4h113.3V25.4z"/>
	</g>
	<g>
		<path fill="none" stroke="#C73130" stroke-width="5" stroke-miterlimit="10" d="M79.5,12.1c0-5.3-4.3-9.6-9.6-9.6
			c-5.3,0-9.6,4.3-9.6,9.6v5.4h19.3V12.1z"/>
	</g>
	<path fill="#FFFFFF" stroke="#C73130" stroke-width="5" stroke-miterlimit="10" d="M54.6,87.2c0,1.7,1.4,3.2,3.2,3.2h22.8
		c1.7,0,3.2-1.4,3.2-3.2V60.8c0-1.7-1.4-3.2-3.2-3.2H57.7c-1.7,0-3.2,1.4-3.2,3.2V87.2z"/>
	<line fill="none" stroke="#C73130" stroke-width="5" stroke-miterlimit="10" x1="61.9" y1="71.7" x2="76.6" y2="71.7"/>
	<line fill="none" stroke="#C73130" stroke-width="5" stroke-miterlimit="10" x1="61.8" y1="81" x2="76.5" y2="81"/>
</g>
</svg>
